<?xml version="1.0" encoding="UTF-8"?><svg id="Layer_1" xmlns="http://www.w3.org/2000/svg" viewBox="0 0 195.42 52.51"><defs><style>.cls-1{fill:#124480;}.cls-1,.cls-2{stroke-width:0px;}.cls-2{fill:#818eb1;}</style></defs><path class="cls-1" d="M135.01,24.81l-.21-.13c5.36-2.82,8.38-4.54,8.38-11.34,0-4.06-1.37-7.22-5.29-9.35-2.41-1.37-6.81-1.85-12.17-1.85-2.41,0-6.53.21-8.74.21-4.94,0-8.04-.21-9.14-.21-.41,0-.55.13-.55.48v1.72c0,.35.14.49.55.49h2.13c3.16,0,4.26.13,4.47,4.11.07,1.23.21,9.63.21,12.17v8.12c0,5.64-.14,14.72-.35,16.3-.27,2.2-.62,3.02-2.75,3.02h-1.93c-1.93,0-3.5-.13-4.94-1.17-1.3-.96-5.7-7.21-6.05-7.91-.55-.89-5.43-7.91-6.25-8.79-.77-1.17-1.87-2.08-3.17-2.62v-.14c8.75-1.93,12.7-5.15,12.7-13.75-.14-2.97-1.42-5.78-3.57-7.84-2.62-2.47-7.15-4.19-12.86-4.19-1.23,0-7.63.21-11.52.21-5.76,0-7.91-.21-8.52-.21-.35,0-.41.13-.41.48v1.72c0,.27.07.49.41.49h2.75c1.72,0,2.55,1.17,2.62,3.43.07,2,.07,6.4.07,11.52v6.67c0,6.52,0,12.99-.13,19.79,0,1.86-1.17,2.34-2.68,2.34h-2.79c-.35,0-.35.21-.35.55v1.59c0,.34,0,.54.55.54.76,0,2.34-.21,8.6-.21s8.23.21,9,.21.76-.13.76-.62v-1.55c0-.34-.07-.55-.54-.55h-4.34c-1.03,0-1.58-1.23-1.72-2.67-.07-1.04-.14-8.74-.14-12.79v-3.85c.75-.16,1.51-.23,2.27-.21,3.99,0,5.64,1.86,7.4,3.99.82.96,4.11,5.92,4.4,6.39s4.08,7.1,4.62,7.92c.87,1.37,1.84,2.68,2.89,3.92,1.04-.07,3.58-.21,5.57-.21,1.47,0,2.65.05,3.54.1.26.1.54.13.82.11h1.03c.07,0,.13,0,.2,0,1.83-.05,4.89-.18,7.57-.18,2.89,0,5.57.21,10.32.21,6.33,0,10.24-.68,13.16-2.47,3.17-2,5.3-6.81,5.3-10.32-.06-7.33-4.53-11.45-11.2-13.66ZM80.21,26.81c-1.04.02-2.08-.07-3.09-.28V7.08c-.09-.82.22-1.63.82-2.2.71-.4,1.52-.59,2.34-.55,5.7,0,8.73,1.03,11.41,3.16,2.21,2.01,3.46,4.86,3.44,7.84,0,2.89-2.4,11.48-14.92,11.48ZM120.71,18.7c0-5.71.07-11.69.13-13.06,0-.6.42-1.12,1-1.24.75-.09,1.51-.12,2.27-.07,3.5,0,6.94.62,9.42,2.34,2.24,1.71,3.5,4.41,3.36,7.22.12,3.2-1.32,6.26-3.85,8.23-1.65,1.18-4.74,1.79-8.66,1.79-1.21.02-2.43-.03-3.64-.14l-.04-5.07ZM127.93,49.02c-5.71,0-7.21-2.82-7.21-9.14v-13.76h2.2c3.16,0,6.39.07,9.21,1.17,4.06,1.58,6.87,5.22,6.87,10.79,0,8.19-5.29,10.93-11.07,10.93Z"/><path class="cls-2" d="M194.89,48.53h-2.29c-2.04-.01-3.87-1.23-4.68-3.09-.96-1.99-5.43-14.81-7.01-20.14-1.31-4.4-6.67-19.8-7.97-24.13-.21-.76-.35-1.17-.76-1.17s-.55.27-.9.62c-1.6,1.59-3.56,2.77-5.71,3.44-.48.13-.62.41-.62.62.08.33.25.64.49.89.48.76.13,1.65-.07,2.34-.62,1.85-6.19,16.63-6.66,18.01-2,5.64-7.02,18.35-7.49,19.46-.96,2.2-1.93,3.16-3.99,3.16h-2.34c-.27-.04-.51.15-.55.42,0,.02,0,.05,0,.07v1.65c0,.41.14.54.48.54.96,0,2.47-.21,7.49-.21,4.06,0,6.88.21,7.84.21.35,0,.55-.13.55-.62v-1.57c0-.35-.21-.49-.69-.49h-3.27c-1.51,0-2.34-.54-2.34-1.51,0-.35.14-1.04.21-1.51.35-1.45,4.11-11.9,4.81-13.62h16.91c.96,2.75,3.78,11.52,4.34,14.03.48,1.93-.14,2.61-2.06,2.61h-1.72c-.41,0-.62.07-.62.49v1.59c0,.41.21.62.55.62,1.58,0,3.98-.21,9.69-.21s7.01.21,8.23.21c.48,0,.68-.13.68-.48v-1.73c.02-.27-.11-.49-.53-.49ZM160.34,29.42c.48-1.72,7.01-19.32,7.35-20.21.21-.54.49-1.03.76-1.03s.35.49.55.96c.35,1.03,5.92,18.22,6.53,20.28h-15.2Z"/><path class="cls-1" d="M59.52,32.89c.25-.3.52-.62.52-1.22s-.38-1.11-.89-1.32c0,0,0,0,0,0-.21-.47-.63-.78-1.12-.84-.04-.01-.09-.03-.14-.04,0-.04-.01-.09-.02-.13.02-.08.02-.17.02-.26,0-.53-.31-1-.77-1.25-.01-.76-.65-1.4-1.41-1.4-.08,0-.15,0-.23.02-.21-.11-.43-.16-.66-.16-.02,0-.04,0-.06,0-.18-.11-.4-.2-.63-.22-.02-.13-.05-.26-.07-.39.07-.24.11-.35.14-.4.81-.34,1.51-.89,2.1-1.66.17-.26.32-.53.46-.8.07-.15.12-.31.14-.48.04-.09.07-.17.1-.26.07-.14.13-.28.16-.43.43-.35.62-.93.46-1.47-.02-.07-.04-.14-.07-.2.15-.15.29-.29.4-.42.25-.32.39-.7.39-1.12,0-.22-.04-.45-.12-.66-.27-.72-.88-.98-1.35-.98-.34,0-.67.13-.87.31-.05.04-.11.08-.15.12.01-.09.02-.17.02-.24,0-.16-.03-.33-.09-.48,0-.05,0-.1,0-.15v-.4c0-.09,0-.17-.02-.26.02-.09.02-.17.02-.26v-.48c0-.2-.04-.39-.12-.57.02-.12.03-.25.03-.37,0-.56-.21-1.25-.66-1.68-.1-.26-.26-.48-.47-.64-.18-.51-.59-.95-1.08-1.16-.22-.28-.51-.47-.83-.55-.27-.21-.59-.33-.92-.33-.03,0-.06,0-.09,0-.29-.21-.59-.33-.93-.35-.21-.1-.44-.16-.67-.16-.09,0-.17,0-.26.02-.18-.07-.36-.11-.54-.11-.21,0-.41.05-.6.14-.07,0-.15-.01-.22-.01-.27,0-.53.08-.76.23-.06,0-.13.01-.19.02-.32.05-.61.2-.82.43-.73-.52-1.6-1.13-2.39-1.68,0,0-1.54-1.08-1.62-1.14-.26-.23-.59-.36-.94-.36h-.21c-.52,0-.99.28-1.19.67-.19.27-.29.59-.29.9,0,.44.19.87.54,1.19.14.13,1.74,1.39,4.77,3.76-.14.14-.28.25-.4.34l-.25.13c-.63.33-1.34.69-1.57,1.44-.06.13-.1.27-.13.41-.02.05-.04.1-.06.15l-.19.56c-.04.12-.06.24-.07.36-.26.26-.41.61-.41.99v.04c-.43-.42-.96-.7-1.59-.86-.35-.07-.71-.11-1.08-.11,0,0-.16,0-.16,0-.18,0-.63-.1-.87-.16-.02,0-.04,0-.06-.01.03-.19.02-.38-.02-.56v-.06c.38-.33.62-.81.63-1.34,0-.1,0-.2-.02-.29.42-.82.63-1.49.63-2.01,0-.02,0-.05,0-.07.1-.11.17-.23.23-.37.15-.35.16-.76,0-1.11.07-.18.11-.38.11-.57,0-.18-.04-.36-.11-.54l-.13-.31c.08-.3.06-.63-.06-.92l-.19-.44c-.09-.21-.22-.39-.39-.53l-.18-.42c-.22-.52-.72-.85-1.29-.85-.26-.38-.69-.61-1.16-.61-.13,0-.26.02-.39.06l-.08.02c-.11-.09-.24-.16-.38-.21-.16-.06-.32-.09-.48-.09-.21,0-.42.05-.62.14l-.17.08s-.02,0-.03-.01c-.17-.07-.34-.1-.52-.1-.2,0-.39.04-.57.12l-.42.19c-.13-.04-.26-.06-.4-.06-.11,0-.22.01-.33.04.06-.11.11-.23.14-.35.13-.49.19-.99.19-1.5s-.06-1.01-.19-1.5c-.08-.32-.28-.6-.54-.79-.19-.32-.5-.55-.87-.64-.5-.12-1.02-.18-1.54-.18s-1.04.06-1.54.18c-.3.07-.56.24-.76.48-.46.17-.8.57-.89,1.06-.08.46-.12.93-.12,1.39s.04.94.12,1.39c.03.15.08.3.15.43-.09-.02-.17-.02-.26-.02-.12,0-.25.02-.37.05l-.43-.19c-.18-.08-.36-.11-.55-.11s-.36.03-.53.1l-.2-.09c-.18-.08-.38-.13-.58-.13-.31,0-.61.1-.85.29-.15-.05-.3-.08-.46-.08-.47,0-.9.23-1.16.61-.17,0-.33.03-.49.09-.35.13-.63.4-.78.74l-.15.33c-.25.15-.44.37-.56.64l-.19.44c-.14.32-.15.69-.03,1.02l-.09.22c-.15.38-.12.79.05,1.14-.13.34-.12.72.02,1.06.04.1.1.2.16.29,0,.04,0,.08,0,.12,0,.24.06.48.13.63.17.49.36.98.58,1.5,0,.06-.01.13-.01.2,0,.48.2.93.54,1.25v.04c-.19.01-.36.02-.52.02-.11,0-.22-.01-.32-.01-1.16,0-1.85.43-2.24.81-.03,0-.07,0-.1-.01-.06,0-.13,0-.19,0-.25-.22-.54-.31-.67-.35l-.11-.03c-.07-.02-.14-.04-.2-.05-.06-.31-.23-.6-.48-.81-.05-.09-.12-.16-.19-.24-.03-.03-.05-.05-.08-.07,0-.04-.02-.07-.03-.11-.01-.25-.08-.5-.2-.72,0-.01,0-.03,0-.04,0-.17-.02-.37-.04-.43-.06-.75-.49-1.41-1.13-1.77-.02-.06-.04-.11-.06-.17.05-.27.02-.56-.09-.82,0-.05,0-.11-.02-.16l-.05-.31s.01-.08.02-.12c.02-.26-.03-.51-.14-.74-.03-.3-.16-.58-.37-.8h0c-.12-.27-.31-.5-.57-.65l-.24-.14c-.06-.03-.11-.06-.17-.09-.23-.21-.52-.35-.83-.37-.02,0-.1,0-.13,0-.05,0-.11,0-.16,0-.12-.03-.24-.05-.36-.05-.25,0-.49.07-.7.19-.21.03-.42.1-.61.23-.08-.17-.18-.34-.29-.49-.19-.27-.48-.47-.79-.55-.19-.1-.4-.15-.62-.15-.1,0-.2.01-.31.03-.49.11-.95.31-1.37.6-.16.11-.29.27-.39.45-.03.03-.05.06-.08.09-.29.36-.39.84-.25,1.28.04.13.08.25.13.37-.26.06-.5.19-.69.37-.31.13-.55.37-.7.67-.28.26-.44.63-.44,1.02v.05c-.07.16-.1.34-.1.52v.19c0,.23.06.46.16.66.04.28.16.54.34.76.1.21.25.4.44.54.02.03.05.06.08.09.12.14.25.26.38.39.09.2.24.37.42.51.07.2.19.37.34.52,0,0,0,0,0,0-.25-.12-.51-.2-.76-.22-.27-.06-.54-.09-.81-.09-1.68,0-3.14,1.12-3.55,2.68-.15.45-.22.91-.22,1.38s.07.93.22,1.37c.38,1.19,1.05,2.31,1.85,3.1.3.37.54.77.73,1.21,0,0,0,0-.01,0-.29,0-.58.1-.82.27,0,0-.18.13-.2.15-.47.06-.88.34-1.09.77-.15.3-.18.62-.11.93-.27.25-.51.66-.51,1.09,0,.35.12.82.58,1.18,0,.07-.01.13-.01.2,0,.38.09.74.32,1.2.17.27.37.53.62.78-.08.38-.22.74-.41,1.06-.6.95-.93,2.03-.98,3.23,0,.61.13,1.19.38,1.73-.21.35-.32.75-.32,1.16,0,.07,0,.26.03.35.01.09.03.24.07.4-.01.09-.02.18-.02.27,0,.74.34,1.43,1.02,1.98.31.2.67.32,1.08.35.26.2.57.31.86.31.19,0,.38-.04.55-.12,0,.03.01.05.02.08v.05c-.11.43,0,.87.3,1.21.02.11.06.22.1.32-.02.1-.04.2-.04.3,0,.47.25.91.63,1.18.03.26.14.51.3.71h0c0,.31.09.62.25.89.16.25.38.45.63.57-.08-.01-.17-.02-.25-.02-.39,0-.76.16-1.02.45-.41.44-.49,1.1-.2,1.63.22.4.78,1.07,2.05,1.07.05,0,.11,0,.17,0,.04.06.08.11.12.16.35.44.85.69,1.4.69.27,0,.55-.06.81-.19.04,0,.07.02.11.02.06.01.12.02.18.02.11.05.22.09.33.11l.41.08c.08.02.17.02.25.02.32,0,.63-.11.88-.31.03-.02.08-.04.13-.06.25.35.64.68,1.35.8.16.03.42.07,5.92.07,1.24,0,7.45,0,7.89-.07.07-.01.14-.03.21-.05.7-.22,1.31-.67,1.72-1.28.02-.03.04-.06.06-.09.05.02.1.04.14.06.17.07.35.1.53.1.19,0,.38-.04.56-.12.42.72,1.32,1.22,1.86,1.33.17.03.38.08,6.18.08.75,0,7.34,0,8.05-.08.44-.09.93-.31,1.23-.79.1.06.21.11.33.16.24.18.53.28.84.28.09,0,.19,0,.27-.03l.38-.08c.13-.03.25-.07.36-.12.03,0,.17-.04.21-.05.25.11.52.17.78.17.54,0,1.03-.24,1.39-.66.05-.07.1-.13.15-.19.04,0,.09,0,.13,0,1.32,0,1.85-.79,2.02-1.13.26-.54.15-1.18-.27-1.61-.26-.26-.62-.41-.99-.41-.02,0-.04,0-.06,0,.18-.03.36-.09.55-.19.92-.43,1.11-1.14,1.11-1.62,0-.06.03-.16.06-.25.06-.24.14-.57.13-1.07-.04-.36-.06-.73-.06-1.09s.02-.73.06-1.09c.01-.1.01-.21,0-.31,0-.07-.01-.13-.01-.2.02,0,.04,0,.06,0,.4,0,.73-.13.98-.38.07-.07.13-.14.18-.22.01,0,.03,0,.04-.01.14-.06.4-.16.65-.36.13-.05.25-.12.37-.2.76-.42,1.21-1.21,1.21-2.12,0-.25-.04-.5-.13-.73.26-.41.44-.88.51-1.38,0-.06.01-.13.01-.2,0-.59-.07-1.18-.19-1.75-.02-.4-.08-.75-.14-1.1,0-.05-.02-.1-.03-.14.05,0,.1,0,.14,0,.51,0,.98-.21,1.43-.66ZM53.68,12.85h0s0,0,0,0h0ZM44.28,16.15l.09-.07.02-.14c0-.09,0-.18.08-.3v-.02s.01-.02.01-.02c0-.07.11-.21.33-.33.21-.13.5-.27.79-.42h0s0,0,0,0c.61-.42,1.13-.94,1.55-1.55v-.02s.01-.45.01-.45h0v-.04l-.03-.02s-1.35-1.06-2.73-2.14c-1.38-1.08-2.78-2.18-2.87-2.26l-.06-.1.03-.06.02-.04h.15l.05.04c.57.42,4.63,3.22,5.52,3.93l.12.1v-.16c0-.23-.01-.56-.26-.77h.05c.17,0,.34.04.48.13.2.12.3.15.38.15l.1-.04.02-.06h0s-.2-.56-.2-.56v-.02c.16.01.32.05.46.12h0s.14.08.14.08l.12-.08c.05-.1.04-.25.05-.3v-.02c.09.03.17.07.25.13v.03s.09.05.09.05l.1-.06c.06-.07.12-.19.13-.32h.03c.1.07.22.25.21.28v.14l.48-.32h0s0,0,0,0l.04-.02.06.05.04.15-.06.18-.02.02v.03l.04.12.11.04c.16,0,.34-.16.35-.16h0s.17-.22.17-.22l.13.1c.09.08.16.19.16.24,0,.11.07.2.14.23l.22.04h.1s.02,0,.02,0l.16-.06c.05-.04.08-.13.08-.23.04.05.11.18.1.3l-.04.18h0s-.07.09-.07.09l.06.08h.06s.15-.02.15-.02l.07-.03.03-.06h0s.17-.27.17-.27c.05.05.13.17.12.32l-.05.21-.06.22.06.14.13.04c.13,0,.27-.07.37-.12l.04-.02v-.32h.02c.11.07.26.24.26.4l-.03.13h0c-.12.14-.2.32-.2.51v.09s.66-.13.66-.13h.02s.02-.02.02-.02h0s0,.01,0,.01c0,.1-.08.33-.29.47-.13.09-.2.18-.2.28,0,.1.07.15.12.18l.1.04h0s.01,0,.01,0c.28,0,.52-.17.63-.43.07.1.17.33.16.57,0,.25-.1.49-.43.62l-.05.02v.38h.57v.37c-.06.05-.17.1-.27.15-.11.06-.23.1-.24.25,0,.09.06.15.16.22h0s0,0,0,0c0,0,0,0,0,0h0c.09.07.19.1.27.1.03,0,.05-.01.08-.02v.22l-.35.27-.03.02v.29l.44.11h.02c0,.07-.03.17-.07.26-.04.11-.12.19-.13.19-.15.02-.25.05-.32.09l-.12.18c0,.11.08.17.16.22l.26.09h.06s0,0,0,0h.03s.04,0,.04,0h0s-.04.11-.14.18c-.1.07-.23.12-.39.12h-.12s-.3-.06-.3-.06l.53.4s-.03.01-.05.02c-.1.04-.23.07-.33.07l-.17-.06-.13-.16v.51h0s.02.14.02.14h0s0,.02,0,.02c.05.13.16.2.29.22-.02.03-.04.06-.07.1-.1.11-.23.2-.39.2-.08,0-.18-.03-.28-.1h0v-.19l-.13.13c-.12.11-.19.26-.21.43v.03s.02.03.02.03c.11.12.23.22.36.3-.01.03-.04.08-.19.08h-.1c-.19-.04-.28-.07-.32-.08h0v-.23l-.33.52-.15.15-.15-.06-.05-.02-.22.25-.17.15h-.13c-.55-.64-2.09-2.1-3.57-2.54.34-.35.7-.67,1.1-.95h0s1.49-1.14,1.49-1.14l-.4.12s-.74.23-.96.31c-.15.02-.31.03-.47.03s-.31-.01-.47-.03h0c-.09-.03-.18-.04-.27-.04-.19,0-.38.06-.54.16h0s0,0,0,0c0,0,0,0,0,0h0c-.2.11-.27.21-.3.3-.03.09-.02.14-.11.23-.17.19-.32.17-.52.19-.19.01-.22.03-.4.08l-.11.02s-.07-.02-.15-.06l.15-.28c.19-.12.38-.28.52-.43l.18-.21.08-.18-.08-.12c-.12-.07-.32-.11-.51-.11-.1,0-.2.01-.28.06-.16.1-.6.39-.93.39l-.16-.03h0s-.12-.07-.12-.07v-.11s.17-.54.17-.54ZM50.26,20.96v.12l-.23.09v-.16l.23-.06ZM48.63,20.6l.6.12-.42.47-.31-.46.14-.13ZM48.51,20.32v-.59s.72.47.72.47l-.59.2-.13-.09ZM48.31,20.36l-.14.13h0s-.6-.05-.6-.05l.29-.57.45.5ZM43.69,17.66h.34c.46-.16.86-.43,1.18-.79h0s.19-.06.19-.06l.16.03.03.02-.08.06-.04.02v.09c-.16.22-.34.42-.54.59-.21.14-.45.21-.7.21h-.01s-.52-.14-.52-.14v-.04ZM41.79,20.68l.54-.4.36-.06h.02s.41-.35.41-.35h0s.18-.26.18-.26l.73-.26h.37s.01,0,.01,0l.59-.23h.04s.16-.68.16-.68l.31.09.44.12-.46.37-.23.18.72-.11-.28.55-.32-.24-.12-.09v.32h0v.03c0,.29.17.56.43.69h0s0,0,0,0c.13.05.24.07.34.07.36,0,.5-.25.51-.29h0s.19-.27.19-.27l.03-.05-.23-.28v-.02s-.04,0-.04,0l-.2-.03c.06-.03.11-.04.15-.04l.17.08.03.03.24-.05h.06v-.29l.1-.09.11.15-.15.17-.02.02v.26h.08c.18,0,.23.05.27.11l.03.19h0c-.02-.08-.1-.16-.27-.22h-.02s-.21.04-.21.04h-.02s-.21.21-.21.21l-.02.02v.07h0c.02.23.09.45.21.64h0s0,.02,0,.02c.19.17.43.26.67.26.11,0,.23-.02.34-.06h0s0,0,0,0c.15-.09.27-.21.37-.35l.07.06c-.07.06-.17.2-.17.5h0v.03s0,.03,0,.03c0,.36.29.67.66.68h.07c.18,0,.36-.03.53-.08l.05-.02v-.07l.17-.21.02-.02v-.32l-.04-.02c-.11-.06-.2-.09-.27-.09l.09-.02c.11,0,.22.06.28.16l.02.04h.11l.27.21h0s0,0,0,0c.07.03.11.13.13.23l-.04-.09-.02-.02-.41-.04h-.04s-.22.24-.22.24l-.19.19-.02.02v.03s0,.02,0,.02c0,.23.07.45.21.64v.02s.03,0,.03,0c.16.07.34.11.51.11s.35-.04.51-.11l.15-.06-.61-.31.4-.34.16.49.06.18.41-.89.45.55-2.16,1.35c-.49-.86-1.22-1.56-2.11-2.01l-.07-.04c-.77-.52-1.65-.85-2.57-.97l.34-1.38-.65.26h-.02s-.19.24-.19.24l-.55.28h-.39l-.4.33h0s-.2.27-.2.27l-.55.43-.18.06h-.01s-.4.28-.4.28l-.03.02v.26l-.53.46-.37.07h-.02s-.38.43-.38.43l-.06.07.25.16h0s.39.12.39.12l.1.03v-.16l1.62-1.37c.06.1.1.19.14.27.04.08.11.16.2.2.08.37.29.7.59.94l.1.07.02-.12c.07-.4.27-.77.56-1.05l.02-.02v-.03l.1-.16c.07-.08.15-.2.24-.37,2.05.3,3.86,1.53,4.9,3.33,0,.7.19.89.19,1.44h0s0,.02,0,.02c.41,1.56.92,3.1,1.53,4.6h0c.29.61.54,1.24.75,1.88l-.66.78c-.06-.13-.11-.27-.16-.39l-.09-.19-.04-.06-.08-.04-.08.04-.03.18v.9l-2.79,3.16-.34-.87c-.3-.81-.49-1.65-.57-2.51,0-.1,0-.16-.06-.22-.07-.05-.11-.03-.2-.06h-.08s-.22.08-.22.08c-.07.05-.16.11-.32.19-.23.11-.48.16-.73.17h0c-.2.03-.39.04-.59.04h-.16s-.08,0-.08,0v.48h0s0,.03,0,.03c.23.54.42,1.1.58,1.66h0s0,0,0,0c.2.5.38.61.38.91v.04s.08.22.08.22c0,.15-.11.3-.25.44-.29.17-.6.29-.93.35h0s0,0,0,0c-.49.2-.94.46-1.36.77h0s0,0,0,0c0,0,0,0,0,0h0c-.47.33-.88.75-1.18,1.24-.38.39-.58.59-.71.58h-.08v.02c-.07,0-.22.03-.37.17l-.15.06c-.09,0-.21-.07-.34-.13h-.02s-.21,0-.21,0h-.8c-.22.1-.39.35-.77.57h-.01s0,.02,0,.02c-.06.09-.46.14-.79.14-.18,0-.33,0-.43,0v-.28l.55-.47-.09-.12c-.11.08-.23.13-.36.16h-.11s-.16-.01-.16-.01h-.02v-.04c.17-.12.35-.24.53-.33h.01s0-.02,0-.02c.07-.09.18-.17.27-.25.09-.08.18-.14.19-.26l-.04-.07.16-.31.54-.24c.63-.1,3.09-.45,4.47-2h0s0-.02,0-.02c.15-.3.23-.62.23-.96v-.06s0,0,0,0h0c-.13-.46-.32-.9-.57-1.3-.12-.19-.25-.37-.39-.54l-.11-.14-.02.18c-.01.12-.07.23-.17.31l-.09.04c-.06,0-.14-.04-.26-.05-.04,0-.08.01-.11.03v-1.66l.75-2.15c.23-.1.47-.18.72-.22h.01s0,0,0,0c.21-.09,1.15-.55,1.73-.76.37-.11.75-.16,1.13-.17.25,0,.5.04.74.11l.38.19h.02s.02,0,.02,0h.1s.06-.11.06-.11l-.05-.13-.03-.13v-.04c-.34-.57-.73-1.11-1.17-1.61-.22-.24-.49-.42-.78-.53h0c-.18-.1-.37-.26-.5-.41-.14-.15-.23-.31-.22-.37v-.04s-.08-.2-.08-.2l.06-.2.15-.21-.24.09c-.24.09-.45.26-.6.47h0c-.1.13-.15.19-.18.2-.03.02-.05.02-.15.02-.14,0-.26-.11-.35-.22l-.11-.15-.03-.05-.02-.02-.06-.03-.07.05c-.05,0-.19-.04-.32-.04h0s-.06,0-.06,0c-.14,0-.19-.05-.25-.12-.04-.05-.09-.11-.15-.16l.13-.11.13-.11-.73-.08-.12-.09.16-.29.05-.09-.24-.05v-.05c-.03-.05-.1-.12-.19-.11h-.09s-.1.03-.1.03v-.29h-.44l-.55-.39-.57-.68-.19-.32-.14-.24v.44l-.17.22-.02.02v.11c0,.33.07.65.2.95h0c.22.47.48.93.77,1.37h0s0,0,0,0c.22.24.35.55.36.88l-.35.26-.03.02v.04c0,.11.08.17.18.23.1.06.24.13.43.23.21.19.41.17.57.3.28.26.53.54.75.85.1.14.15.3.16.47l-.65-.23c-.19-.1-.38-.22-.58-.31-.11-.05-.34-.13-.56-.2-.11-.04-.21-.07-.28-.1l-.07-.03v-.03h-.29s-.07,0-.07,0l-.09-.03-.17-.12-.13-.19c-.02-.09-.02-.22-.02-.38v-.04c-.09-.14-.15-.48-.19-.81-.05-.32-.09-.63-.2-.82h0c-.13-.71-.4-1.4-.77-2.01h0c-.15-.21-.23-.45-.23-.7,0-.1.02-.21.04-.31.18-.32.43-.6.73-.82.12-.03.23-.04.35-.04s.25.01.37.04c.2.05.4.13.59.22l.04.02.61-.5h0s.2-.26.2-.26l.37-.46.36-.09h.02s.4-.34.4-.34l.03-.02v-.25ZM52.98,31.73l.18.42-.17.59-.36.18-.04.02v.63l-.55.55-.19.13h0s-.2.28-.2.28l-.2.27-.37.5-.36.09h-.02s-.4.4-.4.4l-.02.02v.2l-.36.54-.37.13h-.02s-.4.55-.4.55v.02s-.01.28-.01.28l-.36.53-.37.12h-.02s-.4.59-.4.59v.02s-.01.19-.01.19l-.37.58-.18.15h0s-.39.49-.39.49l-.19.23h0s-.39.59-.39.59l-.17.14-.18.07-.13.05.11.08c.34.25.54.64.54,1.06v.03s0,.2,0,.2c-.06.71-.66,1.25-1.36,1.25h-.12c-.71-.07-1.25-.67-1.25-1.37v-.12s0,0,0,0v-.16c.07-.69.65-1.22,1.33-1.22h.12s0,0,0,0c.19,0,.38.05.55.14l.11.06v-.22l.18-.25h0s.38-.59.38-.59l.18-.15h0s.39-.39.39-.39l.02-.02v-.34l.36-.56.37-.14h.02s.39-.42.39-.42l.02-.02v-.37l.36-.52.37-.13h.02s.4-.48.4-.48l.02-.02v-.35l.36-.52.36-.11h.02s.39-.36.39-.36l.02-.02v-.29l.54-.48.36-.09h.06v-.26l.19-.29.37-.57.18-.13h0s.2-.28.2-.28v-.02s.01-.32.01-.32l.18-.61.16-.06.08-.03-.23-.48v-.03s-.22-.08-.22-.08l-.56-.41-.17-.2v-.04l-.13-.27.22.08h0s.37.05.37.05l.54.42v.38s0,.01,0,.01l.2.48ZM43.58,40.06c.09-.07.18-.14.28-.21.28-.21.59-.4.92-.54.29-.07.58-.16.85-.29l-.04.03c-.11.09-.2.2-.28.32l-.11.17c-.6,0-1.16.19-1.62.52ZM42.48,43.2s-.04,0-.05,0c-.17,0-.33.03-.5.08-.25-.41-.7-.68-1.2-.68h-.38c-.06,0-.12,0-.17.01-.08-.01-.15-.02-.23-.02-.16,0-.31.02-.46.07-.02-.01-.04-.03-.06-.04-.07-.09-.15-.16-.23-.23.16-.1.29-.2.42-.31h.18c.18.07.41.14.69.14.34,0,.68-.1.94-.29.54-.11.9-.46,1.28-.85-.15.31-.25.65-.29,1.02,0,.07,0,.15,0,.21,0,.07,0,.14,0,.21,0,.23.03.46.08.68ZM40.5,44.99l.23.07h.17s.12.04.12.04l-.14.23c-.08.05-.13.12-.16.19l-.05.08-.05-.07h0s0-.01,0-.01l-.07-.2c0-.07,0-.18-.13-.26l-.03-.02-.04.02c-.15.07-.27.18-.38.3.06-.14.15-.27.26-.37l.04-.04-.03-.05c-.06-.13-.18-.18-.28-.18-.13,0-.25.05-.33.05l-.14-.08v-.27c.13-.04.23-.13.3-.2.08-.09.14-.15.18-.14l.13.07c0,.06-.04.18-.04.29l.04.16.17.08.13-.02.05-.02v-.06c0-.16-.09-.3-.09-.4l.05-.11h.29c.03.12.12.2.19.27.09.08.15.14.16.23l-.15.12-.03.02h0s0,0,0,0h-.14s-.16.03-.16.03l-.09.17v.04l.03.02ZM37.86,44.77h-.08v.18h-.05v-.08s0-.18,0-.18l-.32.32-.05.05h-.2v-.25l-.02-.02s-.05-.07-.07-.1h.13v.21l.11-.06.16-.09.04-.02v-.03h.06l-.06-.09v-.06l-.04-.03h.07v-.14l.25.33.03.05.24-.1h0s.27.08.27.08v.04l-.14.04-.05.02v.34l.31-.21.03-.02v-.03h.19v-.25l-.2-.16.17-.14.03-.02v-.26l-.19-.08v-.19l.08.02c.15.08.16.3.16.51v.03l.17.19-.15.18-.02.02v.18l-.35.22-.04.02v.21l-.27-.09h.05s0-.45,0-.45v-.08h-.27ZM37.85,45.28h.08s-.24,0-.24,0l-.07-.09h.01s.01.01.01.01h.14v.07h.07ZM38.23,43.52s.12.1.12.21v.06h.05s-.22.23-.22.23l-.02.02-.25-.25-.03-.03-.23.09h-.25v.19l.21.26.03.04-.09.02v-.13h-.34v.07h0v.25l-.19.05c-.03-.08-.05-.16-.05-.24v-.1s0,0,0,0v-.3l.14-.04.05-.02v-.18c.11-.12.26-.2.42-.2l.2.04v.13l.45-.18ZM38.19,44.33l-.07.04v-.08s0-.1,0-.1l-.39.1v-.26h.05v.06s0,.11,0,.11l.29-.12.08-.03h0v.19l.19-.1v.09l-.15.09ZM38.31,44.5l-.11.04-.09.04h0s0-.13,0-.13l.19.05ZM40.27,37.15c.26-.37.5-.75.73-1.14.03.01.07.02.1.04.14.04.28.06.42.06.08,0,.17,0,.25-.02.02.04.03.09.05.13,0,0,0,.02,0,.03-.3.29-.78.62-1.54.9ZM40.97,26.61c-.12-.37-.22-.75-.3-1.13l.35.39h0v.04c.13.23.2.5.2.76v.15s0,0,0,0v.13h.26l.78.21h0s.38,0,.38,0l.55.2.18.19v.02s.62.17.62.17h0s.19,0,.19,0l.73.2.18.23v.02s.4.14.4.14l.42.55-.33-.11-.18-.23v-.02s-.42-.14-.42-.14h-.01s-.19,0-.19,0l-.73-.2-.18-.23v-.02s-.43-.14-.43-.14h-.02s-.38.03-.38.03l-.56-.2-.37-.26h0s-.59-.26-.59-.26l-.1-.05v.9l-.06-.06h0s-.17-.13-.17-.13c-.03-.23-.19-.42-.18-.57v-.64l-.03.06ZM39.58,31.23l-.1-.03v.46l-.03.13v-.62h-.45c.04-.12.06-.24.06-.37l.08.05h0c.2.11.59.18.77.26h0s.39.1.39.1h.04s.2-.16.2-.16h.09v.45c-.06.21-.16.42-.24.63v-.65l-.82-.25ZM39.6,33.6l-.18-.07h0s-.19-.06-.19-.06l-.1-.03v.48l-.28-.08-.07-.04c.16-.08.29-.2.3-.36v-.05l-.63-.25-.05-.02-.03.04s-.04.07-.06.11v-.07l.17-.15h0s.1-.17.1-.17l.53.23v.1l.05.02c.23.1.47.16.72.19v.44l-.09.02.03-.03.02-.02v-.17l-.25-.05ZM39.69,33.99v.12l-.18.19-.02.02v.15l-.1.05-.13-.12v-.04s.08-.02.16-.08h0s0,0,0,0l.26-.28ZM37.34,36.77v-.08l.27.18h.01s.12.03.12.03l-.06.17c-.03.05-.07.11-.09.18h-.06c0-.16,0-.36-.19-.48ZM37.66,35.97h-.02l-.2.11-.56.1h-.03c-.09-.08-.19-.15-.27-.25l.14-.13h.75l.2-.06.39-.1h0s.2-.08.2-.08l.05-.02v-.18l-.61-.45-.02-.02-.32.03.15-.34h.1l.17.24c.15.2.58.59,1.01.6.07,0,.15-.02.22-.05l-.07.18-.35.09h-.01s-.19.13-.19.13l-.17.04h0s-.19.06-.19.06h0s-.18.09-.18.09h-.18ZM37.2,36.5h0s0,0-.01,0h.01ZM36.53,37.71h-.04c-.35,0-.65.23-.92.23l-.17-.03-.18-.13h0s0,0,0,0c-.16-.09-.21-.19-.21-.28,0-.06.02-.13.06-.19l.24.32.02.02.19.04h.03s.2-.14.2-.14c.15-.04.3-.06.45-.06.14,0,.27.02.41.05v.13l.19.16c-.02.22-.37.58-.54.67h0s-.14.1-.14.1l-.21-.19h0c.23,0,.64-.13.68-.54h0v-.15h-.07ZM34.68,39.06v-.21h-.19v-.04s0-.18,0-.18l-.47.45-.08-.06-.02-.18v-.02c.09,0,.17-.02.24-.04.07-.03.14-.07.15-.16h0s-.2-.51-.2-.51l-.02-.05h-.06c-.13.03-.28.13-.41.26-.11.12-.2.25-.22.39l-.06.04h0s-.16-.3-.16-.3l.31-.14h0s.39-.22.39-.22l.04-.02v-.04l.15-.11.28-.07v.06s0,.01,0,.01l.2.51h0s.16.2.16.2l.36.48-.15.22-.17.11h-.1c.06-.03.14-.04.2-.07l.04-.02v-.16l-.19-.11ZM34.2,39.59c.1-.02.19-.07.29-.11v.06l-.33.08h-.06v.11h-.11l-.13-.04v-.17s.05-.02.05-.02c.02,0,.07.04.18.05v.04l.09-.02ZM35.07,37.29c.11-.19.34-.38.52-.48h0s.18-.13.18-.13l.14-.03.15.17h0s-.09-.03-.09-.03h-.02s-.41.11-.41.11h-.01s-.2.15-.2.15l-.03.02v.08l-.15.08-.07.04ZM38.33,34.04l-.06.08-.31-.17.15-.22h0s.13-.27.13-.27c-.01.06-.03.12-.03.18,0,.14.05.29.13.41ZM38.91,31.38s0-.01,0-.02v.02h0ZM39.86,32.62h-.07c-.19-.08-.33-.26-.34-.46v-.3c.01.13.09.24.19.3.12.07.26.1.41.1h.08s.01,0,.01,0l.2-.08h.03c-.04.08-.06.17-.1.25-.15.1-.3.19-.42.19ZM40.03,29.99v-.26h.09l.11.09-.12.16h-.08ZM38.08,11.33l-.09-.22-.04-.08.43-.13.13.29-.43.14ZM38.53,10.12c0,.08-.06.12-.16.12l-.09-.02-.15-.34.25-.11.15.35ZM38.09,8.51h.09s.15.35.15.35l-.25.11-.14-.34c0-.09.06-.12.16-.13ZM37.62,7.6l.13.31-.41.12h-.02s-.13-.29-.13-.29l.43-.14ZM36.46,6.99l.13.29-.35.12-.08.03-.13-.31.43-.13ZM34.86,6.92l.28-.14.13.29-.4.12v-.28ZM33.8,6.9l.13.31-.23.11-.04.02-.14-.3.29-.13ZM32.41,7.15l.13.31-.24.11-.13-.31.24-.11ZM30.86,2.83c.08.33.12.67.12,1.01s-.04.66-.12.99c-.3-.35-.71-.58-1.16-.65.07-.09.12-.19.12-.31h0c0-.14-.05-.27-.15-.37.44-.13.85-.36,1.19-.67ZM29.17,5.49h-.16l-.22-.03c-.12-.02-.31-.05-.51-.06.34-.29.55-.7.57-1.15.08.08.18.15.31.17h0s0,0,0,0h.03c.11,0,.22-.03.31-.08.12.45.41.84.8,1.09-.26.04-.44.04-.76.04h-.51l.13.04ZM28.91,5.58v.75c-.34.06-.68.16-.99.3.1-.47.43-.87.89-1.02l.1-.03ZM29.63,5.65c.45.17.79.52.95.96-.31-.11-.63-.21-.95-.28v-.68ZM29.31,2.21c.33,0,.66.04.98.1-.41.22-.71.61-.79,1.08-.09-.04-.2-.07-.33-.07h-.01c-.12.02-.22.08-.3.16v-.02c-.06-.44-.28-.84-.61-1.13.35-.07.7-.12,1.05-.12ZM27.56,2.85c.34.33.75.57,1.2.69h.04c-.06.09-.09.19-.09.3v.02s0,.03,0,.03c0,.09.03.18.07.26-.19,0-.45.16-.71.33-.2.14-.38.27-.51.38-.05-.33-.09-.67-.09-1s.04-.67.09-1ZM26.05,7.15l.28.11-.12.31-.3-.11.14-.31ZM24.7,6.9l.3.13-.11.29-.3-.12.11-.3ZM23.39,6.78l.29.13-.14.3-.3-.12.15-.31ZM22.09,7l.28.11-.11.28v.02s-.3-.13-.3-.13l.13-.29ZM20.93,7.61l.29.13-.06.15-.06.14-.3-.12.14-.3ZM20.24,8.56l.29.13-.11.29-.3-.11.13-.3ZM20.12,9.76l.28.11h.03s-.12.31-.12.31l-.3-.12.12-.3ZM20.04,11.22l.13-.32.24.09.06.03-.12.34h-.06c-.1.01-.19-.05-.24-.14ZM11.83,10.26l.03.03-.03.02-.02-.02h0s.03-.04.03-.04ZM11.69,9.8l.03.04-.03.04h-.01s-.03-.04-.03-.04l.04-.04ZM10.89,9.13l.03.03-.02.02-.03-.03.02-.02ZM10.38,9.09l.03.03-.03.03-.03-.03.03-.03ZM9.86,9.26l.03.03h0s-.02.03-.02.03l-.03-.03.03-.03ZM9.37,9.49l.04.05-.03.03-.05-.05.03-.03ZM8.91,9.78l.03.03-.03.03-.03-.03.03-.03ZM8.01,9.78c-.09,0-.18.02-.27.05l-.09-.18h.05c.12,0,.22.05.31.13ZM7.63,8.44c.12.18.2.38.26.59-.09-.03-.18-.06-.28-.06l-.19.02.02-.05.03-.07-.13-.05.29-.38ZM7.31,9.27l.05-.12.39.25-.14.08-.44.18c.02-.07.03-.13.03-.2,0-.08-.02-.16-.05-.24l.09.04.07.03ZM7.43,9.96c-.09.05-.17.13-.24.21v-.04c0-.14.06-.26.15-.36l.09.2ZM7.23,8.33c-.03.09-.06.18-.06.27l.02.17-.05-.02-.07-.03-.03.07-.03.07c-.09-.13-.22-.22-.36-.29.18-.11.36-.19.56-.25ZM6.96,8.99h.02s-.02.05-.02.05l-.03.07.1.04-.29.42c-.13-.19-.23-.4-.31-.62l.53.04ZM6.58,10.77v.04h-.05v-.04s.05,0,.05,0ZM5.98,10.89h.08v.04h-.08v-.04ZM5.48,11.08h.03v.05s-.03,0-.03,0v-.05ZM5.05,11.37h.04s0,.02,0,.02h-.04v-.02ZM4.75,11.78h.04v.04h-.04v-.04ZM4.85,12.87h-.04v-.04h.04v.04ZM5.08,13.22h-.04v-.04h.04v.04ZM5.33,13.56l.06-.15.02-.04-.19-.21-.24-.34-.03-.04-.02-.05c-.04-.09-.07-.18-.09-.27v-.06h-.19v-.05s.15-.03.15-.03h.07s0-.08,0-.08h0c0-.11.02-.2.05-.29l.03-.06c.05-.11.12-.2.2-.29l.08-.08c.11-.1.23-.18.36-.25l.29-.14h-.03s.09-.04.14-.05l.07-.02h0s.09-.01.09-.01c.16-.04.33-.06.5-.08h.07c.09-.02.17-.05.26-.05h.07v-.17h.03v.18h.49l-.11-.31v-.02s-.11-.09-.11-.09c.1-.12.22-.23.36-.31.13-.04.26-.06.4-.06h.07v.12h0s.08.22.08.22l.04.09.29-.23.07-.06-.15-.13.03-.03.06.08h0s.06.05.06.05c.17-.16.36-.29.55-.43l.27-.16c.11-.07.23-.13.35-.18l.1-.04h0c.1-.04.2-.06.3-.09l.16-.03.21-.02.15.02-.02.02.13.03c.1.03.19.06.27.11l.05.03.12-.12.11.07-.07.07-.04.04.19.29.02.03.03.07c.04.11.08.22.1.33l.02.08v.3h.19l.07.41v.44l.1.08-.06.16h0v.43l.16.21-.11.19-.03.06.27.21.13.29.02.04-.21-.23-.02-.03h-.09s-.1,0-.1,0c-.96,0-4.3,1.61-4.63,1.85h0c-.09.09-.21.15-.32.23-.11.08-.2.2-.2.38v.02l.11.19v.02s.33.19.33.19l.04.02.04-.02c1.56-.92,3.21-1.69,4.92-2.29l.06-.02-.06-.26h.15-.01s.05-.02.05-.02h.02c.39,0,.72.3.75.7h0s0,0,0,0c.02.13.03.23.03.32,0,.27-.08.37-.22.52-.15.12-.33.22-.51.29l-.25.09.75.14h0s0,0,0,0c.18,0,.32-.11.4-.25l.03.06v.1s-.01,0-.01,0c-.05.12-.08.25-.08.36v.11s.12.09.12.09l.05-.02v.28l-.32.19-.27.16.99-.08c-.04.08-.12.2-.24.31l-.1.09-.02.02h0s0,.01,0,.01l-.02.06.08.08h.05s.09-.02.09-.02h.02c.15-.04.3-.1.44-.17-.07.18-.15.35-.26.51h0c-.09.09-.13.18-.13.25,0,.09.05.14.06.15l.05.05.08-.08v.07l.04.1.09.03c.1,0,.2-.08.28-.2l.02.05v.07s.01.28.01.28l.02.07.08.05.16-.08c.16-.12.41-.34.64-.33l.11.02c.08.03.13.04.17.06-.05.03-.12.08-.2.15-.17.16-.22.46-.35.71-.13.25-.29.45-.69.46h-.17s-.13-.02-.13-.02l-.13.02-.08.11.06.11c.09.07.26.14.49.18h.1c.34,0,.58-.24.78-.49.2-.25.38-.51.53-.57h0s0,0,0,0c.24-.15.52-.23.8-.23h.11c.48.05.88.4.99.87h0s0,.01,0,.01l.03.16c0,.17-.07.39-.19.56-.12.17-.28.29-.44.29h0s-.08,0-.08,0c-.28,0-.53-.19-.61-.47v-.05s-.09-.06-.09-.06l-.08.05-.05.21c0,.1.04.22.15.28h0c.29.19.38.44.44.67.06.23.1.47.34.57.09.03.16.04.23.06-.03.01-.06.02-.1.03l-.18.03c-.37,0-.5-.44-.69-.64l-.11-.06-.08.05v.06c0,.15.11.44.19.61h0c.29.52.44.7.62.72.15,0,.21-.15.26-.24l.07-.13.02-.03h0s.02,0,.02,0l.24.33c0,.06-.03.19-.09.3-.07.13-.16.22-.3.22l-.1-.02c-.39-.16-.74-.42-1.01-.74h0s-.08-.08-.08-.08l-.08-.04-.07.03-.02.05.05.13c.08.15.26.38.48.57h0c.22.18.47.32.71.45-.1.06-.22.11-.33.11-.15,0-.3-.05-.42-.16h0c-.09-.09-.15-.13-.23-.14l-.1.05-.02.09c0,.1.05.22.13.35.06.1.14.18.24.24-.18,0-.49-.12-.65-.52h0c-.05-.12-.09-.21-.12-.26l-.04-.07-.08-.05-.08.06v.04c0,.07.02.18.07.34.06.23.22.42.41.56h-.02c-.13,0-.37-.06-.67-.36-.24-.25-.26-.4-.28-.55-.01-.15-.02-.33-.22-.53-.41-.4-.95-.27-1.44-.39l-.04.14c.17.05.28.2.48.27.24.08.4.12.49.17.09.05.13.09.18.25.03.1.07.19.11.28-.05-.04-.11-.06-.15-.1h0c-.17-.16-.63-.43-1.11-.43-.25,0-.5.08-.69.3h0c-.15.21-.33.39-.53.55-.31.2-.56.29-.72.29-.09,0-.15-.03-.18-.06l-.02-.02-.66-.12h-.04s-.03.02-.03.02c-.14.14-.27.29-.39.45-.16.23-.36.42-.57.6.04-.07.07-.15.07-.24l-.09-.21h0c-.25-.19-.4-.48-.4-.79l.02-.21h0s0-.01,0-.01c.03-.68.34-.91.35-1.24l-.03-.16h0s0,0,0,0c-.12-.22-.18-.46-.18-.71,0-.16.02-.31.08-.46h0c.1-.18.17-.37.21-.57h0s-.02-.09-.02-.09l-.08-.04-.17.07c-.06.03-.14.05-.23.05-.1,0-.22-.05-.36-.14.01,0,.02,0,.04,0,.22,0,.56-.08.63-.53v-.08s-.41-.04-.41-.04c.04-.04.1-.1.1-.21v-.05s-.14-.11-.14-.11c-.1,0-.18.06-.27.05l-.13-.04s.02,0,.04-.01c.1-.06.2-.17.27-.38l.06-.17-.14-.06c-.04.07-.12.18-.27.18-.05,0-.12-.02-.2-.06.1-.12.17-.25.17-.41l-.02-.16-.04-.15-.09.12-.02.02s-.16.14-.32.14c-.12,0-.29-.05-.49-.25h0s0,0,0,0c-.35-.26-.55-.67-.55-1.09,0-.16.03-.33.09-.48h0v-.11l-.16-.25v-.02s.07-.16.08-.28l-.08-.12h.01l.02-.04.11-.25.06-.14-.49.11h-.06v.22h0s0-.23,0-.23v-.05l-.12-.04-.18-.2h-.01s-.17-.09-.17-.09v-.07s0-.03,0-.03l-.02-.02c-.05-.05-.11-.11-.17-.17l.07-.07c.13-.13.16-.3.16-.43v-.03c.19.16.36.35.5.55-.07-.01-.13-.02-.18-.02-.11,0-.2.03-.26.08l-.07.06.13.11v.03s0,.04,0,.04l.04.02.3.16h.01s.01,0,.01,0h.16c.28.01.55-.1.74-.31h0c.07-.1.11-.22.11-.33s-.04-.23-.11-.32v-.02s-.41-.12-.41-.12l-.05-.02-.15.2-.04.05.07.08-.09-.03h0c-.12-.03-.2-.11-.25-.22l.51-.1h.06v-.15l-.04-.02c-.24-.15-.44-.28-.47-.54l.1-.02c.15,0,.25.12.33.26l.1.21.11.15.09.05.02-.1v-.09s0-.19,0-.19c0-.07.01-.1.09-.16h.25c.09.08.14.19.15.31-.04-.05-.1-.1-.19-.1h-.06s-.03.01-.03.01l-.14.17h-.01s0,.03,0,.03v.07c0,.21.17.32.31.41h0s.01,0,.01,0l.24.03c.1,0,.2-.02.29-.05l.02.06v-.07c.06-.02.12-.04.17-.07h0c.21-.16.32-.41.32-.67v-.09s0-.02,0-.02l-.11-.17-.02-.03.19.08.07.03.03-.07.03-.07.03.08h0s0,.02,0,.02c.16.19.39.29.63.29h.15s0-.01,0-.01c.23-.05.43-.21.53-.42v-.02s0-.48,0-.48v-.05l-.19-.1-.05-.03-.2.22-.03.03h0c-.06-.07-.09-.15-.11-.25l.05-.18h.3l.18.06.1.04v-.11l-.03-.09c-.04-.09-.12-.25-.12-.4,0-.11.04-.21.15-.31h0c.08.14.13.3.13.46l-.03.23-.03.1h.18l.42-.23.02.13c0,.12-.04.23-.09.33l-.05-.17-.02-.07-.28.08h-.05s-.04.52-.04.52v.05s.4.25.4.25h.02s.02.01.02.01h0c.27,0,.52-.11.7-.32h0s.22-.48.22-.48v-.02s0-.15,0-.15v-.08h-.14l-.02.02c-.13.1-.23.22-.33.34-.04-.27-.07-.54-.1-.81l.17.14h.01s.22.07.22.07l.18.05-.39-.63v-.05c-.03-.11-.06-.23-.11-.33h0s-.01-.03-.01-.03c-.03-.02-.06-.03-.08-.05l.09.04-.04-.15c-.08-.29-.27-.54-.54-.67h0c-.1-.04-.21-.07-.32-.07-.34,0-.72.18-1.16.54t0,0s0,0,0,0h0c-.2.14-.39.29-.56.46h0s0,0,0,0l-.29.26-.04.03.13.34h0s-.02.01-.02.01l-.29-.63h-.07l-.19-.09.05.11-.14-.05-.07-.03-.03.07-.08.19v.03h-.06v.09h-.03s.44,1.02.44,1.02h.2l-.13-.29.15.09v.13s0,.12,0,.12l.4-.18.06-.03c-.03.09-.05.19-.05.29l.03.2-.12-.04-.07-.03-.11.32-.05-.13v-.02s-.02-.01-.02-.01c-.12-.1-.26-.16-.4-.21l.05-.02-.17-.38-.02-.04h-.12s.02,0,.03,0h0s.08-.04.08-.04l.06-.03-.16-.36-.02-.05-.46.06c-.21.02-.45.04-.76.1h-.02c-.72.14-1.19.39-1.33.77-.03.1-.05.21-.05.32,0,.18.04.35.13.51l.06.11h0s-.01.04-.01.04l.02.03c.07.11.15.22.23.32l.19.59.02.06c-.12-.12-.24-.23-.36-.36ZM11.82,13.39l-.04.06-.09.04-.18-.05.12-.04h.18ZM10.69,13.66h.03l-.05.08-.09.04-.15-.04.13-.03.13-.03h0ZM9.65,14.14l-.14.15h-.09l-.09-.04.12-.09h0s.2-.03.2-.03ZM8.39,14.62l-.1.18-.09.04h-.06l.11-.14.15-.07ZM7.45,15.17l-.09.17-.05.02h-.08s.09-.12.09-.12l.14-.07ZM7.08,27.1c.3-.12.57-.34.76-.65.2-.33.25-.75.15-1.12.02-.04.03-.08.04-.12.06.1.13.19.21.27.09.09.19.17.3.23-.13.73-.37,1.43-.72,2.16-.17.42-.49.89-.85,1.43l-.04.06c.11-.57.16-1.15.16-1.73,0-.17,0-.34-.01-.52ZM5.92,12.21h0c.37-.03.57-.16.57-.17-.02.02-.05.05-.1.07-.1.05-.26.09-.48.1ZM8.51,12.55l-.04.04c-.17.16-.27.38-.33.6l-.35-.79c.12.04.24.06.37.06l.2-.02h0s-.02.05-.02.05l.16.06ZM8.74,11.51h.03s-.01,0-.01.01h-.02ZM8.87,12.13c.11-.05.2-.14.25-.25.03-.06.05-.12.07-.17l.35.77c-.16-.07-.34-.12-.51-.12h-.07s.04-.1.04-.1l.03-.07-.16-.06ZM10.86,10.08s0,0,0,0h0s-.02,0-.02,0c0,0,.01,0,.02,0h.03s.07.03.07.03c-.03,0-.06-.02-.09-.02h0s0,0,0,0ZM8.13,11.27l-.03.12v.02s-.1-.22-.1-.22l.13.08ZM7.99,11.14v.02l-.08-.18.08.03v.14ZM8.64,50.29c-.11.09-.25.18-.37.18-.08,0-.15-.03-.23-.13-.15-.19-.2-.37-.26-.53-.05-.15-.17-.29-.39-.29l-.19.02c-.21.04-.42.06-.61.06-.17,0-.32-.02-.45-.07.13.03.27.04.4.04.2,0,.4-.03.59-.09h0s.03,0,.03,0h.13c.33-.01.62.22.68.55h0c.02.24.13.37.28.36.1,0,.18-.04.26-.08h0s0,0,0,0c.1-.08.19-.18.26-.28l.03.1s-.07.09-.16.16ZM6.41,48.09c.05,0,.11.02.16.02,0,0-.02,0-.03,0-.05,0-.09,0-.13-.02ZM8.73,47.42l-.02-.04h-.16l-.27-.24.07-.29h0v-.36s-.15-.07-.15-.07c-.11,0-.2.07-.3.12-.1.06-.22.11-.32.11-.16-.02-.3-.1-.38-.23l-.04-.06-.5.24h0s-.03-.09-.03-.09l.04-.11h0s0,0,0,0l.22-.22h.01s.16-.26.16-.26l.5-.21.22-.09-.23-.05-.16-.06-.17-.17c-.02-.1-.03-.17-.06-.22l-.1-.11h0s-.14-.07-.14-.07h-.02s-.02,0-.02,0l-.1-.04c-.07,0-.14.04-.24.14h0s-.21.34-.21.34v-.43c.1-.12.21-.22.31-.31.1-.1.19-.17.2-.29v-.33l-.1.03c-.22.07-.41.19-.57.36h0c-.2.17-.3.2-.37.2h0s.09-.11.11-.21v-.07c0-.12-.04-.19-.04-.24,0-.04.02-.11.19-.25.21-.18.27-.24.28-.34l-.06-.09h-.04s-.24-.01-.24-.01h-.02l-.31.18c.02-.11.04-.22.08-.32.05-.12.09-.24.11-.37v-.06s-.18-.08-.18-.08l-.04-.02-.28.19.07-.34h0v-.57l-.11.15v-.16l.18-.33.08-.14-.4.08.05-.18c.12-.21.24-.41.38-.6l.12-.16-.58.13c.06-.18.2-.48.39-.54h0s.07-.15.07-.15c0-.1-.02-.23-.02-.35,0-.11.04-.17.11-.24.23-.21.88-.38,1.79-1.33.75-.75.9-2.17.9-3.24,0-.53-.04-.98-.07-1.21-.03-.2-.04-.41-.04-.62,0-.41.03-.79.03-1v-.13s-.03-.05-.03-.05l-.08-.05-.08.04c-.16.18-.8.91-1.29,3.14-.55,2.48-.84,2.61-1.36,3.1h0c-.3.32-.71.49-1.15.5h-.73c-.31.07-.46.23-.46.4,0,.18.17.31.36.31.07,0,.15-.03.23-.07l.09.04.04.16-.05.17h0c-.16.31-.39.34-.62.34h-.18c-.09,0-.19,0-.26.07h0s-.03.11-.03.11h0s0,0,0,0v.06c0,.17.12.32.29.35h0c.2.08.26.17.32.43v.12s0,.09,0,.09h0s-.48-.27-.48-.27h-.02s-.03,0-.03,0l-.16.02c-.15,0-.3-.04-.43-.13-.22-.19-.35-.46-.35-.74,0-.13.03-.26.08-.38l.04-.1h-.1l-.03-.07c-.02-.06-.04-.16-.06-.31h0s-.02-.16-.02-.16c0-.36.25-.69.61-.77l.13-.02h.04s.06-.09.06-.09l-.03-.06-.06-.03-.06-.04c-.48-.51-.74-1.18-.74-1.88v-.03c.04-.85.3-1.68.75-2.41.34-.55.56-1.16.65-1.79v-.17c.01-.31-.12-.61-.35-.82h0c-.19-.19-.36-.4-.51-.63-.04-.08-.04-.17-.06-.26.16.14.26.13.45.2h0c.23.06.43.18.6.35h0s.11.07.11.07l.22.12-.23-.43h0c-.1-.19-.37-.31-.64-.45-.25-.15-.43-.38-.53-.66-.09-.26-.25-.5-.47-.68h0s0,0,0,0l-.08-.05.19-.04.21.05h0c.23.09.42.27.54.49.14.25.34.45.59.57.28.14.36.13.38.17h0s.14.11.14.11l.23.18-.19-.44h0s-.01-.03-.01-.03c-.21-.19-.43-.37-.66-.54h0c-.19-.16-.34-.36-.44-.59-.1-.3-.16-.62-.19-.94v-.03s-.28-.28-.28-.28l.51.26c.17.2.3.43.38.68h0s0,.02,0,.02c.16.26.39.47.66.62h0c.13.08.25.17.35.28l.02.02h.24l-.18-.32h0s-.53-.41-.53-.41h0c-.15-.1-.26-.24-.32-.41-.05-.2-.09-.41-.11-.62h0s0-.01,0-.01c-.04-.16-.13-.3-.25-.42l-.09-.08.05-.03c.14,0,.27.04.39.1h0s0,0,0,0c.17.05.31.34.43.53h0c.09.18.22.34.38.46h0s.27.24.27.24h0s.11.07.11.07l.07.04.11-.23h0s0-.02,0-.02c.04-.27.06-.55.06-.83,0-.56-.08-1.13-.23-1.67-.24-.85-.65-1.64-1.21-2.32h0c-.73-.74-1.27-1.63-1.58-2.61-.1-.3-.15-.61-.15-.92s.05-.62.15-.92h0c.26-1,1.16-1.66,2.14-1.66.16,0,.32.02.49.05h0s0,0,0,0c.42.05.79.28,1.03.63.14.19.31.36.5.5h0c.19.11.44.28.47.3.41.43.62.99.62,1.55,0,.37-.09.74-.27,1.08h0s0,.01,0,.01c-.04.12-.05.25-.05.37,0,.18.04.36.11.54h0s0,0,0,0c0,0,0,0,0,0h0c.09.28.39.61.39,1.08,0,.14-.03.29-.1.46l-.11.17s-.07.12-.07.21h0c-.02.19-.06.38-.11.56h0c-.04.16-.08.23-.11.3-.04.07-.08.15-.1.29v.14c-.01.1.01.21.05.3-.09-.04-.17-.1-.21-.2h0c-.17-.34-.27-.7-.28-1.08.05-.2.12-.31.12-.45l-.06-.18-.02-.03h-.26l-.02.02c-.17.19-.26.42-.27.67h0c-.03-.05-.06-.1-.08-.16-.05-.14-.07-.28-.07-.42s.02-.28.07-.42h0s.01-.04.02-.06h.03s-.02-.04-.02-.04c.06-.16.1-.33.1-.5,0-.13-.02-.26-.05-.38h0c-.04-.17-.06-.34-.08-.51l-.03-.31-.27.68h0s0,0,0,0c-.02.09-.04.19-.04.29s.01.19.04.29h0c.03.1.06.18.09.24-.17-.08-.32-.19-.39-.37h0c-.11-.21-.16-.42-.16-.65,0-.12.02-.25.05-.37.09-.24.2-.4.25-.56l.02-.14-.02-.11-.11-.09-.18.14c-.08.12-.14.18-.19.23-.03.03-.06.08-.07.14,0-.03-.02-.06-.02-.1v-.04c.05-.26.14-.51.28-.74h0c.13-.23.25-.39.25-.54v-.03l-.1-.1-.07-.07-.32.52c-.1.07-.2.06-.39.27h0c-.11.13-.17.29-.21.45-.05-.14-.09-.29-.1-.44,0-.3.1-.6.26-.86h0c.2-.24.31-.54.33-.85h0s0-.01,0-.01c-.04-.36-.34-.63-.69-.63h-.05s0,0,0,0c-.52.08-.95.47-1.06.98h0c-.02.14-.03.28-.03.42,0,.64.21,1.27.6,1.78,0,0,.91,1.23,1.3,1.9.46.78.81,1.62,1.05,2.49.14.6.21,1.21.21,1.82,0,.98-.18,1.95-.54,2.87,0,0-.63,1.52-.96,2.13-.32.61-1.36,2.04-1.47,3.32v.25c0,1.1.61,1.58,1.08,1.58,0,0,.08,0,.17,0,.44,0,1.57-.18,1.87-1.96.71-4.1,2.69-5.65,3.42-7.4h0c.52-1.07.84-2.22.93-3.4l.62-.72c.15.03.29.05.44.05.23,0,.46-.04.68-.11h.01s0-.01,0-.01c.12-.09.31-.13.64-.35.31-.21.47-.25.85-.49l.38-.07s.1.03.25.1c.15.07.37.17.7.27l.8.46h0s0,0,0,0c.4.1.81.15,1.22.15s.82-.05,1.22-.15c.72-.17,1.1-.43,1.31-.69.21-.25.24-.5.27-.62v-.07c0-.23-.2-.46-.19-.6l.04-.1h0c.09-.11.21-.19.34-.23l.06-.02v-.07s-.01-.05-.01-.05l.08-.22h0s0-.01,0-.01c.1-.18.25-.33.42-.45-.01.05-.03.12-.03.19v.12s.01,0,.01,0v.06s-.12.22-.12.22l-.11.06.35.22.1.26-.16.35h0v.52l.54-.72.19-.05h.02s.12-.05.12-.05c.11-.08.28-.21.51-.21h.08s-.1.09-.1.09c-.07.06-.16.13-.17.25v.13h0s.02.06.02.06l.05.02h.02s.09,0,.09,0l.04.22-.37.28-.03.02v.34c-.05.08-.14.13-.24.13h-.01s-.01,0-.01,0h0s-.04.01-.04.01h-.02s-.04.08-.04.08l.04.07h.04s.17,0,.29,0c.1,0,.19.02.2.03l.14.25v.02s.04,0,.04,0c0,0,.12.04.23.1l.15.1.05.07v.02s-.33.18-.33.18l-.13.07.14.06.03.02.02.03s0,.05-.1.11l-.25.08c-.1,0-.21-.04-.29-.11l-.17-.16.05.26-.12.11h0s-.19-.1-.19-.1c-.07-.06-.18-.14-.33-.14l-.16.03h-.31l-.36-.11-.16-.05.07.15c.09.2.22.38.39.53h0s0,0,0,0c.2.11.34.2.42.26l.02.02c-.16-.02-.45-.1-.45-.1l-.1-.03v.07s-.08-.03-.08-.03h0c-.16-.1-.31-.2-.45-.32l-.15-.08-.08.04-.02.07c0,.08.04.19.13.41l.04.17-.03.06-.09-.03h0c-.16-.07-.3-.18-.41-.31l-.18-.21.12.72-.04.04-.06-.02c-.14-.06-.26-.16-.34-.29-.06-.1-.1-.18-.13-.23l-.05-.06-.08-.04-.08.05v.04c0,.07.03.17.06.29l-.15.18c-.07-.04-.16-.12-.24-.22-.11-.12-.2-.23-.29-.29l-.14-.08.1.58h0s0,0,0,0l.02.09h0s-.11-.01-.11-.01h-.03l-.11.1-.32-.33-.11-.11-.06.46-.19-.03-.19-.23-.19-.3h0s-.22-.19-.22-.19l-.1-.09-.1.78h-.03s-.04-.02-.04-.02v-.08s0-.02,0-.02l-.24-.51-.07-.15-.18.4h0v.22h-.12l-.21-.4-.08-.16-.14.42-.18.13-.14-.09c-.27-.18-.74-.53-1.14-.53-.2,0-1.17.04-1.25.04h-.05l-.43-.13-.1-.03v.11s.01.12.05.24c.04.12.11.27.28.27.2,0,.31.09.52.1h.67c.19,0,.37.09.51.23h0c.23.21.49.36.78.47h0s0,0,0,0c0,0,0,0,0,0h0c.11.05.23.08.35.08s.24-.03.35-.08h0s.35-.15.35-.15h.06c-.07.28-.18.54-.35.77h0c-.27.45-.6.87-.96,1.25-.16.07-.77.3-.92.29h-.02c-.25.09-.45.26-.58.48h0s-.09.88-.09.88v.05s.03.03.03.03c.16.1.33.15.51.15.13,0,.26-.03.38-.08h0c.35-.11.54-.18.7-.18.09,0,.17.02.29.06.51.31.97.71,1.34,1.19.17.21.27.58.48.73h0s0,0,0,0c.32.11.62.27.89.45.17.16.29.35.39.56-.11-.04-.21-.08-.31-.13l-.08-.03-.08.08.03.06s.19.16.33.31c.12.13.22.29.24.42l-.35-.21-.28-.17.18.27c.16.25.28.52.35.8h0c.01.22.11.42.27.56h0c.11.14.24.32.32.44h0c-.11,0-.21-.03-.3-.1h0s0,0,0,0c-.16-.09-.29-.21-.38-.37-.13-.23-.31-.42-.53-.57h0s-.15-.06-.15-.06l-.14.14c-.02.06-.03.14-.05.23-.25.6-.46,1.21-.62,1.84h0c-.06.21-.09.43-.09.64,0,.46.14.92.42,1.3h0s0,0,0,0c.66.7,1.49,1.22,2.42,1.49h0s0,0,0,0c.2.03.4.05.61.05.1,0,.2,0,.3-.01h0s.46-.12.46-.12h.02s.01-.01.01-.01c.19-.15.41-.25.64-.29h.1c.11,0,.19,0,.24.02l.07.02h.02s.13,0,.13,0c.17.02.32.13.4.28l-.12-.05h-.01s-.24,0-.24,0h-.08v.21l-.12.13-.06.06.45.32v.19l.05.02.21.04.11.11c.02.05.03.08.05.11h-.86l.29.13-.07.07c-.13.09-.28.16-.43.22h-.5l-.09.12-.05.03-.06.04.04.06c.06.11.09.23.09.35v.08s-.03.07-.03.1l-.37-.26h-.02s-.25-.01-.25-.01l-.44-.14-.06-.12-.03-.07-.24.13h0s-.16.13-.16.13h-.35l-.27.3s-.08-.11-.07-.18l.02-.08c.05-.13.11-.21.12-.31l-.16-.17c-.21-.07-.21-.03-.34-.22-.14-.21-.2-.23-.25-.24h-.02l-.04.02h0c-.1.06-.16.17-.16.28l.05.16h0s.03.09.03.09c-.03,0-.07-.02-.11-.03-.1-.03-.2-.09-.22-.16-.03-.1-.03-.13-.03-.19,0-.06,0-.13-.04-.23l-.15-.13-.15.09-.05.12h0s-.09.27-.09.27h0v.16c-.08-.06-.19-.17-.18-.29,0-.22.05-.33.05-.46v-.1s-.07-.2-.07-.2l-.07-.24-.19.57-.15.1c-.06.04-.11.12-.13.21,0-.02-.02-.04-.03-.07l-.03-.21c0-.12.03-.24.03-.37l-.04-.19h0s0,0,0,0h0s0,0,0,0c-.05-.14-.13-.27-.25-.36l-.18-.14.06.22.02.13c0,.14-.07.28-.19.37h0c-.08.07-.13.13-.17.18l.02-.13c.07-.18.1-.37.1-.56,0-.15-.02-.3-.06-.44h0s0-.02,0-.02c-.2-.35-.49-.62-.85-.79h0c-.23-.14-.37-.38-.37-.65v-.04c.05-.33.2-.38.32-.58h0s0-.01,0-.01c.13-.35.19-.71.19-1.08,0-.12,0-.24-.02-.36h0s0-.02,0-.02c-.14-.36-.25-.73-.33-1.1,0-.16.04-.26.04-.35l-.09-.14-.08-.02-.11.05s-.1.07-.22.13c-.17.09-.26.15-.33.19-.07.04-.12.06-.25.08l-.55.08h-.1l-.26.67v.02s.07.27.07.27v.03s.04.01.04.01c.13.06.53.2.52.54v.04s0,0,0,0v.03c0,.1-.03.2-.05.3l-.08-.19h0s0-.02,0-.02l-.09-.1-.1-.05-.07.04v.04s.04.15.04.15c.06.12.1.21.1.29l-.03.13h0c-.05.11-.08.24-.08.36h0s-.02-.03-.02-.03h0s-.2-.17-.2-.17l-.13-.1v.17c.02.17.07.34.15.49h0s.05.23.05.23c0,.12-.04.24-.12.33-.1.08-.13.09-.15.09l-.06.04-.03.06h0v.64l-.03-.02-.08-.14h0s0-.01,0-.01c-.08-.17-.12-.36-.13-.55v-.04c0-.06-.04-.15-.13-.15-.08,0-.14.06-.2.15-.17.25-.28.54-.32.84h0s.02.1.02.1c-.12-.12-.22-.21-.21-.3v-.06s.01,0,.01,0c.06-.26.13-.51.23-.75h0c.07-.22.12-.41.12-.55l-.03-.15-.02-.04h-.29l-.02.04c-.32.6-.71,1.17-1.16,1.68,0,0-.83.92-.96,1.14-.12.21-.18.39-.18,1.1,0,.11,0,.22,0,.33,0,.57.05,1.13.14,1.69h0s0,.01,0,.01c.19.52.55.97,1.03,1.25h0s0,0,0,0c.41.17.5.21.58.22h.07s.05-.02.05-.02h.02c.21-.07.42-.17.6-.29l.29-.09.4.09h.02s.28-.09.28-.09c.02,0,.18.05.32.12.12.06.22.13.28.2-.07-.02-.16-.05-.26-.05-.31,0-.43.07-.49.15v.02s-.05.27-.05.27l-.32.39-.35.13h-.43s-.53,0-.53,0l.85.25h0s.47.11.47.11l.05.22-.09.17-.05.09h.1s0,.01,0,.01c0,0,.05.01.05.16v.19l-.02-.02h0s-.3-.15-.3-.15l-.05-.02-.19.18h-.5l-.3-.3-.07-.13-.14-.25v.77s.03.02-.07.06h0s-.24.07-.24.07h-.07v.27c-.03.09-.07.18-.11.27l-.19-.4ZM4.39,35.17c-.03.13-.05.26-.07.4-.05.28-.12.48-.2.6,0-.04,0-.08,0-.12.02-.26.13-.57.27-.89ZM22.63,21.19h0s0,0,0,0c.08.17.16.23.26.26h0s.19.1.19.1h.02s.16,0,.16,0l.06.11h0s.11.11.11.11l.08.06.16-.34v-.03s-.06-.26-.06-.26l.1-.17v-.02s.01-.3.01-.3v-.02l-.11-.24v-.14l.04-.1.14.08.04.02h0s.02.24.02.24l.02.19h-.05l-.02.05-.06.17h0s0,.03,0,.03l.03.1.09.05h.02s-.06.1-.06.1l-.07.11h.2l.25-.21h0s.12-.17.12-.17l.06-.08-.15-.06-.06-.15v-.03s.24,0,.24,0h.07v-.21l.06.07v.02s.19.06.19.06l-.03.05-.09.14-.02.03.04.21v.04s.04.02.04.02c.18.08.37.12.56.12h.19s0-.01,0-.01h.12c.35,0,1,.06,1.35.06h0c.21.04.42.06.63.06h.2s.01,0,.01,0h0c.11-.04.2-.06.28-.09.07-.03.15-.1.14-.2v-.03l-.23-.29h-.01s0-.01,0-.01c.14,0,.25.03.33.11.1.1.13.17.13.23l-.12.21c-.17.12-.37.18-.58.18h-.13s0,0,0,0h0c-.15,0-.3-.02-.44-.06l-.24-.06.17.19s.15.15.57.15c.13,0,.29-.01.49-.05h.17v.1s0,.05,0,.05l.19.1.05.15v.22l.11.12-.22.05h-.02s-.03.03-.03.03v-.09l-.14.05v-.31l-.02-.02-.11-.17c-.04-.07-.13-.11-.26-.11-.21,0-.45.07-.65.07h-.1c-.19-.04-.4-.26-.6-.37l-.08-.04-.04.14v.05s.39.32.39.32l-.08.19-.13.03h-.01s-.25.15-.25.15l-.31.04h-.21l.13-.03.25-.05h.03s.09-.13.09-.13l.04-.05-.14-.16h0s-.24-.26-.24-.26h0s-.18-.16-.18-.16l-.03-.03h-.04c-.25.07-.49.15-.72.24h0s-.29.14-.29.14l-.06.03.11.28-.1.03h.11l.04.1-.3.21-.11-.06h-.03s-.26.06-.26.06l-.07-.05-.04-.03-.26.12v-.03s-.02-.02-.02-.02l-.13-.13-.05-.05-.19.14h-.27s-.07-.07-.07-.07l-.03-.03-.17.05h0s-.09.05-.09.05l-.11-.03.13-.06-.27-.13v-.36s0,0,0,0l-.02-.07.08.11h0s.06.17.25.27c.17.1.24.11.43.11h0c.11-.01.22-.03.32-.06h0s.12-.07.12-.07l.22-.12-.63-.06-.34-.05-.17-.21h0s-.16-.17-.16-.17l-.05-.12h0s-.14-.17-.14-.17l-.11-.18.02-.06h0v-.39l-.2-.17-.06-.09.11-.04.14.05.1.04v-.26l.14.11.09.14.05.08-.06.19h0s0,.01,0,.01v.02c0,.16.03.32.08.48ZM24.03,20.42l-.08-.08-.06-.06.06-.03.23-.05.11.05.09.06.03.08-.07.06-.1.09-.11.1-.03-.06-.13.17h-.11l.17-.25.03-.05-.04-.04ZM26.2,20.31c-.25-.06-.41-.09-.52-.09l-.18.03c-.1.05-.11.15-.12.26,0,.09.02.19.09.27-.12-.11-.19-.25-.19-.38,0-.1.03-.18.12-.26.12-.08.25-.12.39-.12l.23.04h0c.16.06.33.11.5.13h0s0,0,0,0h.04c.27,0,.53-.03.79-.09h0s.25-.1.25-.1h0s0,.01,0,.01c-.08.12-.19.22-.31.29h-.09l-.06.09-.06-.03-.03-.02-.21.1h-.14s-.02,0-.02,0l-.12.06h-.01s0-.1,0-.1v-.07l-.35-.05ZM28.64,27.66l-.04.03v-.02s-.03-.03-.03-.03h-.22l-.06.05v-.1l-.16.06v-.35s-.12-.18-.12-.18c-.05-.07-.14-.11-.26-.11-.21,0-.45.07-.65.07h-.1c-.19-.04-.4-.25-.59-.37l-.2-.11.15.34v.02s.38.3.38.3l-.08.17h-.12s-.02,0-.02,0l-.26.16-.31.06h-.28s-.02,0-.02,0l-.11.07-.14-.12h0s0-.01,0-.01v-.19l.24.19.02.02h.21l.26-.06h.03s.09-.13.09-.13l.04-.05-.14-.16h0s-.24-.26-.24-.26h0s-.18-.16-.18-.16l-.03-.03h-.04c-.24.07-.48.15-.72.24h0s-.29.14-.29.14l-.07.03.18.35-.31.21-.11-.06h-.03s-.25.06-.25.06l-.08-.06-.03-.02-.25.11v-.04s-.02-.02-.02-.02l-.13-.13-.05-.05-.18.17h-.27l-.07-.08-.04-.04-.17.08-.09.03-.12-.04.14-.06-.31-.15h-.02s-.11,0-.11,0l.04-.09.02-.04-.09-.1.11.03.12.03-.05-.24.17.13s.06.16.25.26c.17.1.24.11.43.11h0c.11-.01.21-.03.32-.06h0s.11-.04.11-.04l.3-.1-.7-.1-.34-.06-.17-.21h0s-.17-.17-.17-.17l-.05-.12h0s-.14-.18-.14-.18l-.12-.17.03-.08h0v-.41l-.2-.15-.06-.09.06-.02.15.05.1.04v-.27h0s.13.1.13.1l.09.14.05.08-.06.19h0s0,.03,0,.03c.01.16.04.32.08.47h0s0,.02,0,.02l.12.2.14.06h0s.19.1.19.1h.02s.16,0,.16,0l.06.11v.02s.12.09.12.09l.07.06.15-.34v-.03s-.06-.26-.06-.26l.1-.16h0s.02.08.02.08l.1.05h.03s-.06.11-.06.11l-.14.3.48-.4h0s0,0,0,0l.16-.19.1-.12h-.2l-.06-.13-.03-.08.16.06.07.03.02-.07.04-.11.03-.1.07.08.02.02.17.04-.03.06-.09.13-.02.04.1.19v.02s.03.01.03.01c.17.09.35.14.54.14l.2-.02h0c.06,0,.14,0,.24,0,.37,0,.94.02,1.23.07.26.04.45.09.63.09l.23-.04c.11-.04.2-.05.28-.09.08-.03.15-.11.14-.21v-.03l-.21-.25c.08.01.15.04.21.09.09.1.12.18.12.23l-.11.19h0c-.18.15-.41.22-.64.22h-.08c-.15-.01-.3-.04-.44-.08l-.26-.07.18.2s.15.14.57.14c.13,0,.29-.01.48-.04h.17v.16l.19.1.05.16v.18s0,.04,0,.04l.19.14ZM28.62,22.33l.02.02h0s-.02-.02-.02-.02ZM22.61,23.83c-.1-.06-.21-.1-.33-.12v-.39l-.14-.11.1-.11h.1v-.25l.12.09.09.14.05.08-.06.19v.02s.07.47.07.47ZM23.22,24.9h0c.11,0,.21-.03.32-.06h0s.12-.07.12-.07l.27-.14h-.68l-.27-.06.05-.12h0v-.24h0s.03,0,.03,0h.02s.17.01.17.01l.06.11v.02s.15.09.15.09l.08.05.12-.34v-.02s-.07-.26-.07-.26l.1-.16v-.02s.01-.33.01-.33v-.02l-.11-.21v-.14l.04-.09.15.06h.03s.02,0,.02,0v.24s.02.18.02.18l.2-.22.05-.05-.05-.05-.08-.08-.05-.05.04-.02.23-.05.11.05.09.06.03.09v.02s-.18.07-.18.07l-.18.07.28.11.07.03.03-.07.04-.09.02-.05.04.04h.01s.17.06.17.06l-.03.06-.09.12-.02.03.09.21v.03s.04.01.04.01c.17.08.35.12.54.12l.19-.02h0s.14,0,.14,0c.16,0,.39.01.62.03l.19.42v.02s.38.3.38.3l-.08.18-.13.03h-.01s-.25.14-.25.14l-.31.07h-.3l-.11.07-.13-.12.03-.02-.04-.15.23.19.03.02.21-.05.25-.06h.02s.09-.12.09-.12l.04-.05-.14-.17h0s-.24-.25-.24-.25h0s-.18-.16-.18-.16l-.03-.03h-.04c-.25.07-.49.15-.72.24h0s-.29.13-.29.13l-.08.03.18.32h-.02s.02,0,.02,0l.02.04-.31.21-.11-.06h-.03s-.25.06-.25.06l-.08-.06-.04-.02-.25.12v-.04s-.02-.01-.02-.01l-.1-.14-.04-.06-.22.16h-.27l-.07-.08-.04-.04-.17.08-.09.03-.12-.04.14-.06-.25-.12.02-.09h.24l.07.06h0s0,0,0,0c.11.06.23.09.35.09h.08s0,0,0,0c0,0,0,0,0,0ZM25.73,22.71l.23.04h0c.16.06.33.11.5.13h0s0,0,0,0h.05c.26,0,.52-.03.78-.09h0s.24-.11.24-.11h0c-.07.12-.18.22-.31.29h-.09l-.06.09-.05-.03-.04-.02-.21.13h-.13s-.11,0-.11,0h-.04s0-.09,0-.09v-.06l-.35-.06c-.3-.04-.45-.08-.57-.08l-.13.02h-.03s-.08.23-.08.23h0s0,.02,0,.02v.03c0,.24.18.44.43.46h.2c.12,0,.24-.01.37-.02-.14.03-.28.06-.42.06h-.08c-.33-.01-.6-.3-.59-.55,0-.1.04-.18.12-.26.12-.08.25-.12.39-.12ZM25.4,22.27v-.14l.24.19h0s-.11.08-.11.08l-.13-.13h0ZM27.98,23.34h0c.09,0,.17.03.23.09.09.1.12.18.12.24l-.11.2c-.17.13-.37.2-.58.2h-.13s0,0,0,0h0s-.06,0-.06,0c-.13,0-.25-.02-.37-.07l-.26-.1s.07,0,.1,0c.22.04.45.07.68.07h.19s0,0,0,0h0c.11-.04.2-.06.28-.09.08-.02.16-.1.15-.2v-.03l-.25-.29ZM28.5,24.89l.04.02-.19.05h-.02s-.05.05-.05.05v-.1l-.14.05v-.33s-.12-.18-.12-.18c-.05-.06-.13-.1-.25-.11h-.06c-.2,0-.37.09-.58.09h-.12c-.21-.11-.41-.23-.6-.38l-.24-.2c.22.01.44.02.62.03l.18.22s.16.17.6.17c.13,0,.28-.01.46-.04h.17v.12s0,.04,0,.04l.19.11.06.15v.18s0,.05,0,.05l.04.02ZM26.14,25.59c-.25-.05-.4-.08-.52-.08l-.19.04h-.03s-.08.25-.08.25h0s0,.01,0,.01v.02c0,.11.04.22.12.29-.13-.11-.22-.25-.22-.39,0-.09.03-.18.12-.26.02-.01.05-.02.07-.03v.02l.02-.03c.1-.05.21-.08.32-.08l.22.03h0c.16.06.32.11.49.14h0s0,0,0,0c.28,0,.56-.04.83-.1h0s.24-.1.24-.1h0c-.07.13-.18.23-.31.29h-.09l-.06.09-.05-.03-.04-.02-.2.12-.12-.03h-.02s-.14.04-.14.04h-.02s0-.08,0-.08v-.06l-.35-.06ZM25.99,26.28s-.03,0-.05,0h-.12s-.03-.01-.04-.01h.21ZM24.12,25.93l-.11.17h-.11s-.04,0-.04,0l-.11.16h0s0-.28,0-.28v-.02l-.11-.21v-.14l.04-.09.09.04.08.31.03.13.17-.17.06-.06-.08-.05-.11-.08-.06-.04.13-.07.23-.05.11.06h0s.08.04.08.04l.03.09v.02s0,0,0,0l-.24.13-.14.08.04.02ZM28.59,24.97v-.02s-.03-.03-.03-.03l.06.03-.02.02ZM19.58,35.02h0s.06,0,.06,0c.45,0,.81-.36.83-.81,0,.01,0,.02,0,.04,0,.36-.21.71-.56.87l-.21.02c-.37,0-.72-.2-.9-.53-.09-.16-.13-.32-.13-.49,0-.36.19-.71.53-.9.09-.03.19-.04.28-.04.36,0,.68.21.84.54-.15-.24-.41-.41-.72-.41-.48,0-.87.39-.87.87s.37.84.84.84ZM21.76,36.93l.31-.4h0s.04-.14.04-.14l.14.1.19.15-.11.03h-.02s-.15.15-.15.15h0s-.31.33-.31.33h0c-.12.15-.22.3-.32.46h0s-.04.18-.04.18c-.11-.04-.21-.19-.31-.31l.15-.09h.01s.24-.31.24-.31l.03-.04-.16-.31h0s0-.01,0-.01c-.18-.22-.39-.41-.61-.59l-.05-.04-.41.35h-.01s-.04.12-.04.12l-.16-.15-.12-.14h.17l.15-.13c.21-.2.67-.65.77-.77h0s.02-.06.02-.06l.22.24h0s-.44.41-.44.41l-.06.05.88.93ZM19.27,32.28h-.02l-.92.41h-.02s-.12.15-.12.15l-.06-.16.65-1.91v-.14l-.09.02c-.18.04-.9.27-1.05.32h-.02s-.04.06-.04.06c-.04-.07-.06-.15-.06-.24v-.06h.11l.63-.1c.1-.02.42-.08.64-.13h0s.17-.06.17-.06h0s-.68,1.99-.68,1.99h.18l.78-.39h.02s.01-.02.01-.02l.04-.05.08.32h-.26ZM17.71,26.96l.18.08c.14,0,.22-.11.28-.22.05-.1.09-.23.13-.36h.31l-.08.18h0s0,0,0,0c-.04.15-.23.57-.53.56-.08,0-.16-.02-.27-.08h0c-.1-.04-.15-.24-.16-.47l.12-.02-.02.14.05.18ZM18.24,28.11v.05l-.06.06-.06-.02-.06-.09.04-.13.15.12ZM18.15,29.24h.04s.12-.04.24-.05c.12,0,.26,0,.37,0h.01l.13-.05v.26h-.22s0,0,0,0l-1.21.1h-.02s-.06.05-.06.05c-.02-.06-.06-.11-.06-.18l.04-.17.08.03h.01s.65,0,.65,0ZM19.11,26.29h.06c.03.1.05.21.05.32l-.02.25-.07.3-.02.05-.2.03.08-.05h.02s.15-.36.15-.36h0s0-.02,0-.02c0,0,.02-.1.02-.22,0-.09-.01-.21-.06-.3ZM15.31,29.28c-.05-.04-.11-.08-.17-.12.06-.06.11-.13.16-.19,0,0,0,.21,0,.31ZM19.01,38.64h-.06c-.1,0-.19,0-.26,0-.63-.2-1.22-.56-1.58-.92-.09-.13-.14-.28-.14-.44,0-.08.01-.15.05-.28.01-.04.02-.08.03-.13.21.08.44.13.67.13.39.58.82,1.13,1.29,1.64ZM20.99,45.14h-.27l-.07-.27-.02-.05h-.23v.17h0s-.04,0-.04,0v-.2h-.23v.44h.16l.11-.06h.06s0,0,0,0h.17s.07-.01.07-.01l-.21.21h-.37s0,0,0,0l-.25.04v-.24l-.39-.24-.03-.16v-.02s-.22-.19-.22-.19l.17-.16.04-.03-.02-.05-.02-.13c0-.15.09-.29.23-.35l.2-.05h.06v-.07l.08-.15.06-.04.19.11.04.02.15-.1.19-.05c.13,0,.26.07.34.19l.03.14v.04s.21.05.21.05l-.06.2v.04s.07.11.07.11h0s0,.02,0,.02h0s.02.04.02.04l.03.14c0,.16-.1.32-.26.38l-.06.02.06.26ZM18.1,44.96c.14.21.27.43.38.65v.08c-.07-.26-.25-.49-.49-.64l-.04-.02-.04.02c-.11.06-.14.18-.14.26v.17s-.04.14-.04.14l-.04.02-.15-.11c-.06-.06-.13-.13-.22-.17v-.26l.12-.06h.14s.2-.06.2-.06l.04-.03v-.05c-.05-.15-.19-.19-.28-.19h-.14s-.12-.02-.12-.02l-.09-.11c0-.1.06-.16.17-.24.09-.07.21-.15.29-.27h.2l.05.09c0,.07-.06.17-.06.3l.05.16v.02s.04,0,.04,0l.11.02.14-.08.03-.13v-.21s0-.1,0-.1l.14-.08s.1.05.17.14c.06.07.14.16.24.2l.08.28-.12.07c-.08,0-.2-.05-.34-.05-.1,0-.22.05-.29.17l-.02.04.03.04ZM13.28,41.65c.22.38.61.64,1.04.7.23.23.52.37.85.4.28.2.6.31.92.31.09,0,.18,0,.27-.03.03.01.07.02.1.03.01.02.04.06.05.07-.06.04-.14.1-.22.18-.03,0-.1,0-.1,0-.79.04-1.57.29-2.13.68-.23.13-.45.25-.67.37-.45-.88-1.64-1.16-1.96-1.16-.1,0-.21.01-.34.04h-.06c-.1-.03-.2-.04-.3-.04-.14,0-.27.02-.4.06l-.3.09c-.11.03-.21.08-.3.13-.09-.08-.16-.18-.22-.28-.06-.43-.09-.87-.09-1.29v-.33c0-.19,0-.31.01-.39.06-.07.15-.19.28-.33.25.21.56.32.89.32.19,0,.38-.04.56-.12.17-.07.32-.18.45-.31.4-.08.78-.33.99-.68.05-.08.08-.16.12-.24.12.1.24.18.38.26.02,0,.03.02.05.03-.06.19-.09.39-.1.59,0,.33.09.65.25.94ZM10.7,50.33c-.12.06-.25.11-.34.2l-.33-.06-.03-.09c0-.13.1-.3.11-.49l-.03-.15-.02-.05h-.05c-.18.01-.26.16-.28.27-.03.12-.05.22-.1.29l-.16.07c-.13-.03-.19-.12-.24-.27-.05-.13-.1-.29-.21-.42l.1-.25.1-.04.18.08c.07.05.16.1.27.11h.09s.02-.02.02-.02v-.02s.1-.19.1-.19l-.12-.15-.27-.06c-.09-.02-.15-.05-.17-.09l-.04-.16c0-.09.07-.14.21-.2.11-.05.24-.11.33-.23h.36l.07.13c.01.13-.18.32-.19.56l.12.26.03.03h.04c.29-.11.59-.17.89-.22.04,0,.06,0,.1.01-.34,0-.67.12-.93.35l-.04.03v.05c.06.18.2.24.32.27.12.03.23.05.31.12l.05.14c0,.07-.07.13-.21.19ZM27.23,50.31c-.22.32-.54.56-.91.67-.22.03-4.14.05-7.66.05-2.85,0-5.48-.02-5.67-.05-.23-.04-.32-.1-.39-.18-.07-.08-.11-.2-.2-.36-.15-.36-.27-.72-.35-1.1h0s0-.02,0-.02c-.27-.54-.46-1.11-.55-1.7,0-.06.13-.25.37-.45.72-.63,2.27-1.54,2.9-1.89h0c.44-.3.95-.47,1.48-.5h0s0,0,0,0h.05c.19,0,.41.18.59.41.17.22.3.48.36.59.01.1.02.21.02.32s0,.22-.02.33l-.02.13.12-.05c.37-.17.77-.34,1.13-.46h.04s0,0,0,0l.09-.03c.5-.15,1-.26,1.52-.32h0c.21-.04.42-.06.63-.06.34,0,.68.06,1,.16h0s.04.08.04.08l.05-.04.32.16c.39.24.51.8.68,1.63h0s.08.29.08.29v.06h.07c.55,0,1.59.03,2.18.03.13,0,.24,0,.32,0h.1s.04-.01.04-.01l.06-.08-.05-.07c-.77-.33-1.22-.41-1.52-.45-.3-.05-.42-.06-.59-.25-.12-.13-.18-.55-.18-1,0-.66.1-1.42.13-1.64.26-.54.77-.92,1.36-1.03,1.49.07,1.2.08,2.42.19v1.5h-.46l.06.11c.11.2.19.4.26.61-.3,0-.36-.02-.43-.02l-.14.02c-.52-.23-1.09-.5-1.52-.74-.22-.12-.4-.24-.53-.34l-.14-.13-.04-.06h0s0,0,0,0v-.06c0-.27.2-.38.33-.5h.45l.13-.04.09-.03-.11-.18h0s0-.01,0-.01l-.18-.08c-.09-.03-.19-.05-.3-.05-.1,0-.2.02-.29.09h0s0,0,0,0c0,0,0,0,0,0h0c-.33.19-.53.55-.53.93h0s0,0,0,0c.02.15.13.29.31.46.53.51,1.63,1.18,2.5,1.44h.02c.22.12.3.22.35.35.05.14.07.32.13.56.05.47.07.95.07,1.42s-.02.94-.07,1.4ZM21.62,44.69v-.09c.02-.11.18-.32.35-.53.15-.2.29-.41.32-.63.17.11.47.36.47.75l-.03.23c-.19.46-.49.87-.87,1.2-.15-.29-.24-.61-.24-.94ZM23.33,42.38s.1.02.15.04c-.02.01-.04.02-.06.04-.03-.03-.06-.05-.09-.07ZM30.66,46.62c.01.13.02.26.02.4,0,.6-.13,1.2-.39,1.75-.28.4-.65.72-1.09.93-.46-.2-.86-.52-1.15-.93-.23-.53-.35-1.1-.35-1.68,0-.16,0-.31.03-.47h0s0,0,0,0c0-.39-.1-.78-.25-1.14h.26v-.08c0-.21-.01-.43-.01-.65,0-1.17.07-2.42.07-2.75v-.05l-.05-.02c-1.18-.46-2.26-.87-2.47-.96h-.02s-.09,0-.09,0h-.02c-.24.06-.48.1-.72.1-.59,0-1.17-.18-1.67-.53l-.22-.32.17-.33.03-.06-.06-.04c-2.13-1.32-3.81-3.26-4.81-5.56l.03-.09h0v-.18h0s-.1-.4-.1-.4l-.05-.29c-.04-.28-.14-.54-.28-.79h0s-.28-.28-.28-.28c-.26-1.05-.4-2.12-.4-3.2v-.11s0-.2,0-.2c0-.64.06-1.29.18-1.92h.27c-.12.65-.18,1.3-.18,1.96v.19s0,.07,0,.07c0,4.28,2.21,8.26,5.84,10.53l.05.03.29-.33.18-.22.04-.05-.04-.05c-.33-.37-.62-.76-.89-1.17l.06-.06c.41.24.84.45,1.29.61l.07.03.02-.07c.07-.24.13-.48.16-.73v-.05s-.03-.03-.03-.03c-2.93-1.83-4.71-5.03-4.71-8.48v-.06s0,0,0,0h0c0-.98.15-1.96.43-2.9h.36c-.29.95-.44,1.92-.44,2.88,0,3.22,1.59,6.32,4.38,8.18l.12.08v-.23l-.02-.02c-2.12-1.9-3.31-4.6-3.31-7.43,0-.21,0-.42.02-.64h0v-3.06l.45-.05v2.51h7.68v-8.56h-7.68v1.83l-.46.12v-1.82l-.13.13c-.26.27-.54.54-.77.81h0c-.2.18-.35.4-.46.65h0s-.11.19-.11.19c-.06.04-.53.16-.54.56l.05.2c-.27.42-.52.85-.74,1.29l-.36.1h0c.08-.18.16-.35.25-.53l.02-.04-.29-.46c.15-.19.25-.41.26-.65h0c0-.2-.1-.39-.24-.52l.07-.22h0v-.02c0-.15-.07-.26-.16-.31l-.22-.06h0s-.23-.07-.23-.07l-.08-.2-.03-.11.18-.11h0c.18-.09.34-.22.46-.39h0c.18-.26.27-.56.28-.87h0s-.04-.28-.04-.28h0s0-.01,0-.01c-.07-.21-.18-.4-.32-.57l.07-.26h0c.03-.15.27-.71,1.39-.72h.22s0,0,0,0c.87-.02,1.74-.09,2.61-.21l.16-.02-.77-.71.14-.72h0v-.05h0s0-.02,0-.02c-.08-.23-.17-.47-.25-.7l-.02-.04h-.05c-.15-.02-.27-.15-.27-.31l.09-.23v-.03s0-.03,0-.03c-.28-.66-.53-1.29-.76-1.94h0s0-.01,0-.01l-.03-.08.09-.09c.07-.03.17-.06.26-.09l.07-.02-.02-.07c-.07-.23-.12-.46-.16-.7l-.03-.23v-.07c-.01-.1-.01-.2-.01-.3s0-.2,0-.3h0v-.41h0s0-.11,0-.11v-.11h0s0,0,0,0c0-.57.21-1.12.6-1.54l.07-.08h0s.1-.08.1-.08c.27-.21.59-.36.92-.45h.04s.12-.04.12-.04c.36-.08.74-.12,1.14-.12.02,0,.05,0,.07,0l.05.02v-.02c.45,0,.91.06,1.34.13h.02s0,0,0,0c.91.15,1.74.39,2.24.57l.05-.14-.21-.08.13-.24.29.12-.14.35-.03.07.19.06c.2.07.4.13.6.18l.1.02-.07-.72h0s-.17-.4-.17-.4c.37-.21.78-.35,1.21-.38.49.04.96.17,1.4.38-.13.16-.16.28-.3.39l-.03.02v.62l.1-.03c.19-.05.38-.11.76-.19l.09-.02-.19-.42.25-.11.13.29-.07.03.06.14c.66-.23,1.33-.4,2.02-.53l.34-.05c.34-.05.69-.08,1.03-.09h.06s.13,0,.13,0c.37,0,.74.04,1.11.12h.01s.17.05.17.05c.33.09.63.25.9.46l.09.07h-.01s.09.09.09.09c.36.36.59.9.63,1.64h0s0,.02,0,.02c0,.07.02.14.02.22,0,.27-.02.57-.08.89l-.11.56h0v.51l.39.12.02.12c0,.5-.62,1.64-.79,1.9l-.02.04.2.34c-.01.16-.14.29-.3.3h-.03s-.02.03-.02.03c-.21.24-.21.47-.38.67l-.02.03.05.21-.18.05c-.39.12-.58.21-.97.35l-.05.02v.17l.42.31.06.04.05-.06.57-.71.11-.14.11.46-.55.55-.02.02v.03c0,.23.21.48.58.66v.75l.12-.1c.17-.14.51-.3.54-.31.21,0,1.14.29,1.72.29h0s.16,0,.16,0c.26,0,.52.03.78.08.35.09.67.27.93.54h0s0,.01,0,.01c.05.02.1.14.17.33.07.18.17.42.35.7l-1.18,1.09v-.23c-.2-.31-.32-.64-.38-1h0s-.19-.59-.19-.59h0s-.03-.04-.03-.04l-.11-.03c-.31-.05-1.33-.11-1.65-.17h0s0,0,0,0c-.36,0-.71.12-1.01.33l-.08.05.07.06c.9.81,1.68,1.74,2.36,2.74-.05-.02-.09-.04-.13-.06-.07-.04-.14-.07-.25-.07h-.15c-.43-.8-1.02-1.5-1.73-2.06l-.12-.09v3.41h0v.05c0,.42.07.83.19,1.23h0s0,.02,0,.02c.18.28.33.65.45.98.12.31.2.57.31.71l.58,2.34v.53c0,4.59-3.17,8.58-7.65,9.61h-.06v.12c-.13.33-.2.69-.2,1.04v.16s0,.05,0,.05l.04.02c.76.32,1.15.56,1.73.77h.02s.02,0,.02,0c4.79-1.64,8.14-5.98,8.5-11.03l.24.13c-.32,4.09-2.57,7.79-6.07,9.94l-.05.03.14.47c0,.24,0,.54-.05.79-.05.26-.14.47-.29.53l-3.8,1.7c-.18-.04-.36-.11-.56-.16l-.09-.03v2.45l.12-.08.08-.04c-.11.37-.17.75-.18,1.14h0s0,0,0,0ZM32.34,39.56l-.11.15-.09-.03v-.08l.12-.1.08.06ZM36.62,44.6l.05.2c0,.17-.06.39-.12.57-.03.09-.06.17-.09.23h0c-.41-.29-.71-.71-.86-1.2l-.03-.2c0-.27.14-.48.28-.62l.15-.12c.01.22.17.43.31.63.15.2.29.39.29.48v.04ZM46.26,49.29h0s0,.03,0,.03c-.04.38-.17.75-.37,1.09v.02s-.01.02-.01.02c0,.19,0,.31-.04.37-.03.06-.1.1-.29.14-.32.03-4.21.05-7.74.05-1.49,0-2.93,0-4.01-.01-1.08,0-1.82-.02-1.89-.04-.17-.03-.41-.17-.59-.32-.19-.15-.32-.33-.31-.37,0-.13,0-.26,0-.39,0-.83.07-1.66.2-2.47h0s0-.04,0-.04l-.02-.15c0-.31.22-.6.54-.67.6-.14,1.28-.49,1.81-.86.27-.18.5-.37.67-.55.16-.17.27-.32.28-.47h0c-.03-.4-.26-.74-.6-.93h0s0,0,0,0c0,0,0,0-.01,0h0s-.24-.07-.24-.07c-.21,0-.45.11-.56.1h-.08v.24l.25.05h0s.37,0,.37,0c.2.1.49.24.52.53-.74.57-1.56,1.03-2.44,1.34-.09,0-.18-.01-.27-.01-.07,0-.13,0-.2,0,.02-.23.08-.45.17-.66l.05-.11h-.42v-1.49c.81-.02,1.63-.07,2.43-.17h.07c.49-.02,1.19.68,1.37,1,0,.2.04.7.04,1.24,0,.6-.06,1.24-.22,1.41-.15.18-.52.25-.95.32-.43.07-.92.13-1.32.34l-.04.02v.05l.04.07.06.02c.27.03,1.97.03,2.87.03h.07v-.36c.05-.61.31-1.18.74-1.62l.33-.17.07.05v-.07c.33-.11.67-.16,1.01-.16.21,0,.43.02.64.06h0s0,0,0,0c.45.05.9.15,1.33.32l.06.02.12-.2c-.01.06-.03.12-.03.18v.02s0,.05,0,.05l.05.02c.38.14,1.16.29,1.52.48l.11.05v-.79c.1-.14.27-.42.47-.67.2-.27.45-.5.57-.49h.02c.49.07.94.28,1.32.6h0s0,0,0,0c.48.25,1.25.73,1.89,1.19.32.23.62.47.83.67.21.2.33.38.33.45-.07.6-.27,1.18-.57,1.7ZM46.37,45.14c.94-.4,1.62-1.28,1.71-2.36,0-.09.01-.17.01-.27v-.09c0-.19-.02-.38-.06-.57.35.27.73.4,1.14.4.05,0,.16,0,.2-.01.49-.06.92-.37,1.11-.82,0,0,0,0,0,0,.03.13.05.28.05.43,0,.28-.05.56-.16.9-.15.53-.44,1.01-.83,1.4-.23.12-.42.23-.6.33l-.09.05c-.07.04-.13.07-.17.09-.17.07-.32.17-.48.32-.28.12-.53.29-.75.51-.1.1-.19.21-.25.34-.26-.23-.54-.45-.83-.65ZM49.51,49.65c-.1.12-.14.28-.21.41-.07.14-.15.24-.29.29l-.14-.07c-.07-.06-.07-.17-.1-.29-.02-.13-.12-.28-.34-.27h-.08v.08c0,.24.16.5.18.7l-.29.06c-.11-.09-.25-.14-.39-.2l-.18-.09-.06-.08.08-.15c.08-.08.16-.09.26-.13.1-.03.22-.09.33-.24l.04-.06-.05-.04c-.26-.22-.58-.34-.91-.34-.09,0-.19.01-.28.03h-.02c.09-.05.19-.08.3-.08h.08s0,0,0,0h0c.17,0,.56.15.95.21h.05s.03-.04.03-.04l.05-.19c0-.23-.18-.42-.17-.57l.1-.17h.33c.1.12.25.18.36.23.13.06.2.11.2.21l-.03.13c-.06.06-.19.09-.32.12l-.19.05-.12.16.05.16v.02s.04,0,.04,0h.08c.1.01.18-.05.25-.09l.24-.08.15.04v.26ZM51.91,49.6c-.18,0-.38-.03-.57-.07l-.19-.02c-.21,0-.32.14-.37.29-.06.15-.12.34-.28.53-.08.1-.17.13-.25.13-.13,0-.29-.08-.4-.18-.08-.06-.12-.11-.16-.14l.06-.09c.03.1.08.22.2.29.08.04.17.08.27.08.15,0,.29-.1.4-.35v-.02s0-.02,0-.02c0-.08.06-.23.16-.36.1-.12.24-.22.36-.21l.13.03h0s0,0,0,0c.19.06.39.1.59.1.14,0,.27-.02.41-.05-.11.04-.24.06-.38.06ZM52.04,48.08s-.11.04-.16.04c-.02,0-.05,0-.07,0,0,0-.01,0-.02,0,0,0,0,0,0,0,.09-.06.17-.12.24-.19.15.03.27.04.34.04.02,0,.05,0,.07,0-.14.02-.27.07-.4.13ZM53.18,40.8h0s0,0,0,0c-.14.41-.22.84-.22,1.27,0,.13,0,.26.02.39-.05.41-.07.83-.07,1.25s.02.83.07,1.25c0,.31-.19.77-.19,1.1,0,.14-.04.19-.1.24-.06.05-.15.08-.25.14l-.07.02h0s-.01-.19-.01-.19v-.03l-.02-.02c-.15-.2-.37-.33-.62-.38h0s0,0,0,0c-.12,0-.23.04-.31.09-.06.04-.1.08-.13.14l-.03.02h0s-.01,0-.01,0l-.06.03-.02.05s0,.07-.09.34h0v.02c0,.14-.01.22-.03.26l-.09.07c-.06.01-.16.03-.24.13l-.02.02v.12s0,0,0,0h0s-.15.13-.15.13c-.54.27-1.11.47-1.7.61h-.07s-.17-.04-.17-.04l-.05-.08.36-.43.22-.26-.51.23c-.12.05-.25.08-.38.08h-.13s-.1-.08-.1-.08c.24-.22.43-.49.52-.81.15-.14.33-.24.54-.28h.03s.2-.24.2-.24c.21-.09.58-.33,1.14-.61h0s0-.01,0-.01c.65-.59,1.13-1.35,1.37-2.19h0s0,0,0,0c0,0,0,0,0,0h0c.15-.45.22-.9.22-1.32,0-1.19-.59-2.19-1.63-2.42h-.07s-.02.05-.02.05c-.02.09-.08.17-.16.22-.09.05-.12.06-.16.07-.04,0-.1,0-.2.04h-.03s-.21.3-.21.3v.02s-.01.02-.01.02l-.07.09c-.06.02-.15.04-.26.07-.09.02-.15.03-.19.05l-.06.03-.04.08.04.08v.03s.01.02.01.02l.08.11c-.11-.05-.22-.14-.34-.28l-.06-.15c0-.1.11-.23.24-.32l.03-.02v-.04c0-.1-.07-.16-.11-.23-.05-.08-.09-.17-.09-.33v-.04c-.06-.1-.08-.17-.08-.22,0-.12.09-.19.23-.26.19-.06.29-.1.34-.13l.06-.07h.01s1.65-2.13,1.65-2.13c.27.78.72,1.5,1.31,2.08h0c.22.31.61.4.97.7.2.22.35.28.36.71,0,.29-.17.42-.37.8ZM57.29,31.86h-.08c-.16,0-.26.02-.34.08-.08.06-.12.14-.21.23h0s0,.01,0,.01c-.15.27-.23.57-.23.87,0,.09,0,.18.02.26,0,0,0,0,0,0,0,0,0,0,0,0,0,.48.2.99.2,1.62h0s0,.02,0,.02c.12.51.19,1.03.19,1.56-.08.58-.42,1.1-.93,1.4l-.09.05.08.07c.2.17.55.38.55.78h0s0,.07,0,.07c0,.35-.21.66-.53.8h-.01s-.01.02-.01.02l-.1.07h-.09s-.19.07-.19.07l-.03.02v.04l-.09.12c-.06.04-.15.08-.25.12h-.11s-.23,0-.23,0l-.2.05c-.06.04-.09.11-.09.19-.04.06-.06.12-.08.17-.06-.08-.1-.17-.1-.25,0-.13.07-.26.28-.38.19-.1.29-.14.37-.23.07-.09.06-.19.06-.37.04-.11.07-.23.07-.34,0-.34-.18-.67-.5-.84h0c-1.18-.55-2.12-1.51-2.63-2.7l.66-.89c.93,1.9,1.64,2.58,2.2,2.59.37,0,.62-.3.77-.68h0c.12-.2.17-.45.17-.72,0-1.09-.74-2.55-.74-2.56h0s-.39-.7-.84-1.55c-.46-.85-.99-1.84-1.27-2.44h0s0,0,0,0c-.73-1.17-1.19-2.49-1.34-3.86v-.26c0-.53.11-1.06.33-1.55h0s0-.01,0-.01c.2-.7.6-1.32,1.13-1.81.37-.3,1.14-.67,1.35-.87.17-.16.58-.42.6-.88h0c.1-.25.23-.48.38-.71v-.02s.01-.02.01-.02c0-.12.04-.18.12-.25.08-.07.23-.13.42-.22.19-.09.27-.1.34-.11.06,0,.13-.01.24-.06.19-.09.23-.18.34-.27l.03.11-.06.2c-.17.22-.56.54-.76.76l-.02.02v.63c-.12.15-.19.33-.19.51v.08s.25,0,.25,0c-.1.09-.18.19-.24.31h0s0,0,0,0c0,0,0,0,0,0h0c-.1.16-.11.26-.1.32,0,.06,0,.07-.08.18v.02s-.02.02-.02.02c-.04.24-.17.46-.36.61h0s-.07.06-.07.06l-.04.08.04.07h.04s.12-.02.12-.02h0c-.1.18-.19.36-.3.53-.39.5-.9.89-1.5,1.13-.61.26-.81.87-1.01,1.63h0s0,.03,0,.03c.09.66.22,1.31.39,1.95h0s.72,1.41.72,1.41v-.31c0-.13,0-.15.01-.17.01-.03.07-.08.17-.23h0c.14-.15.21-.34.21-.53v-.11s0,0,0,0h0s.07.06.07.06c.11.1.18.25.18.4v.09s0,0,0,0h0c0,.16,0,.27,0,.34v.08s.02.04.02.04l.07.05.08-.05c.05-.09.14-.34.35-.55l.02-.02v-.03c0-.1,0-.18,0-.23h0s.04.04.04.04c.08.29.14.59.18.89,0,.26-.17.39-.36.62l-.35.42.45-.31c.25-.17.45-.4.6-.66v-.02s0-.57,0-.57l.21-.21.03-.03v.42c0,.21.05.33.1.44.05.11.08.22.09.43-.17.43-.75.82-.76,1.36v.18l.32-.32h0s0-.02,0-.02c.15-.27.34-.53.57-.75h0c.18-.19.21-.28.21-.43.03-.03.06-.04.09-.06h0c0,.1.05.21.14.39-.14.58-.39,1.12-.74,1.59h0c-.14.14-.19.29-.19.41,0,.09.03.17.07.23l.15.11.08-.04v-.04s.02,0,.02,0c.4-.88.83-1.07,1.2-1.07.28,0,.52.11.72.16l-.12.16-.07.09.11.03c.16.04.24.14.31.27.07.12.11.26.26.31h0s.01,0,.01,0h.07s.22-.05.22-.05h.03s0,0,0,0c-.02.03-.06.09-.16.2-.11.1-.2.13-.3.14-.23,0-.49-.2-.79-.22ZM30.21,10.87v-2.72l-.24-.08-.1-.03v2.92l.29-.08.05-.02ZM28.7,9.44l.39.37-.29.26-.09-.06v.14c0,.19.16.33.33.4l-.3.28-.14.13h1.08l-.21-.41c.06-.03.12-.08.14-.14l.03-.26v-.02l-.18-.34.17-.33.02-.03-.19-.37.17-.33v-.02s0-.61,0-.61h0c-.02-.24-.21-.42-.45-.42h-.01c-.23,0-.42.19-.44.42v.03s.18.25.18.25l-.17.29-.03.05.38.35-.33.31-.06.05ZM35.44,49.46v-.15s0,0,0,0h0c-.05-.51-.48-.88-.97-.88h-.1c-.48.07-.83.47-.83.95v.05s0,.04,0,.04c0,.46.32.84.77.94v.06h.16s0,0,0,0c.54,0,.98-.45.98-.99h0ZM34.7,49.89c-.03.1-.04.12-.09.12-.06,0-.14-.05-.2-.15-.06-.1-.11-.24-.11-.4,0-.16.04-.3.11-.39.06-.1.14-.14.2-.14.02,0,.05.02.08.12.03.1.04.25.04.42,0,.18,0,.33-.02.43ZM30.27,9.77v.07h.27c.68-.04,1.34-.22,1.95-.53h0c.49-.19.99-.33,1.51-.42h.11c.52,0,.99.31,1.19.79l.02.06h.06c.14-.05.28-.06.42-.06.29,0,.57.07.83.2.2.2.39.41.56.63l.11.14.03-.18c.02-.12.03-.24.03-.36,0-.59-.22-1.16-.63-1.6h0s0,0,0,0c0,0,0,0,0,0h0c-.37-.43-.96-.65-1.76-.65-.51,0-1.1.09-1.77.26-.59.14-1.17.3-1.74.5-.37.13-.75.22-1.14.29h-.06s0,.08,0,.08l.02.77ZM29.1,28.16h7.66v-8.56h-7.66v8.56ZM30.32,27.62l-.09-.1h.16l-.06.1ZM35.67,27.63l-.18-.08.04-.02.16.05h0s-.01.03-.02.05ZM36.25,27.11l-.04.04v-.23h.04s0,.19,0,.19ZM35.62,20.28l.1.06s.02.01.03.02l-.12-.02v-.06ZM29.59,20.17h0s.14.1.14.1c.06.06.13.13.24.14.09,0,.15-.07.2-.17h.12l.08.1-.25.04-.11.02.25.39.02.03h2.64v-.09c-.03-.13-.08-.24-.14-.36.11-.02.2-.08.25-.14.05.05.14.12.25.14-.02.04-.03.07-.04.12,0,.08.03.18.1.29l.02.03h2.22l.21-.35.03-.05s.08.04.14.05c.08,0,.15-.06.2-.14l.08-.04-.08.13c-.06.07-.14.12-.15.23l.07.11h-.2l-.22.45v.02s0,2.64,0,2.64l.03.02.18.07c.1,0,.19-.05.26-.09l.11-.04v.31c-.07-.02-.17-.08-.31-.08-.09,0-.19.05-.26.16v.02s-.01,2.81-.01,2.81l.44.15.06.02-.09.09-.03.03.14.36h-.01s-.12-.14-.12-.14l-.18-.1s-.06.03-.09.05v-.2l-.22-.18-.02-.02h-2.39v.52l-.13.05-.25-.03c.09-.12.14-.25.14-.39v-.08s-.01-.07-.01-.07h-2.61l-.21.32-.02.02-.09-.03h0s0,0,0,0h-.02c-.13,0-.19.11-.23.18l-.05.09h0s-.04-.03-.04-.03l-.02-.04.1-.1.09-.07.06-.12-.08-.12-.14-.05v-.05l.49.08h.09s0-.43,0-.43h0s0,0,0,0v-2.56l-.02-.02-.19-.08c-.15,0-.27.1-.37.14v-.16s.08-.06.08-.15h0c.09.03.19.08.31.08l.15-.04.04-.02v-2.92l-.21-.25-.03-.04-.19.07.02-.03.02-.02v-.11c0-.11-.08-.18-.14-.26l-.11-.17h.01ZM29.63,27.02v-.03h.05s-.05.03-.05.03ZM29.67,20.91h0s0,0,0,0h0ZM33.19,21.3l-.06-.05v.05h-2.31v2.47l.19-.06v.02l-.05.11.08.1h.09s.03,0,.03,0l-.09.02h-.06v.2l-.06-.05-.12-.09v2.44h1.73v.02l.03-.02h.32v-.29l.04-.02h0v.34h2.27v-2.57h0s0-2.63,0-2.63h-2.02ZM32.9,21.65v-.27l.24.19-.1.09v.09s-.01.1-.01.1l-.14-.21h0ZM32.7,21.55l.07.04-.07-.02h0ZM32.71,26.24h0s.13-.08.13-.08h0s-.13.08-.13.08ZM33.2,26.28l-.14-.07-.07-.03h.21l.07.03-.07.07ZM34.34,24.05l-.18.26h0s-.18.33-.18.33l-.36.13-.05.02v.24l.45.11h0s.13,0,.13,0v.29h.03-.03v.18l.19.15v.29h-.14l-.21.13-.04.02v.02l-.04-.03v-.18l-.09.02.07-.06h0s.2-.32.2-.32l.03-.04-.22-.31v-.02s-.63-.25-.63-.25l-.18-.25-.02-.03h-.25l-.22.12-.04.02v.45l.2.14v.14h-.2v.11l-.14.09h-.17s0,0,0,0l-.11.03v-.13l-.29.23h-.16l-.12-.02v-.19s0-.06,0-.06l-.19-.05h0s.13-.04.13-.04h.35l.02.02.02.02h.23l.39-.14.09-.03-.23-.37v-.44l.07-.08c.05-.02.15-.02.24-.02h.19s.2,0,.2,0h.07v-.35l-.19-.04v-.08l-.24-.14-.04-.02-.21.13h-.16l-.18-.07-.04-.02h.03s-.38-.16-.38-.16h-.01s-.13,0-.13,0v-.1s0-.03,0-.03l-.06-.07.16.03.09.02v-.14l.07.06.19.23.02.02.41.08h.01s.21-.04.21-.04h0s.2-.06.2-.06l.48-.15h-.88l-.35-.07-.15-.16v-.12s0-.04,0-.04l-.2-.11v-.14l-.19-.18v-.35s0-.04,0-.04l-.19-.14v-.07l.13-.03h.06v-.14l.1-.02.17.11.05.03-.06.05-.02.02v.73l.38.21v.05s0,.07,0,.07h.24l.14.09v.04s0,.09,0,.09h.08c.21-.04.36-.1.45-.18h0s0,0,0,0c.07-.06.11-.13.11-.2l-.05-.13-.13-.05h-.08s-.01-.01-.01-.01l.13-.12.15-.13h-.51v-.1l.33-.08h.06v-.09h.37l-.1-.05h.12l-.09-.06c.06.01.12.01.18.03l.19.06s.04.04.06.05h0s-.25-.1-.25-.1l.16.21c.09.12.13.21.13.27l-.1.11-.05.02v.12l-.18.32c-.09.04-.16.11-.18.2-.03.1-.03.21-.03.36v.03l.02.02c.1.11.17.26.17.41v.04s.24.14.24.14h.02s.02,0,.02,0h.02c.14,0,.2-.12.22-.22.02-.1.02-.21.02-.28v-.03l-.02-.02c-.17-.16-.16-.27-.17-.58,0-.02.01-.05.04-.09v.32h.19v.42l.12-.09.07-.05v.03ZM31.65,25.42l-.09-.04h0s.04-.02.04-.02h0s.05.05.05.05ZM31.92,24.02h.02s.09-.04.09-.04v.04h-.11ZM34.22,23.21c.06-.04.13-.08.22-.11l.04-.02v-.05h0c.01-.05.04-.13.04-.23,0-.09-.05-.19-.12-.31.2.1.24.19.24.26l-.05.15-.04.06-.03.08v.05l.16.08v.22h-.01s0,0,0,0v-.04s-.12-.17-.33-.17c-.04,0-.08.01-.12.03ZM34.88,24.2l-.05.02v-.02l.05-.09v.1ZM34.93,24.03l-.05.02v.03l-.04-.07-.2-.03.13-.03h.06v-.23l.05.02v.12l.23.1h.02s-.2.07-.2.07ZM28.53,10.95l.11-.08.03-.02v-2.68l-.1-.08-.03-.03-.19.08-.05.02v2.71l.2.07h.04ZM30.44,26.78v.09s.01.07.01.07h5.18v-5.98h-5.16v.24h4.82v5.5h-4.86v.08ZM45.38,49.04h.02c.11,0,.21.03.3.1l.12.09v-.16s-.01-.46-.01-.46v-.09s-.09.02-.09.02c-.17.03-.33.05-.5.05h-.06c-.22,0-.45-.02-.67-.05h.01s-.11,0-.11,0h-.08s0,0,0,0h-1.28l.33.26v1.41l-.16.11-.2.14h1.08v-.51l-.05-.02-.02-.04-.02-.15c0-.26.08-.64.08-.78h0s0,0,0,0h0c0-.11.06-.22.16-.27l.07-.04v.77l.13-.18.11-.11.15-.07v1.17l-.16.09-.24.14h1.49l-.36-.24v-.29h0s0-.02,0-.02c-.06-.3-.08-.5-.08-.64,0-.14.02-.2.03-.23h0ZM33.79,36.98l.09.12c2.85-1.77,4.6-4.87,4.62-8.23v-.07c0-1.52-.4-3.02-1.17-4.34l-.14-.24v4.56h0c.02.25.03.5.03.75,0,2.85-1.24,5.58-3.43,7.45ZM34.36,41.48c.1.03.18.05.26.05.27,0,.43-.18.51-.39.08-.21.1-.47.1-.69,0-.2-.02-.37-.02-.42v-.13l-.11.06c-.61.35-1.25.65-1.91.9l-.16.06.15.08c.37.2.76.36,1.17.49ZM43.09,49.48c0-.46-.38-.84-.84-.84-.46,0-.84.37-.84.83h0s0,0,0,0c0,0,0,0,0,0h0v.03c0,.48.35.88.83.95h0s.01,0,.01,0c.48-.06.83-.47.83-.95v-.03ZM42.47,49.9c-.06.1-.14.15-.2.15-.05,0-.07-.02-.09-.12-.02-.1-.02-.25-.02-.42,0-.17,0-.32.02-.42.03-.1.04-.12.09-.12h.04c.05.02.11.06.15.13.07.1.11.25.11.41,0,.16-.04.3-.11.4ZM20.41,18.77v.08c0,.38-.08.75-.23,1.1l-.19.44.32-.36c.44-.49.92-.95,1.44-1.37l.03-.02v-.29l-1.36.35v.06ZM37.07,48.51l-.58.04h-.18s.3.28.3.28v.61c-.29-.31-.83-.9-.83-.9l-.02-.02h-.85l.38.26.17.2v1.01l-.18.31-.07.11h.32c.21.01.35.02.44.02l.16-.02.06-.11v-.15l-.19-.17v-.4c.29.29.84.84.84.84l.02.02h.3v-1.53l.17-.17.02-.02v-.2h-.27ZM33.47,48.87l.36-.31.16-.13h-1.04v.14c0,.07-.08.22-.18.36-.06.09-.11.17-.15.25l-.52-.73h-1.03l.37.27.17.2v.98l-.18.37-.05.11h.97v-.3l-.19-.18v-.3c.13.21.24.39.24.39l.05.09.52-.57v.53l-.16.12-.03.02v.24h.27s.56-.03.56-.03h.24s-.36-.23-.36-.23v-1.29ZM38.72,48.46h-.13s0,0,0,0c-.13,0-.25.01-.38.01s-.25,0-.38-.01h-.23s.34.26.34.26v.09l.19.14v1.08l-.14.06h0s-.2.16-.2.16l-.17.13h.4s.56.04.77.04c.24,0,.46-.1.62-.27h0s0,0,0,0c0,0,0,0,0,0h0c.21-.18.21-.44.21-.72v-.15c0-.22,0-.46-.22-.62-.2-.14-.44-.21-.68-.21ZM39.11,49.58c0,.31-.16.45-.3.46l-.13-.05v-.97l.26.02c.08.14.15.29.17.46v.09ZM41.37,50.08v-.04l-.21-.13-.14-.26c.18-.09.35-.24.35-.45,0-.15-.05-.32-.19-.45-.14-.13-.35-.22-.65-.22h-.1c-.34,0-.52.04-.62.08-.1.04-.13.12-.13.15v.04l.19.15v1.21l-.14.06-.05.02v.05l.04.1c.06.04.11.04.22.05.11,0,.29,0,.58,0h.42l-.38-.27-.16-.13v-.22h.04v.08l.02.02c.17.21.36.54.74.54h.09s.02,0,.02,0l.2-.12.04-.02v-.04h0v-.05l-.19-.09v-.03ZM40.65,49.33h-.23v-.37h.09l.14.09v.28ZM45.76,46.88h-.01s-.21,0-.21,0h-.26l.22.14c.15.1.26.25.33.42l-.1.04c-.92-.11-1.84-.17-2.76-.17.15-.3.17-.75.32-.94l.02-.02v-.33l-.04-.02c-.09-.04-.18-.06-.29-.06-.14,0-.29.02-.51.05h-.19s-.15,0-.15,0c-.11,0-.13-.02-.13-.03,0-.01-.02-.06-.02-.14.07-.25.27-.46.52-.54l.05-.02v-.25h-.28c-.44.1-.64.61-.64.84,0,.2.06.34.19.41.13.06.28.06.47.06h0l.19-.04h.3c-.03.35-.16.69-.36.98-.21,0-.68.06-1.03.07v-.61l-.05-.02c-.47-.2-.96-.37-1.46-.5l-.07-.02c-.57-.19-1.15-.31-1.75-.35h0c-.3-.04-.54-.05-.74-.05-.51,0-.73.12-.99.28l-.05.03-.03-.04-.06.06c-.4.4-.66.92-.72,1.48h0v.32l2.37-.06h7.9c.14-.02.23-.04.3-.07h0s0,0,0,0c.02-.01.05-.02.07-.03l.05-.13v-.02s.08-.2.08-.2c-.01-.28-.32-.46-.49-.52ZM36.74,46.67l-.11-.25.25-.12.26.24-.4.13ZM38.17,46.6l.05.1-.06.11-.14.05h-.19l.14.13.12.19-.07.04h-.04l-.17.31c-.24-.17-.45-.38-.63-.63h.03s0-.02,0-.02h0c.1-.08.15-.18.17-.29h.04s-.03-.04-.03-.04c0-.02.01-.03.01-.05,0-.06-.03-.12-.06-.18.33-.05.53-.1.87-.16l.07.1-.11.19-.11.05.09.08ZM40.28,47.5h-.02c-.18-.09-.48-.25-.6-.5h0s0,0,0,0l-.07-.24c0-.13.07-.25.17-.34.06.1.17.17.27.24l.19.14.06.08v.64ZM48.57,22.5l.62.12.15.03-.26-.51-.02-.03h-.04s-.58-.12-.58-.12l-.15-.03.26.51.02.03ZM10.56,12.68h-.27l-.21.3-.05.06.07.04.29.19.03.02.25-.07h.03s.21-.3.21-.3l.05-.07-.37-.17h-.01ZM10.51,12.96h-.05s.04-.04.04-.04l.05.02-.04.03ZM8.54,16.47h.16c.04.22.17.42.37.53h.02s.13,0,.13,0l.32.06h.03s.02,0,.02,0c.15-.09.21-.26.21-.39l-.07-.18-.02-.02h-.03l.08-.09.07-.08-.69-.31h-.02s-.58.13-.58.13l-.27.04-.23.03.5.26h.02ZM9.45,16.52h.04l-.04.04v-.04ZM8.91,12.87l-.03.06-.28.56-.04.08.67.18h.06s.33-.57.33-.57l.05-.08-.7-.2-.06-.02ZM9.06,13.2l.22.08-.09.15-.21-.08.09-.16ZM11.16,15.71l.03-.03.12.18c.07.05.16.08.27.08l.15-.02h.04s.07-.27.07-.27h.02-.02s0-.03,0-.03l.09-.06.21-.14h-.23c0-.18-.07-.35-.19-.49l.09-.13h0s.06-.36.06-.36l.04-.25-.36.38-.45.36-.02.02-.16.66-.02.09h.26ZM7.78,13.84h-.03s-.18.15-.18.15h-.02s-.11.35-.11.35l-.03.09.42.05h.03s.21-.15.21-.15l.02-.02.08-.33.02-.08h-.08s-.34-.05-.34-.05ZM7.8,14.19h-.06s.03-.07.03-.07h.07l-.04.07ZM10.21,18.37h0c.09.05.61.48.85.7h.01s.2.09.2.09l.06.03.19.16.03.03.45-.16.25.14.04.02.04-.02c.14-.08.22-.22.22-.37l-.03-.13.18-.14h0s.14-.17.14-.17l.02-.02v-.03s0-.18-.05-.38c-.05-.2-.14-.43-.36-.49l-.17-.05.27.47v.19s0,.01,0,.01l.03.1-.05.13-.1.04c-.08-.23-.18-.46-.3-.67l-.02-.04h-.4c.13-.06.24-.13.31-.21h0s.19-.17.19-.17l.03-.02v-.11h0s-.12-.34-.12-.34h0c-.04-.13-.1-.25-.17-.36l-.14-.22v.53h0s.02.12.02.12c0,.1-.07.19-.16.25l-.13.07-.3-.4h.01s.1-.29.1-.29l.02-.07-.26-.1-.06-.03-.19.39-.14-.06-.17.07-.21-.1-.2-.1.21.43.02.04.55.06.12.31v.02c-.04.13-.31.19-.54.18-.11,0-.21,0-.25,0h-.02l-.31.19-.05.03v.05c.05.18.17.32.34.39ZM11.04,18.09l.09-.03h0s0,0,0,0c.05-.03.24-.09.42-.16,0,0,0,0,.01,0l-.04.13-.09-.03h-.02s-.02,0-.02,0c-.19.01-.3.16-.29.31,0,.18.11.37.25.47h0s.17.14.17.14h-.06l-.08-.09h-.01s-.24-.1-.24-.1l-.17-.36v-.12h0s0-.02,0-.02v-.02s.07-.09.07-.09ZM15.29,48.36l.33.26.1.24v.99l-.09.24-.06.11-.06.11h.96v-.15h0s-.14-.42-.14-.42c-.01-.15-.02-.3-.02-.45s0-.3.02-.45l.11-.25.07-.11.07-.11h-1.3ZM18.04,49.77v-.71s.18.18.18.18l.13.13v-.99h-1.58l.18.22.03.13v1.2l-.07.11-.15.12-.16.13h1.82v-.87l-.24.27-.13.08ZM17.57,49.83v-.19h.1s.06.07.06.07l.07.13h-.24ZM17.67,49.19l-.16.03v-.03s0-.18,0-.18c0-.09,0-.16,0-.19l.35.05h0s-.21.31-.21.31ZM23.81,48.49v-.07h-1.61l.2.23.03.13v1.22l-.06.1-.16.13-.17.14h.22s1.59-.02,1.59-.02l-.04-.68v-.15s-.26.21-.26.21h0s-.11.08-.11.08v-.83l.28.3.13.14v-.38h0s-.04-.55-.04-.55ZM22.98,49.9v-.21h.11l.07.11.05.09h-.23ZM23.09,49.29h-.07v-.19c0-.1,0-.16.01-.19l.02-.02.28.04-.24.37ZM25.45,48.4h-.01c-.13.04-.26.06-.39.06h-.08s0,0,0,0h-.01c-.25,0-.5-.02-.75-.06h0s-.11,0-.11,0h-.08v.71l.31-.12.2-.04v.99l-.1.19-.09.11-.11.12h1.22l-.21-.26-.09-.15v-.13h0s0,0,0,0c-.04-.3-.05-.5-.05-.64,0-.14.01-.21.02-.24h0c.09,0,.18.03.25.1l.14.13.12.12v-.17s.02-.63.02-.63v-.08s-.19,0-.19,0h-.01ZM16.82,19.73c.23,0,.46-.2.53-.45l-.07-.02.07.02v-.09c0-.26-.22-.52-.47-.53-.19,0-.35.18-.37.54v.1c0,.14.02.24.08.32l.23.11ZM20.44,48.31c-.12,0-.24,0-.36.01h-.15s.25.3.25.3h0s.04.03.04.03c.04.16.07.33.07.49s-.02.35-.07.52c-.04.09-.07.14-.12.17-.06.03-.16.05-.33.05l-.12-.07c-.09-.21-.14-.43-.14-.65,0-.11.01-.22.03-.33l.11-.22h0s.06-.19.06-.19l.03-.1h-1.18l.29.29.03.16v.45c0,.47.14.76.32.93.18.17.38.22.52.22h0s0,0,0,0h.07c.19,0,.37-.06.53-.16l.16.11.03.02.42-.12.05-.02v-.14l-.14-.08v-.02s0-.11,0-.11v-.12h-.02c0-.07,0-.15,0-.23,0-.24.02-.48.05-.72l.07-.16.15-.18.1-.12h-.39c-.12,0-.24-.01-.36-.01ZM44.91,16.3l.04.04.24-.11h0s0,0,0,0c.13-.07.14-.2.13-.26v-.03s.02,0,.02,0h.07v-.32l-.06-.02-.17-.02c-.18,0-.36.08-.48.22l-.02.03v.04c.04.16.11.31.21.44ZM45.69,41.83l-.09.03v-.27s0-.05,0-.05l-.24-.08h0s0,0,0,0h-.11c-.5,0-.93.37-.99.88v.1c0,.5.37.93.88.99h.04s.02-.01.02-.01h0s.01,0,.01,0c.53,0,.96-.42.97-.95h0s0,0,0,0h0s.01-.14.01-.14c0-.22-.08-.43-.22-.61l-.04-.05-.24.17ZM47.08,14.39s-.03.07-.03.1c0,.11.07.19.15.24.09.05.2.07.31.07l.16-.02h.06v-.05s.2-.15.2-.35v-.03c.06.02.11.04.18.04.1,0,.22-.03.35-.12h0s.2-.24.2-.24l.47-.57-.75.6-.12-.06s-.09-.07-.16-.1v-.02h-.06c-.18-.06-.37-.08-.55-.08h-.24s-.01.01-.01.01h0c-.27.11-.49.32-.62.58l-.07.14.15-.04c.12-.03.24-.09.36-.13ZM11.79,12.22l-.18.3-.05.08.32.1.06.02.12-.28.02-.04-.17-.19-.07-.07-.05.09ZM47.62,21.63l.41.13.17.05-.28-.53-.02-.03h-.04s-.58-.12-.58-.12l-.26-.05.57.54h.01ZM46.01,20.78c.08.06.18.11.28.15.1.04.21.06.29.06l.12-.02.07-.1h0s0-.04,0-.04c0-.15-.1-.29-.24-.34l-.1-.04v.05c-.08-.03-.16-.06-.24-.06-.1,0-.2.02-.29.06l-.05.02v.05c0,.1.07.15.15.21ZM20.22,44.07l.13-.06v.18h.21l.21-.27.02-.02v-.16h-.27l-.16-.07-.06-.02-.12.17-.25-.1.24.3.04.05ZM20.39,43.97h0s0,0,0,0h0ZM24.19,23.82l.13-.14.06-.07-.15-.09-.07-.13-.06-.12-.13.19h-.16l-.08.15v.02s0,.02,0,.02l.03.11.1.05h.04s-.06.11-.06.11l-.16.32.5-.42h0ZM21.01,44.73v-.5h-.32l-.08.1-.1.12h.26v.05s-.04-.01-.04-.01h-.02s-.09,0-.09,0h-.08v.22l.34.12.05.02.03-.05.03-.05v-.02ZM48.06,14.61h-.03s-.06.02-.06.02v.06c-.01.08.03.21-.33.32l-.19.04-.19.04-.28.06.85.28.1.03v-.02h.02c.12,0,.2-.08.24-.17.04-.09.06-.2.06-.3l-.03-.22-.15-.13ZM20.17,44.21l-.07-.02v.02s0-.12,0-.12v-.04l-.26-.21-.02-.02h-.14l-.06.14h0v.05l-.04.06v.02s-.02.02-.02.02l-.02.15v.05s.23.14.23.14h0s-.25.16-.25.16l-.04.02v.14l.11.1.05.06h0s.14.14.14.14l.05.05.05-.06.04-.05h0s0,0,0,0l.06-.06.02-.02v-.2h-.15l.07-.07.03-.03.06.02.27.08.07.02.12-.34.03-.08-.35-.1ZM19.99,44.54v.03s-.13-.11-.13-.11l-.02-.02.1-.05.08-.04-.08-.11.06.02.08.03-.08.24ZM29.38,39.26l.13.09c.3.21.63.36.99.45l.09.02v-1.03l-.11.05c-.38.18-.57.25-.95.36l-.15.04ZM33.83,18.78l.38.06h0s.36.04.36.04l.09.07h.01s.6.14.6.14h0s.12,0,.12,0v.02l.25.05.2.04h.02s.21-.05.21-.05h.03s.01-.04.01-.04c.13-.28.36-.64.36-1,0-.16-.05-.32-.19-.45h0s0,0,0,0c-.47-.3-1.56-.47-2.94-.58-1.38-.11-3.04-.15-4.59-.15-2.41,0-4.57.09-5.04.16h0s0,0,0,0c-.47.15-.97.07-1.38.38h0s-.06.06-.06.06h0s-.05.06-.05.06l-.02.02v.04l-.02.02h-.02s-.05.15-.05.15h0s0,.02,0,.02v.07c0,.42.12.84.34,1.2l.03.04h.05c.18-.04.36-.09.53-.15h.15l.99-.19h.11c.18-.01.36-.04.54-.08.54-.06,1.1-.14,1.72-.19h5c.76.08,1.53.15,2.29.24ZM34.91,17.92l.62.3-.43.24h-.31l-.6-.54h.72ZM23.29,18.45h-.31l-.37-.24.63-.3h.74l-.68.54ZM26.03,18.11h-.34l-.36-.22.63-.32h.74l-.67.55ZM29.11,18.04l-.34-.1-.25-.31.63-.13h.01s.75.21.75.21l-.8.33ZM32.21,17.56l.62.32-.44.23h-.31l-.6-.55h.73ZM27.37,31.74v-.03s-1.49-2.17-1.49-2.17l-.22.1-.15.05h0s-.12.04-.12.04l-.1.03,1.92,2.84.15-.86ZM27.51,31.06v-.03s-.01-.02-.01-.02c-.07-.11-.12-.23-.12-.36.02-.16.13-.28.29-.31h0s.07-.05.07-.05l.02-.16c0-.23-.06-.67-.33-.84h0s0,0,0,0c-.16-.06-.33-.08-.5-.08-.28,0-.56.08-.8.23l-.07.04,1.4,2.01.07-.41ZM27.14,32.86v-.03s-2.04-3.05-2.04-3.05h-.43l-.22-.07-.21-.07,2.75,4.01.15-.79ZM26.95,33.93v-.03s-2.82-4.07-2.82-4.07l-.03.19-.11.79v.03s2.79,4.04,2.79,4.04l.17-.94ZM21.62,14.62v.05s.51.46.51.46h0s0,0,0,0c.38.26.82.39,1.27.39.32,0,.65-.07.95-.21h0c.4-.21.63-.63.63-1.06,0-.1-.01-.2-.04-.3h0s0-.01,0-.01c-.11-.23-.3-.61-.72-.65h0s0,0,0,0c-.2,0-.39.1-.51.26h0s0,.02,0,.02l-.02.15c0,.13.05.25.11.35-.13-.11-.27-.2-.39-.32h0s0,0,0,0c-.28-.18-.45-.5-.45-.82l.02-.19s.08-.04.18-.04c.37,0,1.1.24,1.22.39l.02.02h.21l-.08-.12c-.29-.44-.64-.92-.64-1.42,0-.15.03-.3.1-.46.65.04.87.45.96.92.04.24.05.49.05.7,0,.21,0,.36.05.46l.06.09.06-.08c.14-.19.17-.43.25-.62.08-.19.17-.32.47-.37h0s0,0,0,0l.14-.02c.19,0,.37.11.46.29h0c.1.2.15.41.15.62,0,.25-.09.49-.23.71,0-.09-.01-.18-.03-.27-.04-.18-.15-.36-.4-.42h0s-.07,0-.07,0c-.17,0-.34.1-.42.25h0s0,0,0,0c0,0,0,0,0,0h0c-.09.13-.13.28-.13.42,0,.31.18.59.34.82h0s0,.01,0,.01c.37.33.84.51,1.32.51.11,0,.23,0,.34-.03h0s0,0,0,0c.59-.18,1.34-.68,1.45-1.33v-.02s-.09-.34-.09-.34c.11.12.26.2.43.23h.1c.27,0,.5-.14.64-.36l-.2.43v.03s0,.03,0,.03c.27.68.87,1.17,1.58,1.31.1.02.21.03.32.03.41,0,.8-.16,1.09-.45.3-.17.48-.48.48-.81,0-.12-.02-.24-.07-.35h0s-.2-.3-.2-.3l-.02-.02h-.03c-.1-.03-.19-.05-.27-.05-.12,0-.22.03-.3.09-.07.06-.11.15-.11.24,0,.07-.04.17-.06.29-.14-.22-.24-.46-.24-.72,0-.14.02-.28.07-.41h0s0-.01,0-.01c.03-.19.16-.35.33-.42h.13c.29,0,.56.12.75.34l.18.47.03.07.07-.03.09-.15c.04-.2.02-.59.14-.96.11-.35.33-.67.82-.81v.03h0s0,0,0,0l.02.26c0,.55-.21,1.09-.58,1.5l-.12.13h.39l.02-.02c.16-.13.57-.2.91-.2.15,0,.29.01.39.03l.1.03h0c0,.5-.41.89-.89,1.24,0,0,0,0,0,0,.06-.11.13-.23.13-.37l-.07-.21-.02-.02-.6-.1h-.02s-.02,0-.02,0c-.38.2-.62.59-.62,1.02v.03c.01.41.25.77.62.94h0s0,0,0,0c0,0,0,0,0,0h0c.3.14.62.22.94.22.29,0,.58-.06.85-.18h0s0,0,0,0c0,0,0,0,0,0h0c.44-.13.8-.44,1-.86h0s.19-.29.19-.29l.06-.09-.3-.06h-.02s-.02,0-.02,0c-.44.12-.84.32-1.21.58.21-.81.48-1.59.82-2.35.06.26.17.51.35.72h0c.06.19.22.34.43.37h.03s.02-.01.02-.01c.13-.09.16-.25.16-.41,0-.44-.26-1.06-.32-1.18.11-.25.18-.53.19-.81,0-.15-.11-.31-.25-.49-.15-.17-.34-.35-.55-.48h0c-.24-.13-.5-.19-.77-.19-.22,0-.44.04-.64.13h0c-.44.17-.84.23-1.13.23-.17,0-.31-.02-.39-.06l-.11-.1v-.04l-.04-.02h0s.13.02.13.02c.16.03.33.05.49.05.37,0,.74-.08,1.08-.23l.13-.06-.12-.07c-.16-.09-.57-.67-1.19-.67h-.01c-.47.09-.93.22-1.37.41h0c-.64.35-1.36.53-2.08.54h-.27v.97h.44c-.44.35-.73.86-.77,1.43v.05s.05.02.05.02l.22.04c.29,0,.55-.2.78-.41.18-.17.34-.33.48-.45v2.69c-.38-.48-.86-.85-1.43-1.09l-.06-.03c.03-.07.06-.14.07-.22v-.1c0-.36-.25-.67-.61-.73h-.02s-.02-.03-.02-.03h-.02c-.42.01-.76.32-.81.74h0s0,0,0,0c0,0,0,0,0,0h0v.02c0,.13.04.25.1.36h-.02c-.59.21-1.08.61-1.43,1.12v-2.63c.25.26.82.79,1.39.79h.07v-.52c-.23-.41-.55-.76-.92-1.03h.36v-1h-.26c-.72-.03-1.43-.21-2.07-.53h0c-.42-.19-.87-.33-1.33-.41h0s0,0,0,0c-.49,0-.94.27-1.17.7l-.04.07.07.03c.31.15.65.23.99.23.16,0,.31-.02.46-.05l.13-.03-.14-.16h0s0-.01,0-.01c-.13-.08-.23-.17-.35-.27.14.03.28.07.4.14.16.09.2.18.2.25l-.02.08h0c-.05.12-.24.23-.58.23-.3,0-.69-.08-1.17-.26h0c-.2-.09-.41-.13-.62-.13-.23,0-.46.05-.68.16h0s0,0,0,0c-.31.2-.56.47-.74.79v.02s0,.02,0,.02c.07.51.17.9.19.95-.03.1-.22.83-.22,1.27,0,.12.01.22.06.3l.03.05.06-.02c.55-.21.7-.69.86-1.07.34.73.56,1.51.66,2.3-.47-.36-.76-.51-1.02-.51l-.19.02-.09.02.04.08.12.27-.03.1ZM33.66,9.68c.15-.1.32-.15.5-.17-.12.1-.28.22-.38.29l-.19.06-.15.05s.1-.15.22-.23ZM26.51,35.45h.05s.06-.09.06-.09l-.05-.08-.04-.02.05-.11.08-.04.07-.04-2.8-4.06-.02.2c-.02.17-.03.35-.03.52,0,.35.03.69.1,1.03v.06h.04c.33,1.3,1.21,2.35,2.02,2.54.26.06.39.08.45.08ZM22.3,16.71c.2-.13.49-.23.54-.53v-.04s-.03-.03-.03-.03c-.28-.22-.7-.21-.97-.32l-.25-.1.2.27.4.73.04.07.07-.04ZM33.01,16.69h0s.1.01.1.01c.23,0,.55-.18.56-.48h0s.07-.19.07-.19c-.01-.29-.33-.47-.51-.52h0s-.58-.09-.58-.09h0s-.17-.02-.17-.02c-.32,0-.51.21-.67.46v.02s-.01.02-.01.02c0,.36.28.65.63.68h0s.58.12.58.12ZM32.3,15.9h0s.21-.12.36-.11h.11s.01.03.01.03l.02.02h.03c.18.03.31.07.38.12l.09.16-.09.08-.25.04-.15-.02h0s0,0,0,0c-.37-.05-.53-.26-.52-.32ZM27.98,15.55l1.19.99,1.51-.98-.09-.06-1.42-1.04-1.19,1.09ZM29.79,15.55l-.45.32-.46-.37.45-.32.46.37ZM26.46,15.97v-.06s0,0,0,0h0c-.08-.3-.35-.49-.64-.49l-.17.02h0s-.5.11-.5.11l-.18.04h0s0,0,0,0c-.24.09-.38.32-.38.56l.04.22c.09.23.32.38.56.38l.21-.04h0s.5-.09.5-.09h0c.33-.05.57-.33.57-.66ZM25.56,16.25l-.21.03c-.17,0-.27-.06-.28-.13v-.02c-.01-.07.14-.21.37-.27l.03.03h.04s.23-.03.23-.03c.15,0,.21.04.22.09v.02c.02.07-.15.22-.41.28ZM26.91,39.56l-.2.31-.03.04.16.25.06.09.06-.09.15-.21.03-.04-.18-.26-.06-.09ZM29.17,48.32l-.44.42-.06.05.45.42.05.05.05-.05.38-.37.06-.05-.44-.42-.05-.05ZM15.15,49.31h.07s-.02-.16-.02-.16h0c-.01-.23-.12-.45-.29-.61h0c-.19-.15-.42-.22-.65-.22h-.08c-.14.01-.28.02-.43.02s-.28,0-.43-.01l-.24-.02.36.28.08.1.05.09c.01.17.02.33.02.5s0,.34-.02.51h0v.14l-.04.07-.2.13-.21.14h.51c.13.01.25.02.38.02s.25,0,.38-.02h0s.02,0,.02,0c.22,0,.43-.1.57-.26.15-.18.23-.4.23-.63v-.07s-.08,0-.08,0ZM14.37,49.89l-.18-.05v-.11s0-.16,0-.16h0v-.7h.22c.13.12.21.29.21.47h0v.11h0s0,0,0,0v.05c0,.17-.1.32-.25.39ZM24.56,36.56h.01c.58.22,1.1.59,1.5,1.06h0s.01.02.01.02c.91.51,1.87.91,2.87,1.21l.1.03v-8.38l.04.02v8.33l.09-.02c1.91-.49,3.65-1.48,5.04-2.88l.02-.02v-.36l-.43-.18-.05-.02-.03.05c-.08.11-.2.18-.34.21h-.01c-.14.01-.32-.19-.55-.2h-.08v.22l.38.19v.27l-.16.14-.18.13-.19.05h-.01s-.17.11-.17.11l-.11-.04v-.11l.07.05.03.02.22-.06h0s.21-.12.21-.12l.04-.02v-.19l-.24-.09-.18-.15h0s-.2-.11-.2-.11l-.05-.02-.42.39-.2.19-.05.05.21.28-.15.24-.14-.03-.09-.02v.12l-.1-.03h-.04s-.12.1-.12.1l-.22-.09h-.01s.02-.02.02-.02l.04-.02v-.2l-.28.08h-.15l-.17-.14h0s-.19-.13-.19-.13h0s-.15-.08-.15-.08v-.11l-.2-.14v-.08s0-.04,0-.04l-.19-.15v-.11l-.19-.09v-.09h.12s.07,0,.07,0v-.17l.09.06.11.07v-.14l.05.02v.35s0,.02,0,.02l.2.41v.02s.21.16.21.16h.01s.21.07.21.07l.1.03v-.02l.08.05.11.07v-1.06l-.13-.1.08-.06.08-.06v.73h.34v-.5l-.22-.15-.12-.08.12-.08.15-.11.17.07h.01s.13,0,.13,0v.33s0,.06,0,.06l.05.02.24.03c.14,0,.27-.03.4-.1h0c.18-.08.74-.2.95-.26.19-.04.32-.05.43-.06l.13-.04.05-.09h0s.2-.26.2-.26l.04-.06-.25-.22h-.01s.02-.02.02-.02l.09.03h0s0,0,0,0c.18.08.19.13.19.18,0,.06-.04.13-.05.23.01.07-.15.21-.33.26-.12.03-.24.05-.37.06h-.07v.07l.02.05.07.04.13.02c.13,0,.34-.04.64-.19h0s.09-.03.09-.03v.05s0,.05,0,.05l.21.07v.43l.13-.15c1.5-1.67,2.32-3.83,2.32-6.06,0-.12,0-.24,0-.36v-1h-7.66v2.22h-.04v-2.22h-7.68v1c0,.13,0,.25,0,.38,0,2.65,1.16,5.18,3.18,6.91h.01ZM30.14,36.9h.15l.2.09h.01s.21,0,.21,0h.02l.1-.06v.11l-.13.07-.16-.05-.1-.03v.07l-.29-.06h-.02s-.11.04-.11.04v-.1s0-.04,0-.04l-.05-.04h.17ZM30.25,34.09h-.04s.04-.03.04-.03v.03ZM30.63,35.28v.09l-.03-.02v-.19h.03v.12ZM31.04,35.07h-.24s.14-.08.14-.08l.1.02v.02s0,.05,0,.05ZM32.27,34.55h0s-.03,0-.03,0c-.16,0-.32.04-.47.08,0-.09.03-.11.08-.13.05-.02.14-.02.24-.02h.4l.6-.27h.01s.03-.04.03-.04l-.04.09-.06.06-.02.02-.03.02v.08h-.12s-.08,0-.08,0v.15h-.12s-.08,0-.08,0v.11l-.04.03v-.18h-.27ZM32.02,35.25s-.02-.02-.03-.03c.03.01.06.04.09.04h-.06ZM32.82,34.99c-.2.1-.3.16-.37.2l-.19.08h-.07s-.1-.01-.1-.01h0c.36-.07.7-.23.98-.47.17-.08.31-.17.41-.22-.23.13-.46.27-.67.42ZM33.94,33.31h-.18l-.21.19-.17.07-.18.04h-.01s-.2.11-.2.11l-.04.02-.04-.02v-.04l.07-.03.03.02.23-.07h0s.19-.08.19-.08l.05-.02v-.27l-.21-.21h0s-.2-.15-.2-.15l-.03-.02-.04.02c-.18.08-.58.25-.76.31h-.01s-.2.17-.2.17l-.05.04.19.3-.3.23-.16-.05h-.03s-.11.05-.11.05v-.06l-.38.18v-.25l-.3.24-.29.03v-.05h-.17l.05-.02h-.65v-.15l-.08-.08h.28v-.14l.06.06.19.2.02.02h.42l.4-.1h.06v-.2h-.64l-.33-.17v-.13l-.19-.1v-.09s0-.03,0-.03l-.2-.17v-.23s0-.04,0-.04l-.15-.1.04-.05-.14-.11h.04s.18-.01.18-.01h.12v.08l.19-.18v.73l.22.2h.01s.2.09.2.09h.02s.18-.03.18-.03l.14.1v.21l.32-.4.04-.05-.21-.26v-.16l.02.02.16.07h.01s0,.1,0,.1v.18l.32-.32.19-.16.16-.13h-.32v-.12h.19v-.2h0s.14.05.14.05h.01s.13,0,.13,0v.02l-.16.11-.08.06.27.22h0s.01.01.01.01c.1.04.21.06.31.06.1,0,.2-.02.3-.06h0c.11-.01.24-.03.38-.04l.68.39.32.21-.12.17ZM32.78,33.5l.03-.02.12.11-.15-.09ZM29.74,32.09h.04s.13.07.13.07v.07s0,.04,0,.04l-.17-.18ZM31.24,32.28h0s-.01.02-.01.02h.03l.06.05-.07.04h0s0,0,0,0l-.19.16-.02.02v-.46l.21.17ZM31.03,31.98h0s.04,0,.04,0h-.04ZM31.64,31.96v.04s0,.02,0,.02h-.01s-.19.14-.19.14l-.07.05v-.18h-.07s-.08-.02-.08-.02v-.09l.23-.06v.04l.19.05ZM31.43,32.3l-.06.03v-.03h.06ZM32.95,30.95v-.13s.27.16.27.16h-.03v.11h-.04s0-.03,0-.03l-.19-.11ZM33.07,31.55l.38.05h.01s.78-.19.78-.19h0s.28-.14.28-.14c-.1.11-.21.21-.34.29l-.18.09h0s-.17.11-.17.11h-.19s-.08,0-.08,0v.06h-.04s0,.01,0,.01v-.17h-.26c-.19-.03-.34-.05-.44-.05h-.13s-.03.05-.03.05h0c-.13.03-.18.16-.18.27l.1.25s.06.05.1.06c-.02-.01-.05-.02-.07-.04-.11-.08-.17-.19-.17-.29,0-.08.03-.16.13-.25l.02-.02v-.03l.02-.02c.08-.05.33-.06.48-.06ZM34.87,31.8s.05.01.07.02c-.17.03-.34.07-.51.11.16-.07.3-.13.44-.12ZM33.58,32.2c-.16.09-.33.15-.51.17h-.02c-.13,0-.24-.03-.34-.08.05.02.1.03.16.03h0c.24-.02.47-.06.71-.12ZM35.63,33.27l-.14.04h0s-.08.06-.08.06v-.13l-.25.17.03-.04.02-.02v-.31l-.04-.17c-.04-.07-.12-.1-.23-.09h-.03c-.24.09-.48.14-.74.15-.14,0-.33-.18-.55-.26h0s0,0,0,0c0,0-.01,0-.02,0l-.48-.15c.31-.02.65-.04.91-.07l.24-.02c.11,0,.2.01.29.01l.26-.05c.09-.05.18-.07.26-.1,0,0,0,0,0,0h0s-.1.13-.1.13c-.08.04-.22.08-.4.08h-.01s-.16.02-.16.02l-.16-.02-.04.14s0,0,.01,0h0s.01,0,.01,0c.15.05.31.08.46.08.16,0,.33-.03.49-.08l.09-.03v.1s0,.05,0,.05l.15.06v.13s0,.03,0,.03l.19.18v.12ZM35.07,31.85s.04,0,.06.01l.07.13-.12-.14ZM32.69,28.86c.15-.1.32-.15.49-.15l.21.03h0c.12.07.26.11.4.12h.09c.24,0,.48-.04.71-.14h0s.28-.13.28-.13v.06c-.09.1-.14.18-.18.22l-.14.05h-.08v.09l-.1-.03h-.03s-.2.11-.2.11h-.17s0,0,0,0h-.14s.03-.01.03-.01l.03-.02v-.19h-.46c-.26-.03-.32-.06-.44-.06l-.16.03c-.12.04-.17.16-.17.28,0,.1.04.22.14.31.1.09.24.14.44.14h.09c.19,0,.37-.02.56-.05-.21.08-.44.13-.67.13-.39-.01-.67-.3-.66-.54,0-.09.04-.18.13-.25ZM31.41,28.99l.23-.05v.04l.2.08v.09h.03s-.2.13-.2.13l-.16.09-.06-.05.1-.05.17-.09-.31-.09v-.11ZM31.03,29.11l.13-.11.11.05h-.02s0,.09,0,.09v.28l.19-.1v.08h-.01s.01,0,.01,0v.09h-.12s-.08,0-.08,0v.14h-.03v-.21l-.19-.21v-.11ZM29.78,28.98l.14.11v.1h0s-.18-.2-.18-.2h.04ZM29.49,29.22l.12-.04.17.05.15.05v.09l.07-.07.05.02-.03-.04.11-.11v.06l-.18.22-.03.03.21.48h0c0,.11.06.19.12.22l.11.05h0s.19.09.19.09h.02s.18,0,.18,0l.15.11v.23l.33-.42.03-.04-.19-.27.15-.15.02-.02v-.06l.02.08.09.05h.04s-.1.1-.1.1l-.1.12h.38l.21-.23.02-.02v-.26l-.21-.18h.41v-.19h0s.09.04.09.04h0s.14.06.14.06v.04l-.16.13-.07.06.26.22h0s.02.03.02.03c.07.04.17.05.28.06.11,0,.24,0,.32,0h0c.12-.01.29-.02.47-.02.37,0,.8.02,1.05.02.24,0,.41.04.56.04l.23-.05.26-.1c.08-.03.17-.09.17-.2v-.03l-.21-.27-.02-.03h-.04c-.24.02-.49.05-.73.1.24-.06.48-.14.69-.14.12,0,.24.03.36.1.09.11.13.21.12.27l-.11.16h0s0,0,0,0c-.19.14-.42.22-.65.22h-.07s0,0,0,0h0s-.17.01-.17.01h-.17s0-.01,0-.01c0,0,0,0-.01,0v.15s0,0,0,0c0,0,.17.06.43.06.13,0,.3-.02.51-.06h.11v.12s0,.05,0,.05l.2.1v.18l.21.21.11.11-.26.07h-.01s-.09.07-.09.07h0v-.12l-.24.09.03-.03.02-.02v-.3l-.03-.21c-.04-.08-.13-.12-.23-.11h-.02c-.22.07-.45.1-.68.1h-.05c-.15-.03-.34-.25-.56-.34l-.1-.04v.26l.38.32v.17h-.13l-.4.16-.18.07h-.32l.16-.05h0s.19-.08.19-.08h0s.2-.09.2-.09l.16-.08-.36-.13-.18-.23h0s-.2-.17-.2-.17l-.03-.02h-.04c-.26.09-.52.18-.77.28h-.01s-.2.17-.2.17l-.03.02v.34l-.32.22-.16-.06h-.03s-.11.05-.11.05v-.06l-.38.13v-.03l-.23-.14-.04-.02-.22.14h-.15l-.18-.07-.1-.04v.09l-.12.03-.14-.03.17-.08-.39-.12h-.01s-.08,0-.08,0l.1-.05.13-.06-.13-.08h.05s0-.2,0-.2l.25.12c.01.13.1.24.23.27h0c.17.07.23.08.37.08h0s.04,0,.04,0h0c.15-.04.21-.06.23-.06l.19-.06.46-.15h-.87l-.35-.06-.17-.19h0s-.17-.15-.17-.15v-.12l-.22-.17-.17-.19v-.43s0-.04,0-.04l-.19-.13v-.08ZM23.56,33.89c-.45-.86-.75-1.8-.89-2.76v-.02s-.28-.34-.28-.34l.13-.38.15-.02c.08,0,.19,0,.32-.04.19-.06.75-.2.75-.82,0-.08,0-.16-.03-.25-.01-.08-.04-.14-.06-.2v-.02s0,0,0,0c-.09-.23-.23-.33-.38-.33-.2,0-.37.16-.38.32,0,.2.11.45.36.46h.06s.09-.03.12-.04c0,.04-.02.07-.03.11-.04.13-.12.23-.17.22-.15,0-.17-.02-.24-.02l-.12.03-.18.19-.19.11h-.06c-.12-.03-.2-.07-.26-.11l.1-.03c.09-.06.17-.12.21-.21.04-.09.05-.2.05-.39h0s0-.09,0-.09c0-.38.31-.68.69-.68h.01s.13,0,.13,0c.18,0,.36.05.52.14.12.07.18.19.27.32.08.13.19.26.4.3.15.04.29.05.41.05.62,0,.88-.39,1.54-.54h0s0,0,0,0c.13-.05.26-.08.4-.08h0s.04,0,.04,0c.65,0,1.19.52,1.21,1.17h0s0,0,0,0v.2s0,.16,0,.16l.07.12h0s.07.08.07.08c.06.08.09.17.09.26,0,.12-.05.24-.16.32l-.02.02v.03s-.19,1.92-.19,2.76v.11c0,.16,0,.32,0,.48,0,.62-.03,1.25-.08,1.87-.02.03-.16.16-.31.29-.16.14-.33.29-.43.37l-.05.04h-.01s-.07-.14-.24-.2h0c-.31-.11-.63-.18-.95-.22h0s0,0,0,0c0,0,0,0,0,0h0s-.14-.01-.14-.01h-.01s.32-.4.32-.4l.03-.03-.13-.35v-.02s-.02-.01-.02-.01l-.22-.18h0s-.01-.01-.01-.01c-.88-.34-1.64-.94-2.18-1.71ZM19.5,47.93c1.05.02,2.27.06,3.21.06h.09l-.07-.32c-.16-.72-.26-1.3-.62-1.53h-.02s-.08-.01-.08-.01h-.04l.02-.03-.08-.03c-.36-.15-.74-.22-1.12-.22-.22,0-.43.03-.65.07h0c-.52.05-1.03.16-1.52.33v-.03s-.13.05-.13.05c-.37.13-.78.31-1.24.52l-.04.02v.04c-.05.28-.06.39-.06.51h-1.01c-.07-.23-.28-.74-.34-.98h.27l.22.04h0s.18.01.18.01c.29,0,.55-.12.6-.46h0s0-.03,0-.03c0-.15-.11-.32-.25-.47-.14-.15-.32-.29-.5-.35h-.01s-.32,0-.32,0h-.42l.6.22c.24.09.43.28.53.52-.01.08-.03.13-.04.14-.01.02-.05.03-.16.03h-.22s0-.01,0-.01h-.2c-.12-.04-.23-.07-.33-.07-.1,0-.19.02-.25.09h0s-.12.29-.12.29v.02s0,.02,0,.02c.03.23.1.59.15.86-.98.03-1.95.11-2.92.26l-.03-.06v-.09c0-.15.05-.29.17-.39l.15-.13h-.33c-.06.04-.18.13-.3.25-.11.12-.23.27-.23.44v.07s0,0,0,0h0c.05.15.21.27.44.28h0s.01,0,.02,0c0,0,0,0,0,0h0c.08.01.32.02.72.02,1.26.02,3.95.02,6.29.05ZM21.26,46.38l.26.12h.02s-.01.01-.01.01l-.13.26-.28-.13.14-.27ZM19.91,46.18l.93.16-.02.05h0s0,.01,0,.01l-.02.12c0,.17.11.3.25.39-.22.22-.43.41-.66.63l-.1-.25v-.03s-.18-.07-.18-.07l.03-.23v-.05s-.22-.14-.22-.14v-.03s.08-.12.08-.12l.2-.08-.2-.06c-.11-.04-.15-.11-.15-.18l.07-.11ZM17.93,46.96c.04-.06.17-.15.31-.24.12-.09.24-.18.31-.3.11.11.17.25.17.4l-.06.24c-.19.24-.45.41-.73.52v-.62ZM30.15,46.4l.14-.02-.26-.29c0-.1.04-.2.08-.28.04-.09.1-.16.1-.26v-2.65l-.05-.02c-.58-.25-1.35-.56-2-.86l-.1-.05v.11c-.05,1.08-.08,1.76-.08,2.51,0,.29,0,.59.02.92v.04s.03.02.03.02c.14.1.23.27.23.45v.07s-.11.2-.11.2l-.05.09.61.1v.41l-.35.14h-.01s-.01.02-.01.02c-.11.11-.17.26-.17.41l.03.19h0s0,0,0,0c.09.17.26.29.45.31h.06c.24,0,.39-.17.47-.37.02.05.05.11.08.15.11.13.28.22.49.22h.07v-.04s.21-.11.36-.25l.03-.02v-.03c0-.17.02-.48-.24-.59l-.34-.14v-.41l.52-.08ZM29.47,43.73c-.02.12-.13.21-.25.21h-.02c-.15-.06-.24-.19-.29-.33l.21.22.05.06.25-.27.05-.05-.24-.26-.06-.06-.06.06-.19.21-.03.03s-.03-.06-.03-.09c.16-.19.32-.32.43-.31h.05c.06.03.09.07.11.16.02.09.02.21.02.34v.08ZM31.29,43l2.94-1.32-.18-.06c-1.15-.4-6.03-2.6-6.99-3.02h0s0,0,0,0c-.72-.16-1.42-.4-2.08-.71l-.08-.04-.03.08c-.06.17-.14.36-.2.54l-.02.07.21.08h.02s.04,0,.04,0v.27h.02s.01.07.01.07c0,.12-.03.24-.09.35l-.38.36-.04.04-.04-.05h0s-.29-.17-.29-.17l-.06-.03-.11.15-.25.22-.08.07.09.05c.54.3,1.11.55,1.7.75.52.19,2.05.79,2.29.9l.03-.07-.03.07c.43.19,2.8,1.14,3.58,1.42h.03ZM25.5,38.99c0,.16-.03.31-.09.45h0s0,0,0,0c-.06.18-.19.32-.36.4h0s0,0,0,0c-.09.05-.19.07-.29.07l-.13-.02-.07-.09.04.03.03.02.36-.04h.03s.3-.35.3-.35h.01s.1-.44.1-.44h0v-.21l-.28-.21-.04-.03-.05.03v-.04s.16-.05.16-.05c.13.03.23.12.3.24v.22ZM27.22,39.94c-.06.2-.21.33-.32.33h-.06s0-.01,0-.01c-.14-.05-.24-.18-.24-.33l.02-.11h0s0-.01,0-.01c.03-.18.18-.31.36-.31h.02c.14.05.24.19.24.34v.1ZM31.36,41.89v-.33c.13.09.22.22.23.38-.08.1-.15.18-.23.23v-.28ZM29.11,41.17l.04.05s-.06.05-.09.05h-.04c-.08-.07-.14-.16-.16-.26v-.1c-.01-.2.12-.37.32-.42l.05.03-.3.32-.04.05.23.29ZM29.3,40.92l-.02.02v.03c0,.05-.03.08-.04.12v-.56h.01s.1.22.1.22l-.06.17ZM31.12,42.25l-.12-.06-.09-.2.06-.17.02-.02v-.03c0-.19.12-.3.24-.3h.05s.04.04.06.06l-.29.31-.05.05.24.27.05.05s-.08.05-.11.05h-.05ZM21.81,9.92c.24-.14.52-.21.8-.21.14,0,.28.02.42.06l.06.02.03-.05c.25-.48.75-.79,1.29-.79h.04c.48.08.94.22,1.38.41.62.28,1.28.43,1.95.47h0s.21,0,.21,0h.07v-.9h-.06c-.33-.08-.65-.17-.97-.29h0c-.32-.09-.68-.22-1.14-.35h.05l-.58-.15c-.69-.17-1.29-.26-1.81-.26-.84,0-1.48.22-1.91.67h0s0,0,0,0c-.35.46-.54,1.03-.54,1.61v.22s.02.19.02.19l.12-.15c.16-.2.35-.37.57-.5ZM23.51,40.35c-.15-.09-.15-.13-.15-.15,0-.12.21-.34.53-.64h0s.06-.06.06-.06l.06-.06-.45-.37-.05-.05-.22.24h0c-.27.26-.51.55-.7.88v.02s-.01.02-.01.02l.07.13s.11.11.21.18l.12.08v-.06c.41.24.88.38,1.35.38h.19s.42-.04.42-.04l-.41-.12c-.56-.16-.87-.29-1.02-.39ZM24.48,38.49l.07.04.03-.08c.13-.31.23-.63.3-.96l.06-.09h.02c.08,0,.35.07,1.07.47l.37.2-.27-.32c-.42-.49-.96-.88-1.56-1.11h-.01s-.01,0-.01,0l-.16.09c-.1.15-.13.41-.18.68h0c-.03.28-.09.55-.17.81l-.02.07.32.11.15.09ZM23.65,38.94l.39.39h0s.1.06.1.06l.05.04h0s.2.12.2.12l.05.03.38-.34.03-.02v-.49l-.19-.1h-.02s-.08,0-.08,0l-.25-.11c-.42-.18-.96-.37-1.38-.59l-.32-.17.22.28c.2.26.42.52.66.76l.15.15Z"/></svg>