<?xml version="1.0" encoding="UTF-8"?><svg id="Layer_1" xmlns="http://www.w3.org/2000/svg" viewBox="0 0 166.21 43.91"><defs><style>.cls-1{fill:#fff;stroke-width:0px;}</style></defs><path class="cls-1" d="M114.46,21.26l-.18-.11c4.6-2.42,7.18-3.89,7.18-9.72,0-3.47-1.18-6.19-4.53-8.01-2.06-1.18-5.84-1.59-10.42-1.59-2.06,0-5.6.18-7.48.18-4.23,0-6.89-.18-7.83-.18-.35,0-.47.11-.47.41v1.47c0,.3.12.42.47.42h1.83c2.71,0,3.65.11,3.83,3.52.06,1.06.18,8.25.18,10.42v6.96c0,4.83-.12,12.61-.3,13.96-.23,1.88-.53,2.59-2.35,2.59h-1.65c-1.65,0-3-.11-4.23-1-1.11-.82-4.88-6.18-5.18-6.77-.47-.76-4.65-6.77-5.36-7.53-.66-1-1.6-1.78-2.71-2.24v-.12c7.5-1.65,10.88-4.41,10.88-11.78-.12-2.55-1.22-4.95-3.06-6.72-2.24-2.11-6.12-3.59-11.02-3.59-1.06,0-6.54.18-9.87.18-4.93,0-6.77-.18-7.3-.18-.3,0-.35.11-.35.41v1.47c0,.23.06.42.35.42h2.35c1.47,0,2.18,1,2.24,2.94.06,1.71.06,5.48.06,9.87v5.72c0,5.59,0,11.13-.11,16.96,0,1.59-1,2-2.3,2h-2.39c-.3,0-.3.18-.3.47v1.36c0,.29,0,.47.47.47.65,0,2-.18,7.36-.18s7.05.18,7.71.18.65-.11.65-.53v-1.32c0-.29-.06-.47-.47-.47h-3.71c-.88,0-1.35-1.06-1.47-2.29-.06-.89-.12-7.48-.12-10.96v-3.3c.64-.13,1.29-.19,1.95-.18,3.42,0,4.83,1.59,6.34,3.42.7.82,3.52,5.07,3.77,5.48s3.5,6.08,3.96,6.79c.75,1.17,1.57,2.3,2.47,3.35.89-.06,3.07-.18,4.77-.18,1.26,0,2.27.04,3.03.08.23.08.47.11.7.09h.88c.06,0,.11,0,.17,0,1.57-.04,4.19-.16,6.48-.16,2.47,0,4.77.18,8.84.18,5.42,0,8.77-.58,11.28-2.11,2.71-1.71,4.54-5.84,4.54-8.84-.05-6.28-3.88-9.81-9.59-11.7ZM67.52,22.97c-.89.02-1.78-.06-2.65-.24V6.06c-.07-.7.19-1.4.7-1.88.61-.34,1.3-.5,2-.47,4.88,0,7.48.88,9.78,2.71,1.89,1.72,2.96,4.16,2.95,6.72,0,2.47-2.06,9.84-12.78,9.84ZM102.21,16.02c0-4.89.06-10.01.11-11.19,0-.51.36-.96.86-1.06.65-.08,1.3-.1,1.95-.06,3,0,5.95.53,8.07,2,1.92,1.46,3,3.78,2.88,6.19.1,2.74-1.13,5.37-3.3,7.05-1.41,1.01-4.06,1.54-7.42,1.54-1.04.02-2.08-.02-3.12-.12l-.04-4.34ZM108.39,41.99c-4.89,0-6.18-2.42-6.18-7.83v-11.78h1.88c2.71,0,5.48.06,7.89,1,3.47,1.35,5.88,4.48,5.88,9.25,0,7.01-4.53,9.37-9.48,9.37Z"/><path class="cls-1" d="M165.76,41.57h-1.96c-1.74-.01-3.32-1.05-4.01-2.65-.82-1.71-4.65-12.69-6-17.25-1.12-3.77-5.72-16.96-6.83-20.67-.18-.65-.3-1-.65-1s-.47.23-.77.53c-1.37,1.36-3.05,2.37-4.89,2.95-.41.11-.53.35-.53.53.07.29.21.55.42.76.41.65.11,1.41-.06,2.01-.53,1.59-5.3,14.25-5.71,15.43-1.71,4.83-6.01,15.72-6.42,16.67-.82,1.88-1.65,2.71-3.42,2.71h-2c-.23-.03-.44.13-.47.36,0,.02,0,.04,0,.06v1.41c0,.35.12.47.41.47.82,0,2.11-.18,6.42-.18,3.47,0,5.89.18,6.72.18.3,0,.47-.11.47-.53v-1.35c0-.3-.18-.42-.59-.42h-2.8c-1.29,0-2-.47-2-1.29,0-.3.12-.89.18-1.3.3-1.24,3.52-10.19,4.12-11.66h14.49c.82,2.35,3.24,9.87,3.71,12.02.41,1.65-.12,2.23-1.77,2.23h-1.47c-.35,0-.53.06-.53.42v1.36c0,.35.18.53.47.53,1.35,0,3.41-.18,8.3-.18s6,.18,7.05.18c.41,0,.58-.11.58-.41v-1.48c.02-.23-.09-.42-.45-.42ZM136.16,25.2c.41-1.47,6-16.55,6.3-17.32.18-.47.42-.88.65-.88s.3.42.47.82c.3.88,5.07,15.61,5.6,17.37h-13.02Z"/><path class="cls-1" d="M41.28,42.26c-.33-.18-.49.16-.65.1-.17-.29.33-.15.49-.35.16-.43-.33-.35-.49-.6h-.33c-.33.27.16.54,0,.83-.33-.05-.65-.18-.83-.18-.18-.02-.35.03-.49.14l.16.05c.35-.08.72.01.99.25-.16.24-.33.14-.5.31-.33.37.33.37.5.56l.33-.07c0-.22-.16-.46-.16-.65.33,0,.16.31.33.46l.16.08c.33-.08.33-.48.49-.65v-.29ZM42.77,42.34c-.33-.16-.65.3-.65.52-.16.34-.33.28-.49.2s-.16-.37-.16-.37l-.17.27s.5.59.83.2.17-.76.65-.65.99.1,1.15-.24c-.36.18-.77.21-1.15.08ZM8.3,42.06c-.26.04-.52.1-.77.18-.28-.28.29-.56,0-.83h-.37c-.11.25-.65.17-.46.6.1.2.65.05.41.35-.22.07-.35-.28-.58-.1l-.1.26c.22.2.15.6.46.65l.18-.08c.14-.15.05-.45.29-.46.1.2-.16.45-.03.65l.35.07c.15-.2.71-.2.46-.56-.17-.16-.45-.07-.52-.31.29-.25.67-.34,1.04-.25l.12-.03c-.12-.16-.33-.13-.5-.14ZM6.06,43.05c-.15.08-.33.14-.37-.2-.07-.36-.41-.59-.76-.52,0,0-.02,0-.03,0-.38.12-.79.1-1.15-.07.18.33.73.33,1.24.24.51-.1.35.26.65.65s.77-.2.77-.2l-.07-.27c-.07.14-.16.26-.29.35ZM28.44,20.27l.16.08-.16-.1v.02ZM28.12,20.58v-.29h-.16v-.24c.33-.26.49,0,.49,0v.14h0l.14-.12v-.26l-.14-.07s.33-.33-.16-.54l-.16-.03c.33.3.16.5.16.56-.33.15-.49.29-.49.41,0,.26,0,.39.16.54,0,.12,0,.38-.16.36l-.17-.1c0-.15-.06-.29-.16-.39,0-.25,0-.38.16-.43h0l.17-.3v-.08c.16-.07.16-.21,0-.43l.16.07c0-.18-.33-.36-.5-.41l.16.13c-.16-.05-.32-.07-.49-.08l.16.1h-.16l.09.04s-.06,0-.09,0v.08l-.33.09v.2h.33l-.16.14c0,.07,0,.07.05.06l.11.12v-.1c.16,0,.16.28-.33.35v-.07l-.16-.11h-.16v-.09l-.33-.18v-.56l.16-.15-.16-.09v.07l-.17-.11-.16.03v.11l-.16.04v.14l.16.12v.33l.16.15v.13l.17.1v.13l.16.17.33.07h.33l-.17.05-.16.03-.33-.07-.16-.2-.17-.14v.18l-.33-.07.16.18v.15h.16l.17.07-.17.07.17.07h.16v-.05l.16.07h.16l.16-.1.17.1v.09l.16.03v.18c-.11,0-.22,0-.33,0-.16,0-.33,0-.33.14v.4l.16.26-.33.12h-.16l-.2-.18v-.07l-.16.05v.1l.16.07h-.16l-.16.05v.1l.16.05v.22l.16.03h.17l.16-.13v.07l.16-.05h.16l.16-.11v-.07h.17v-.22l-.17-.12v-.31l.17-.1h.16l.16.23.53.22.16.23-.16.26-.17.16v.04l.17-.04v.1l.16.11v-.1l.16-.1h.16v-.35l-.16-.13v-.07l.16-.07v-.05h-.16v-.25h-.16l-.33-.09v-.11l.33-.12.16-.29.16-.24v-.18l-.16.12ZM25.14,26.53q-.16,0-.33-.07c-.1-.02-.18-.11-.16-.22l-.33-.16v.2l-.33-.07.33.2-.16.08v.09h.16l.17.05-.17.08.33.07.16-.05v-.03l.16.07h.16l.17-.11.16.1v.08l.33-.11v.07l.16-.09.17.07.33-.23v-.29l.16-.14c.21-.09.43-.16.65-.23l.16.13.16.22.18.07-.17.08-.16.07-.16.05-.33-.2-.17.08h.17v.18l.16.1v.09l.16-.05v-.08h.33l.17-.07.33-.13h.16v-.24l-.33-.28v-.1c.16.07.33.26.49.29.22,0,.44-.02.65-.09.16,0,.16.1.16.22v.23l-.16.16v.04l.33-.12v.13l.17-.12.16-.05v.07l.16-.12-.17-.16-.16-.16v-.16l-.17-.09v-.16h-.16c-.53.11-.74,0-.8,0,.1.02.21.02.31,0,.23.01.47-.06.65-.2.17-.1.17-.26,0-.48-.33-.2-.65-.05-.99.03-.37.13-.76.19-1.15.18-.5,0-.5-.45-.33-.5s.16,0,.49.03h.33v.07l-.17.15.31-.03h.16l.16-.1.16.05v-.1c.16,0,.16-.08.33-.28v-.1l.16-.07h-.16l-.33.15c-.21.08-.43.12-.65.11-.12,0-.23-.04-.33-.1-.23-.06-.46-.01-.65.12-.33.28,0,.77.5.79.22,0,.45-.05.65-.14.38-.11.78-.18,1.18-.21l.16.22c0,.12-.16.12-.33.2s-.33,0-.65,0-.99-.03-1.31,0c-.17,0-.5,0-.5-.07l-.16-.14.16-.13v-.11l-.16-.07-.16-.09v-.09l-.17-.07v-.07l-.33.07v.07l-.16-.08-.16.14v.15l.16.18v.26l-.16.16.16.24-.16.21v-.05l-.17-.13h-.16l-.16-.08s-.16-.03-.16-.2l-.16-.38.16-.21v-.24l-.16.17v-.12l-.17-.13-.16.05.16.18-.16-.05-.16.05v.15l.16.11v.39l.16.18.17.13v.1l.16.14.16.18.33.05h.33l-.16.05s-.04.02-.21.05h.03ZM26.14,25.04v.1h-.17l.17-.1ZM25.64,24.97l.16.05-.16.09v-.13ZM25.64,25.46v-.12h.16v-.1l.16.14v.16l-.16.18h-.16l.16-.2c-.03-.13-.2.11-.2-.07h.03ZM24.12,27.85l.16.1v.23l.17.14v.12l.16.09v.11l.33.17h.5v.05l-.33.09h-.33l-.16-.17-.16-.14v.2h-.33l.16.16v.16h.33l-.16.08.33.04v-.1h.16v.05l.33-.03.16-.13v.18l.33-.15v.07l.16-.1.17.05.33-.25-.16-.26.16-.13c.16-.05.5-.2.65-.27l.16.12.16.16v.16l-.16.07-.16.05-.16-.15-.17.09h0l.17.1-.17.08h.17v.03l.16.09v-.07l.16-.09.16-.03.16-.07.17-.15h.16l.16-.23-.33-.22-.17-.1c.17.05.33.22.5.23.22,0,.44-.05.65-.13.16,0,.16.09.16.16v.24l-.16.16h.16l.16-.11v.11l.16-.11.16-.05v-.18l-.16-.15v-.15l-.12-.05v-.17l-.16.05c-.26.09-.54.09-.79,0,.1.02.2.02.29,0,.33,0,.5-.12.5-.23.16-.1.16-.27,0-.43-.33-.14-.5,0-.83.12-.37.13-.76.22-1.15.26-.33,0-.33-.38-.17-.43,0-.05.17-.05.5,0h.16v.05l-.16.16.33-.1v-.04h.18l.16-.1h0l.16-.08h0c.12-.08.23-.17.33-.28v-.07l.16-.07h-.16l-.33.16-.65.16-.33-.05c-.16,0-.5,0-.5.13-.33.29,0,.71.5.69.17-.01.34-.07.49-.16.37-.15.76-.25,1.16-.31l.16.18c0,.11-.16.11-.33.2s-.33,0-.65.05-.83.05-1.16.1c-.16.06-.33.06-.49,0l-.16-.13.16-.11v-.12h-.16l-.17-.07v-.09l-.16-.05v-.07l-.33.09v.07l-.16-.07v.84l.16.2-.16.2v-.03l-.17-.12-.16.03-.16-.07-.16-.15v-.71h-.04l-.12.12v-.1l-.17-.1-.16.05.16.17h-.16l-.16.05.16.13-.04.05ZM25.93,27.49v.11h-.16l.16-.11ZM25.61,27.49v.11l-.16-.13.16.02ZM25.61,27.8h0l.16-.09v.12h.16l-.16.14-.16.16v-.2c0-.1,0,.14-.16,0l.16-.14ZM24.45,27.39l.12.07h.04l-.16-.07ZM17.52,17.42l.11.15.15.13v.28l-.03.08.12.18.12.13.05.12.15.15.16.2.31.05.33.03-.1.05c-.09.03-.17.04-.26.05-.16,0-.18,0-.33-.09s-.14-.15-.2-.22l-.14-.18h-.08l.05.2v.35l.14.07-.15.07.29.08.1-.05.1-.03.08.08h.28l.13-.1.1.1.03.1.25-.12.09.07.23-.07.13.07.33-.23-.13-.33.25-.12c.2-.08.4-.15.61-.2l.15.13.21.22.09.1-.07.09-.22.05-.15.03-.24-.2-.24.07h.17v.12l-.09.07h.1l.11.11v.1l.05-.07.11-.08h.25l.28-.03.22-.13.14-.03.1-.24-.35-.28v-.05c.16.08.35.28.54.31s.46-.05.65-.05.16.1.26.22v.25l-.23.14h.09l.26-.1v.13l.12-.11.15-.03.05.07.09-.12-.13-.14v-.17l-.05-.16-.15-.08v-.15h-.21c-.69.12-.86-.07-.86-.07.13.03.26.05.39.05.23.03.47-.03.65-.16.12-.1.22-.27,0-.48s-.59-.09-.96,0c-.39.11-.79.15-1.19.13-.38-.05-.33-.46-.25-.5s.22-.03.56.05l.25.03v.07l-.14.14.24-.07.1-.05h.13l.16-.08.1.05.07-.1h.07c.12-.07.23-.16.3-.28l.07-.09.14-.07h-.16l-.33.13c-.23.05-.46.08-.69.08-.14-.02-.28-.06-.41-.11-.2-.07-.42-.04-.6.08-.31.28,0,.79.45.81.22,0,.44-.02.65-.1.35-.08.71-.13,1.07-.14l.18.23c0,.12-.12.12-.31.18-.24.01-.47,0-.71-.05-.33,0-1.01-.07-1.27-.05-.21.03-.42,0-.62-.09l-.03-.15.08-.12.07-.12-.21-.07-.09-.1-.03-.1-.1-.07-.12-.05-.23.05-.1.05-.18-.1-.07.17v.14l.1.2v.24l-.1.17.07.23-.1.22-.09-.07-.07-.13h-.16l-.16-.09c-.09-.03-.12-.05-.2-.2-.04-.13-.07-.26-.07-.39l.07-.22.07-.18-.07-.09v.05l-.07.15-.09-.13-.15-.12h-.08v.2l-.14-.05-.2.07ZM19.7,17.58v.08h-.09l.09-.08ZM19.34,17.54l-.05.08v-.14s.05.07.05.07ZM19.24,17.86h.13l.07-.09.07.15.08.03-.1.13-.2.16h-.03l.12-.2c0-.11-.17.14-.18-.05l.05-.14ZM22.62,23.83h.09l.26-.1v.13l.14-.12h.13l.05.07.16-.11-.21-.15v-.16l-.05-.17-.15-.08v-.16h-.21c-.69.11-.86-.07-.86-.07.13.04.26.06.39.07.24.02.47-.05.65-.2.1-.08.2-.24,0-.46s-.59-.07-.96,0c-.38.11-.79.15-1.19.13-.17,0-.31-.15-.31-.32,0-.06.02-.13.06-.18.09-.05.22-.03.56.04l.25.05v.07l-.14.15.24-.09.1-.03.13.03.16-.1.1.05.07-.1h.07c.12-.06.23-.16.3-.28l.07-.08.14-.07h-.16l-.33.13c-.23.05-.46.08-.69.09-.14-.03-.28-.07-.41-.12-.2-.06-.42-.03-.6.09-.31.28,0,.77.45.81.22.01.44-.01.65-.08.38-.11.76-.17,1.15-.2l.18.22c0,.13-.12.13-.31.2s-.38,0-.71-.05-1.01-.07-1.27-.05c-.2.04-.42,0-.6-.1l-.07-.13.08-.12.07-.13-.21-.05-.09-.1-.03-.1-.1-.05-.12-.07-.23.05-.1.05-.18-.09-.07.15v.15l.1.18v.27l-.1.16.07.23-.1.22-.09-.07-.07-.13h-.16l-.16-.08c-.09,0-.12-.05-.2-.2-.03-.13-.06-.26-.07-.39l.07-.22.07-.18-.07-.08v.05l-.07.15-.09-.13-.15-.12-.08.03v.18l-.14-.05-.16.04.11.16.15.11v.29l-.03.1.12.18.12.14.05.11.15.15.16.2.31.05.33.05-.1.03c-.09.03-.17.04-.26.05-.16,0-.18,0-.33-.09s-.14-.14-.2-.21l-.2-.16h-.08l.05.2-.31-.09.2.22-.03.08-.09.09h.23l.14.07-.15.07.29.09.1-.03.1-.05.08.09h.28l.13-.12.1.1.03.1.25-.11.1.07.22-.07.13.07.35-.24-.15-.29.25-.12c.2-.08.4-.14.61-.2l.15.13.21.22.09.1-.07.09-.22.05h-.15l-.24-.2-.22.07.15.03v.12l-.09.09h.1l.11.1v.1l.05-.07.11-.07h.25l.28-.05.22-.13h.14l.1-.23-.35-.28-.05-.12c.15.09.33.28.53.31s.46-.05.65-.05.18.1.26.22v.25l-.21.15ZM19.35,22.09l-.07.07-.03-.13.1.07ZM19.48,22.64l-.2.16h0l.1-.22c0-.1-.17.15-.18-.05l.08-.11h.13l.07-.1.07.15h.08l-.14.16ZM19.66,22.23l-.09-.03.12-.07-.03.1ZM23.24,21.27v-.16l-.07-.16-.15-.09v-.16h-.21c-.69.12-.86-.09-.86-.09.12.05.26.07.39.07.23.03.47-.03.65-.18.1-.09.2-.25,0-.46s-.59-.08-.96,0c-.39.1-.79.15-1.19.13-.18-.01-.32-.17-.3-.35,0-.06.02-.11.06-.16.09-.03.22,0,.56.05l.25.05v.07l-.14.15.24-.08h.23l.16-.1.1.05.07-.1h.07c.13-.06.23-.16.3-.28l.07-.09.14-.07h-.16l-.33.15c-.23.06-.46.08-.69.08-.14-.02-.28-.06-.41-.11-.2-.07-.42-.04-.6.08-.31.28,0,.79.45.81.22,0,.45-.03.65-.1.38-.09.76-.15,1.15-.18l.2.23c0,.12-.13.12-.33.18-.25.01-.5,0-.74-.05-.33,0-1.01-.07-1.27-.05-.2.03-.41,0-.6-.09l-.07-.15.08-.11.07-.13-.21-.05-.09-.08-.03-.1-.1-.07-.12-.05-.23.05-.1.05-.18-.08-.07.14v.15l.1.18v.26l-.1.16.07.23-.08.22-.1-.07-.07-.13h-.16l-.16-.1c-.09,0-.12-.03-.2-.18l-.07-.4.07-.22.07-.18-.07-.09v.05l-.07.14-.09-.13-.15-.11h-.07v.23h-.05l-.15.16.15.12v.35c.27.04.51.19.65.41v.16l-.07.18h0l.31.07h.33l-.1.05c-.09.02-.17.04-.26.05-.12.01-.23,0-.33-.07l-.08-.07h-.28l-.05.18h0l.14.07-.15.07.29.09.1-.03.1-.05.08.09h.28l.15-.11.08.11.03.1.25-.12.1.07.22-.07.13.07.35-.23-.17-.3.25-.11c.2-.08.4-.15.61-.2l.15.13.21.21.09.1-.07.08-.22.05-.15.03-.24-.2-.22.08h.15l.03.11-.1.09h.1l.11.1v.1l.05-.07.11-.07h.25l.28-.07.22-.12.14-.03.1-.23-.35-.28-.05-.12c.16.13.34.25.53.33.28.05.46-.09.65-.07s.18.1.26.22v.24l-.23.15h.09l.26-.1v.13l.14-.12.13-.03.05.07.16-.11-.2-.1ZM19.35,19.82l-.07.07v-.14s.07.07.07.07ZM19.48,20.37l-.2.16h0l.1-.2c0-.12-.17.13-.18-.07l.05-.1h.13l.07-.1.07.13.08.05-.11.12ZM19.66,19.93l-.09-.03.12-.05-.03.08ZM23.79,37.7c.15.03.3-.08.33-.23,0-.03,0-.05,0-.08,0-.22,0-.43-.16-.48s-.33.11-.5.31c0,.21.14.4.34.48h0ZM23.79,37.14l.16.18-.16.18-.16-.18.16-.18ZM21.94,33.78c-.19-.02-.37.12-.4.31-.06.19.04.39.23.46,0,0,0,0,0,0,.16.05.34-.1.41-.31.06-.19-.05-.39-.24-.46h0ZM21.85,34.37l-.12-.18.12-.18.13.18-.13.18ZM23.79,34.62c-.24.06-.39.29-.33.53.02.1.08.2.17.26.16.05.33-.1.33-.31.1-.13.08-.32-.05-.42-.03-.03-.07-.04-.11-.05h0ZM23.79,35.03v.2l-.16-.2.16-.18v.18ZM25.93,35.94c0-.21-.14-.39-.33-.46-.16-.05-.33.1-.33.31-.1.12-.08.3.04.41.04.03.08.05.12.06.17.05.33-.1.5-.31h0ZM25.6,35.89v.18l-.16-.18.16-.18v.18ZM14.2,24.1l.09.12.11.03.1-.1v-.09c-.02-.11-.13-.18-.24-.16l-.05.2ZM13.71,25.41l.1-.08,1.03-.09h.25v-.38l-.18.07c-.2,0-.48,0-.56.05h-.54l-.14-.05c-.09.17-.07.38.05.53v-.05ZM33.19,25.41h-.16v.35h.16l.16-.22-.16-.13ZM33.68,26.99v-.46h-.16l-.16.14-.33-.09c-.16-.07-.5-.13-.65-.22l-.16-.1h0c.02.23-.04.46-.16.65l.16.03v-.2h.33v.79c.01.2.14.38.33.45.16.05.33-.07.49-.17.13-.27.24-.55.32-.84ZM32.69,27.1v-.28l.65.2v.5l-.16.07c-.31.03-.65-.14-.48-.48h0ZM31.72,30.71l.16-.11.33-.09.16-.41h0c-.33.48-.99-.09-1.15-.3l-.16-.23h-.16l-.16.36v.07l.33-.03.5.37v.08l-.16.07-.33.09h0l-.16.05h-.66l-.16.15v.05c.19.23.41.44.65.61v.12c.16.08.16.23.16.38v.07h.16c0-.13.17-.23.17-.41l-.16-.03-.33-.22v-.09l-.33-.18.49-.09.16-.09h.17l.16-.08.16-.05h0l.16-.04ZM29.57,32.84h-.17l.33.31.16-.12c.16-.1.5-.41.5-.65l-.17-.14v-.14c-.27-.07-.55-.07-.83,0l-.16.12-.14-.03-.16-.22.16-.09v-.08l.16-.12.33-.1.16.07v-.12l-.16-.2-.17.03-.16.11h0c-.33.18-.83.65-.33.94l.16.12c.33.13.65-.18.99-.16v.07c-.03.3-.33.41-.52.41ZM28.08,33.83c-.16.04-.16-.11-.33,0v.24l.16.05h.16v-.1l.33-.09v-.09h.16l.17-.11.16-.23h0s-.33-.45-.33-.45l-.13-.15-.16-.43v-.13l-.33.08-.16.12v.03l-.33.18-.33.14.16.3v.11l.16-.11c0-.2.33-.51.5-.53l.16.41c0,.07-.16.13-.33.12v.08c0,.09,0,.28.16.28l.33-.31v.1h.16v.15l.16.1v.07c-.16.09-.34.16-.52.2v-.03ZM32.54,29.31c-.16.12-.16,0-.16.18l.16.15h0l.16-.08v-.14l.17-.18v-.15l.16-.03v-.48c-.23-.03-.45-.09-.65-.18v-.09l-.5-.22v-.1l-.16.26-.16.15v.1l-.16.35-.16.25.33.18v.08l.16-.19c-.16-.21-.16-.51,0-.73l.5.2c0,.12-.16.24-.33.3l.17.1.33.1v-.41l.16.05.16.07.17.03v.07l-.34.37ZM26.27,33.9v.14l.16.05.16-.22-.16-.12h0l-.16.14ZM15.38,27.39l-.65.33h-.05l.56-1.65-.07-.07-.18.07c-.18.05-.46.1-.54.11l-.53.09h-.14c-.04.16,0,.32.1.45l.08-.12c.12-.05.75-.24.89-.28v.03l-.56,1.65.1.26.16-.2.77-.35h.3l-.12-.48-.12.15ZM17.19,30.48v-.05l-.28-.31-.05.13c-.09.1-.48.49-.65.65l-.11.1h-.25l.07.09.12.14.21.2h0l.07-.17.31-.26c.19.15.36.32.51.5l.12.23-.2.25-.16.1v.05c.1.1.2.33.38.33h0l.05-.2c.08-.13.17-.26.27-.38h0l.26-.28.12-.11.16-.05v-.05l-.22-.17-.2-.14h0l-.05.18-.22.28-.65-.69.38-.35.03-.02ZM15.23,28.4c-.46.25-.63.82-.38,1.28.2.37.62.56,1.03.47.45-.2.64-.73.45-1.17-.14-.46-.64-.72-1.1-.58,0,0,0,0,0,0ZM15.57,29.93c-.36,0-.65-.29-.65-.65s.3-.68.68-.68.68.3.68.68c0,.36-.29.66-.65.66-.02,0-.03,0-.05,0ZM15.28,22.46h-.26c.21.07.13.5.13.5l-.12.28-.25.14v.03h.1l.33-.05.03-.09.07-.26c.04-.19.03-.38-.03-.56ZM13.78,22.79c0,.22.03.45.18.51.5.28.73-.28.78-.45l.11-.25h-.41c-.1.25-.14.5-.31.5s-.15-.16-.1-.35l-.24.03ZM4.57,8.31l.29-.43c.07.16.05.35-.05.5l.26-.1c-.16.13-.23.35-.16.55.09-.12.2-.22.33-.28l-.12-.27.15-.05.12.25c.13-.05.27-.06.41-.05-.1-.18-.31-.28-.51-.23l.26-.15-.43-.28c.18-.05.37-.03.53.05-.06-.25-.17-.49-.31-.71l-.31.41c-.04-.17-.01-.35.09-.5-.27.06-.52.17-.74.33.16.05.3.15.39.28l-.56-.05c.08.26.2.5.36.72ZM4.9,7.56l.22.08-.09.22-.21-.09.08-.21ZM5.02,13l-.15.19.2.03.09-.03.18-.35-.13.07-.18.09ZM5.82,12.54l-.18.24h.2l.11-.05.18-.33-.13.05-.18.09ZM8.44,11.52l.38.1.11-.05.12-.16h-.29l-.31.11ZM7.83,11.67l-.35.09.38.11.12-.05.11-.18h-.29l.03.03ZM6.89,12.06l-.23.17.2.08h.12l.26-.28-.33.05h-.02ZM4.11,38.08c.13-.14.29-.24.46-.29v.2c0,.11-.25.26-.43.49v.62l.29-.46c.18-.18.2-.05.25-.07l.12.05c.07.05.08.07.11.24s.33.25.33.25l-.45.18-.14.22c-.08.05-.16.12-.21.21-.14.17.07.4.08.27l.38-.18c.09.13.22.21.38.23.26,0,.51-.29.6-.16v.26l-.07.28.28.25h.12l.23.48c.06-.12.11-.25.15-.38,0-.06,0-.12,0-.18.08,0,.16-.03.23-.07.16-.07.1-.13.1-.21v-.31l.07.12.28.28h.48l.15-.14.25.12.13.13v-.31c0-.18-.1-.2-.1-.2l.09-.16-.05-.25-.45-.1-.29-.09h.38l.33-.12.29-.36.03-.23c.04-.05.1-.1.37-.1s.39.18.33,0-.56-.36-.62-.36l-.24.08-.36-.08-.26.08c-.16.11-.33.19-.52.25-.16,0,.04.1-.58-.16-.4-.24-.7-.61-.86-1.04-.09-.57-.13-1.14-.11-1.72,0-.61.05-.74.14-.91s.81-.97.81-.97c.39-.44.73-.93,1-1.45h.17c.05.09,0,.29-.09.54-.08.21-.15.43-.2.65-.05.18.1.28.25.43l.11.16-.08-.35c.03-.25.12-.49.26-.69.12-.18.2-.08.16,0,0,.17.05.34.12.5.05.16.18.24.22.18v-.58c.05-.1,0,0,.2-.15.13-.16.15-.37.07-.56-.07-.12-.11-.26-.12-.4l.16.13.14.2v-.18c0-.11.02-.23.07-.33.07-.17,0-.27-.07-.41s-.05-.15.08,0l.15.38c.06-.17.08-.35.08-.53.03-.38-.38-.51-.48-.56l-.07-.21.2-.53h.05l.48-.07c.23-.03.23-.1.51-.24s.22-.17.3-.14,0,.14,0,.37c.07.33.17.65.29.96.05.41,0,.82-.14,1.21-.09.15-.24.22-.28.52-.02.27.12.52.35.65.3.14.55.37.71.65.08.27.07.56-.03.83-.04.12-.03.24.03.35,0,0-.05-.12.2-.31.16-.11.22-.31.17-.5.09.07.16.17.2.28.08.18-.05.4.03.65s.13.28.13.1.2-.22.25-.29l.1-.3.05.17c.03.11-.03.21-.03.46s.33.41.28.31v-.18l.08-.23c0-.05.12-.23.18-.07s0,.18.07.36.4.22.4.22c0,0,.07,0-.03-.18-.06-.1-.03-.24.08-.3,0,0,.01,0,.02-.01,0,0,.05,0,.16.18s.16.16.33.22.09.13,0,.33.15.4.12.33l.25-.28h.29l.15-.12.14-.08.07.13.41.13h.2l.39.28.05-.18c.02-.14-.01-.29-.09-.41l.05-.03.07-.09h.41c.14-.05.27-.11.39-.2.16-.12.07-.16.07-.16h.46l.1.05s-.03-.07-.1-.24-.2-.13-.31-.16v-.14l-.35-.25.12-.13v-.14h.2c.15.05.26.14.18-.05-.08-.16-.23-.26-.4-.28h-.1s-.13-.07-.39-.05c-.21.04-.41.13-.58.26l-.39.1c-.25.02-.51,0-.76-.03-.78-.23-1.49-.66-2.04-1.26-.34-.47-.43-1.06-.27-1.61.14-.54.31-1.06.53-1.57.05-.23.03-.33.2-.23.18.12.33.28.43.46.08.14.2.26.35.34.12.09.27.12.41.09,0,0-.18-.28-.33-.46-.13-.12-.21-.28-.22-.46-.06-.25-.16-.49-.31-.71l.41.24c.1-.38-.71-.89-.48-.77.14.07.28.13.43.18-.09-.25-.24-.47-.43-.65-.24-.17-.51-.3-.79-.4-.15-.1-.25-.41-.4-.61-.33-.41-.72-.76-1.17-1.03-.29-.12-.43-.05-.89.1-.23.1-.49.08-.71-.05l.08-.73c.1-.18.27-.31.46-.38.16,0,.69-.21.83-.26.32-.33.6-.7.84-1.09.16-.23.28-.49.33-.76h-.15l-.31.13c-.17.09-.38.09-.56,0-.24-.09-.46-.22-.65-.39-.13-.13-.3-.21-.48-.22h-.58c-.15,0-.25-.09-.45-.09s-.22-.38-.22-.38l.38.12h.05c.08,0,.9-.03,1.07-.03.41,0,1.03.54,1.1.54s.15-.1.2-.14l.08-.24.2.38h.2v-.23l.1-.22.2.43c0,.05,0,.2.18.14l.08-.6.18.15.16.26.18.22.25.05.05-.33.31.33.12-.11s.22.1.14-.15l-.07-.37c.12.07.33.4.5.46l.18-.23c-.07-.24-.13-.48.11-.03.08.12.19.22.32.28.16.07.18-.08.18-.08l-.07-.4c.1.12.23.22.38.28.16.09.25,0,.16-.25-.18-.46-.09-.38,0-.31.12.1.26.19.39.28.16.1.16,0,.16,0,0,0,1.14.33.05-.28-.13-.12-.24-.27-.31-.43l.31.1h.28c.34-.12.39.21.61.18.08,0,.14-.05.14-.13,0-.02,0-.05-.01-.07.15.14.38.15.54.03.23-.16.03-.25.03-.25l.28-.16c.16-.16-.38-.35-.38-.35l-.13-.23c-.1-.1-.61,0-.45-.05.11,0,.22-.05.28-.15v-.28l.35-.26-.05-.28h-.15s0,.05,0-.11.43-.3.24-.33c-.41-.1-.65.28-.69.2l-.2.05-.36.48v-.23l.14-.33-.1-.27-.23-.14c.11-.06.16-.19.13-.31-.05-.27.15-.4-.03-.35-.18.11-.33.26-.43.45-.06.08-.09.18-.08.28-.13.04-.24.11-.33.21-.18.18.16.48.11.69s-.1.78-1.31,1.07c-.68.17-1.39.17-2.06,0l-.69-.39c-.58-.18-.74-.33-.84-.33l-.35.07c-.33.21-.46.24-.74.43s-.43.22-.55.3c-.31.1-.65.12-.97.05l-.56.65c-.08,1.01-.35,2-.79,2.91-.61,1.47-2.32,2.82-2.93,6.35-.31,1.81-1.6,1.62-1.68,1.62-.38,0-.94-.43-.86-1.5s.97-2.29,1.25-2.82c.28-.53.83-1.83.83-1.83.5-1.29.6-2.71.28-4.05-.21-.75-.51-1.48-.91-2.15-.34-.58-1.12-1.64-1.12-1.64-.4-.52-.57-1.18-.48-1.83.1-.42.44-.73.86-.79.29-.02.54.19.56.48-.01.25-.1.5-.27.69-.14.23-.22.5-.23.77.02.22.08.42.18.62-.01-.21.06-.42.2-.58.16-.18.22-.14.33-.23l.24-.39.07.07c0,.08-.1.23-.21.43-.12.2-.21.42-.25.65,0,.15.02.29.08.43l.05-.23c0-.13.09-.13.23-.35s.16,0,.13.12-.13.26-.21.48c-.09.3-.05.63.1.91.09.21.28.37.51.41,0,0-.07-.15-.13-.35-.04-.15-.04-.31,0-.46l.13-.33c.01.15.03.3.07.45.07.27.05.55-.07.81-.09.25-.09.51,0,.76.06.16.15.29.28.4-.05-.09-.08-.18-.09-.28,0-.2.08-.39.22-.54h.16c.1.13,0,.23-.07.49.01.33.1.66.25.96.07.14.2.24.36.25-.09-.14-.13-.31-.1-.48.03-.22.12-.22.18-.5.04-.16.08-.33.1-.49,0-.15.09-.15.15-.31.28-.65-.17-1.09-.25-1.37-.1-.23-.12-.49-.05-.74.41-.76.29-1.7-.31-2.33,0,0-.24-.16-.41-.26-.16-.11-.3-.25-.41-.41-.21-.31-.55-.52-.92-.56-1.03-.23-2.06.4-2.33,1.42-.17.53-.17,1.09,0,1.62.27.85.74,1.63,1.37,2.26.47.58.82,1.25,1.02,1.96.2.69.25,1.41.15,2.12l-.07.13-.09-.05-.23-.21c-.13-.1-.24-.23-.31-.38-.1-.15-.22-.41-.4-.48-.12-.07-.25-.1-.38-.1l-.12.09.13.12c.09.09.16.2.2.33.02.18.05.37.1.54.06.15.16.29.3.38l.45.33.1.18h-.07c-.09-.1-.2-.18-.31-.25-.22-.12-.41-.3-.54-.51-.07-.22-.19-.43-.35-.61l-.48-.25h-.14l.09.11.23.23c.03.28.08.55.16.82.09.21.22.39.39.53.2.14.39.29.56.46l.07.15-.11-.09c-.05-.07-.12-.05-.35-.16-.2-.1-.37-.27-.48-.46-.11-.2-.28-.36-.5-.45-.13-.06-.28-.06-.41,0-.1.07-.07.07.09.15.17.15.3.34.38.56.08.25.25.46.48.6.23.12.46.23.52.36l.1.18-.09-.05c-.15-.15-.34-.26-.54-.31-.18-.07-.25-.05-.38-.16l-.12-.1c0,.14.02.28.09.41.13.2.28.39.45.56.22.2.33.5.28.79-.08.54-.27,1.05-.55,1.51-.4.63-.62,1.35-.65,2.1,0,.62.23,1.23.65,1.68.1.09.2.05-.03.1-.39.09-.63.48-.56.87.05.35.1.38.13.38H.35c-.15.36-.05.78.25,1.03.17.11.37.14.56.1l.39.21c.07.15.16,0,.12-.23s-.12-.35-.31-.41c-.14-.02-.23-.15-.21-.28,0-.03.01-.05.02-.08.12-.14.65.14.91-.37.06-.11.06-.25,0-.36l-.12-.05c-.36.25-.74-.26-.1-.41h.61c.39,0,.76-.17,1.03-.45.45-.41.72-.56,1.19-2.69.41-1.9.96-2.51,1.09-2.66s-.05.79.05,1.52c.08.59.23,2.84-.69,3.76-1.04,1.07-1.64.94-1.65,1.39,0,.16.05.35,0,.37-.25.1-.38.51-.4.61l.43-.1c-.12.17-.23.34-.33.52-.1.2-.05.38,0,.25l.24-.05-.16.29v.35l.1-.13v.28l-.1.45.35-.24.12.05c-.01.1-.04.2-.09.29-.06.14-.1.28-.11.43l.38-.22h.21s.12,0-.2.26-.12.3-.15.51-.24.2-.13.24.22.05.46-.17ZM37.32,15.16c.19-.15.35-.33.49-.53v-.07c.33-.16-.16-.3-.33-.15-.27.3-.61.53-.99.65h-.33v.15l.5.13c.23,0,.46-.06.66-.19ZM39.14,10.98v.37c-.35.51-.8.96-1.31,1.31-.49.26-.99.48-.99.71-.16.24,0,.4-.16.45l-.16.48c0,.11,0,.18.16.23.33.13.83-.22.99-.31s.65,0,.65.1-.33.45-.65.65l-.16.31c.16.08.16.11.33.07s.17-.05.33-.07.33,0,.49-.18,0-.26.33-.45c.19-.13.43-.17.65-.1.27.04.55.04.83,0,.17-.07.83-.27.83-.27l-.99.76c-.36.25-.69.54-.99.86h-.16c1.31.26,2.8,1.68,3.27,2.25h.16l.16-.15.16-.18.17.07.16-.16.16-.26s0,.05.33.1.33-.15.33-.15c-.12-.08-.24-.17-.33-.28.02-.12.07-.24.16-.33v.05c.5.37.83-.28.83-.28-.13.05-.27-.02-.31-.14-.01-.03-.02-.07-.01-.11v-.26c.16.2.65-.05.65-.05l-.33-.25c.5.09.83-.43.5-.38-.16.05-.65-.28,0-.36.16-.03.33-.65.16-.51l-.33-.09v-.17l.33-.25v-.35c0,.07-.16.13-.33,0-.33-.23.16-.28.33-.45v-.41h-.49v-.22c.83-.29.16-1.45.16-1.12-.08.21-.28.34-.5.35,0,0-.33-.09,0-.31s.33-.65.16-.51l-.49.1c0-.15.06-.3.16-.41.16-.33-.33-.65-.33-.54v.29c-.17.09-.5.22-.33-.15s-.16-.65-.16-.54l-.16.26c0,.05-.33.12-.16,0,.16-.29-.16-.69-.16-.46s-.17.2-.17.2c0,0-.33.05-.33-.16s-.5-.5-.33-.37l-.17.22s-.33.24-.33.05c.16-.2,0-.54-.16-.4l-.31.21c0-.14-.33-.43-.33-.27s-.16.38-.16.24c-.14-.11-.32-.17-.5-.17l.16.12c0,.07,0,.39-.16.2-.2-.1-.43-.14-.65-.11l.17.1.16.46s0,.1-.33-.1c-.2-.12-.43-.15-.65-.1.33.15.33.46.33.71-.83-.65-4.79-3.38-4.79-3.41h-.18s-.16.13,0,.28,4.8,3.77,4.8,3.77h0ZM37.65,13.44v.15c-.16,0,0,.16-.16.26l-.16.07c-.08-.1-.14-.22-.16-.35.12-.14.31-.2.49-.15h0ZM39.8,13.14l-.5-.16.16-.03s.16,0,.16-.03c.33-.09.33-.26.33-.33.16-.04.16.71-.16.56h0ZM39.96,11.97c.16.03.16.16.33.15l.16-.13-.16.2c-.33.23-.49-.03-.65,0l.17.08v.07c0,.16-.17.25-.17.28-.33.07-.65-.13-.33-.41-.16.08-.33.14-.5.18.1-.21.28-.38.5-.46.22-.02.44,0,.65.05h0ZM41.12,17.33l-.83-.54v.65l.16.12.66-.23ZM39.3,18.64c.77.39,1.4,1,1.81,1.76l1.96-1.22-.5-.61-.33.71-.17-.51-.49.41.49.25c-.26.11-.56.11-.83,0-.11-.15-.17-.34-.16-.52l.16-.16.17-.18.33.03c.16.18,0,.26,0,.29l.16-.07c0-.11,0-.36-.16-.45l-.16-.13.33-.13v-.23l-.33.08v.22h-.16c-.09-.16-.29-.22-.45-.13-.02,0-.03.02-.04.03v.15s0-.18.33,0v.22l-.16.2v.03c-.16.05-.32.07-.49.07-.29-.01-.51-.25-.5-.54,0,0,0-.01,0-.02,0-.35.16-.41.16-.41l.33.49.49-.54-.65-.13h0l-.16.15-.16-.13.16-.15-.49-.54-.33.65.65.07c-.08.13-.2.24-.33.31-.28.1-.59.04-.81-.16-.1-.16-.16-.33-.17-.52v-.03l.17-.16.16-.03c.33.12.16.25.16.26l.16-.1c0-.13,0-.36-.33-.36v-.13l.16-.18-.16-.23-.16.14v.22l-.17.03c-.16-.18-.33-.07-.49.03v.17s0-.2.33-.1l.16.2-.16.23s-.16.35-.65.16c-.21-.1-.35-.33-.33-.56v-.14l.33.25.33-.65-.5.08.5-.39-.5-.14-.33-.1-.14.6h0l-.5.2h-.33l-.65.23-.16.23-.33.28-.33.05-.5.37v.22l-.33.28-.33.09-.33.41-.16.21-.49.4h0c-.17-.08-.34-.15-.52-.2-.22-.05-.44-.05-.65,0-.27.19-.49.45-.65.74-.09.32-.03.66.17.92.32.52.54,1.1.65,1.7.17.26.17,1.13.33,1.41,0,.28,0,.45.16.54s.16.17.33.14h.17s.65.23.82.31.33.18.5.27l.65.23c0-.19-.05-.38-.16-.53-.19-.27-.41-.52-.65-.74-.16-.13-.33-.1-.5-.26-.33-.16-.49-.24-.49-.33l.33-.24c0-.31-.12-.6-.33-.83-.25-.37-.47-.76-.65-1.16-.11-.25-.16-.52-.16-.79v-.07l.16-.2v-.16l.16.28.5.6.49.35h.33v.23s0,.05.16,0,.16.1.16.12l.16.03-.16.29.16.12.5.05-.16.14c.16.09.16.33.49.3.16,0,.33.08.33,0s.16.38.49.4q.16,0,.33-.22c.12-.17.29-.3.49-.38-.09.12-.09.29,0,.41,0,.18.33.54.65.73.25.1.47.25.65.45.37.42.71.88.99,1.37,0,.16.16.25,0,.25l-.33-.17c-.21-.06-.43-.09-.65-.1-.33,0-.67.06-.99.15-.5.18-1.31.58-1.49.65-.23.04-.45.1-.65.2l-.65,1.88v1.57c.16-.24.33.05.5-.1.09-.08.15-.19.16-.31.12.15.23.3.33.46.21.34.37.71.48,1.09,0,.29-.06.58-.19.84-1.16,1.31-3.27,1.62-3.8,1.7l-.49.22-.16.31c.16.1-.17.26-.33.46-.17.09-.34.19-.49.31v.09s.16.09.33.05c.12-.03.23-.08.33-.15l-.49.43v.33c.16,0,.99.07,1.15-.13.33-.2.5-.41.65-.48h.83c.16.08.33.2.49.05s.33-.11.33-.14c.16,0,.33-.18.65-.52.26-.42.6-.78,1-1.05.35-.27.74-.49,1.15-.65.29-.05.57-.16.83-.31.16-.18.33-.38.16-.65,0-.29-.16-.39-.33-.81-.13-.49-.3-.97-.5-1.43v-.34c.22,0,.44,0,.65-.03.23,0,.45-.05.65-.15.33-.16.33-.26.49-.23s.17,0,.17.18c.06.74.23,1.47.49,2.17l.33.84,2.48-2.8v-.79c0-.37.16.13.33.51l.65-.78c-.18-.56-.4-1.11-.65-1.64-.52-1.28-.96-2.59-1.31-3.93,0-.5-.16-.65-.16-1.26-.91-1.58-2.49-2.65-4.29-2.9-.16.35-.33.41-.33.53-.26.25-.44.58-.5.94-.26-.19-.43-.48-.49-.79-.17-.05-.17-.23-.33-.46l-1.47,1.24v.08l-.33-.1-.15-.1.31-.35.33-.07.49-.43v-.22l.33-.23.16-.05.49-.38.17-.23.33-.27h.33l.5-.25.16-.2.45-.18-.28,1.13c.83.09,1.63.39,2.31.87h0ZM40.79,19l.16.31-.5-.1-.16-.31.5.1ZM39.8,18.26l.16.31-.33-.1-.33-.31.5.1ZM38.64,17.61c.11.04.18.15.16.26,0,.07-.16.07-.33,0s-.33-.18-.33-.25c.16-.07.34-.06.49.02v-.03ZM23.46,3.61c0,.43-.23.83-.59,1.07.23,0,.45.05.59.07-.46.15-.79.56-.84,1.04.32-.16.66-.26,1.01-.31v-.7h.49v.69c.34.07.67.17.99.29-.13-.49-.5-.88-.99-1.02.33,0,.5,0,.83-.07-.42-.2-.73-.59-.83-1.05-.1.07-.21.1-.33.1-.2-.03-.35-.21-.33-.41,0-.2.14-.37.33-.4.33,0,.49.18.49.4,0,.12-.06.24-.16.31.46.04.88.28,1.15.65.17-.64.17-1.32,0-1.96-.32.32-.72.54-1.16.65.06-.47.38-.86.83-1.02-.68-.16-1.39-.16-2.08,0,.32.25.53.62.59,1.02-.42-.11-.8-.34-1.1-.65-.12.65-.12,1.32,0,1.96.19-.17.84-.67,1.1-.67ZM24.11,3.61,18.69,15.28l-.65.31.43.28h.31l.75-.59h-.83ZM21.02,14.98l-.65.33.43.26h.33l.73-.6h-.83ZM28.88,15.87l.49-.28-.65-.31h-.8l.65.59h.31ZM26.57,15.58l.5-.26-.65-.33h-.81l.65.6h.31ZM23.77,14.92l-.65.13.29.37.33.1.88-.36-.83-.23h-.03ZM20.62,13.52c-.25.05-.43.2-.4.33s.25.2.5.13c.25-.07.43-.2.39-.33s-.22-.15-.46-.1l-.03-.03ZM26.9,13.48c-.17-.05-.5.03-.5.14s.16.28.5.33c.16.05.49,0,.49-.15s-.14-.26-.47-.3l-.03-.03ZM23.93,13.67l.5-.35-.5-.4-.5.35.5.4ZM7.79,10.99l-.18.13.22.05.16-.11-.2-.07ZM5.33,12.24l.19-.03.1-.18h-.22l-.08.22ZM6.7,11.59l.14-.24-.31-.12-.14.25.3.11ZM43.59,33.02c-.53-.52-.93-1.16-1.15-1.87l-1.49,1.92s0,.05-.33.14c-.17.09-.33.2-.17.5,0,.29.17.38.17.48-.17.11-.33.29-.17.49s.33.33.5.31l-.16-.23c0-.1-.16-.1.16-.16.16-.05.33-.05.33-.2l.17-.24c.16-.05.16,0,.33-.1.08-.05.14-.14.16-.23,1.16.25,1.65,1.66,1.16,3.12-.21.71-.61,1.35-1.16,1.85-.49.25-.83.46-.99.53l-.16.2c-.19.04-.36.13-.5.26-.08.29-.25.55-.49.75l.16.11c.17.03.34,0,.49-.07l.17-.08-.33.39c0,.13.16.22.33.18.51-.12,1.01-.3,1.48-.53.17-.16.17-.08.17-.24.16-.18.33.05.33-.43.16-.48,0-.25.16-.35,0-.07.16-.18.33-.18.2.04.37.14.49.3,0,.16,0,.28.16.2s.33-.12.33-.38.16-.65.16-.94c-.08-.71-.08-1.43,0-2.14-.05-.47,0-.95.16-1.4.16-.31.33-.43.33-.71,0-.39-.16-.48-.33-.65-.33-.27-.66-.35-.83-.6ZM25.11,38.91v-1.87c.17.05.33.11.5.14l3.27-1.47c.33-.15.33-.79.33-1.21l-.11-.37c3.03-1.86,4.98-5.06,5.24-8.61l-.33-.18h0c-.27,4.34-3.14,8.09-7.25,9.49-.49-.17-.83-.38-1.48-.65-.02-.35.04-.7.16-1.02v-.05c3.9-.9,6.65-4.39,6.6-8.4v-.36l-.5-2.01c-.16-.18-.33-.97-.65-1.47-.11-.35-.17-.71-.16-1.07v-2.79c.62.48,1.12,1.09,1.49,1.78h.16c.16,0,.16.09.5.17-.61-.93-1.33-1.77-2.15-2.51.24-.17.53-.26.83-.27.33.05,1.49.12,1.49.16l.16.5c.05.31.16.61.33.88v.31l1.16-1.07c-.35-.51-.35-.87-.5-.96-.22-.23-.51-.4-.83-.48-.27-.06-.55-.08-.83-.07-.49,0-1.31-.26-1.49-.25,0,0-.33.15-.49.28v-.54c-.33-.15-.5-.37-.5-.53h0l.5-.5-.15-.61c.16-.2.16-.39.33-.58.18,0,.32-.15.33-.33l-.16-.28c.16-.26.83-1.45.65-1.81l-.33-.1v-.38l.06-.31.1.24.49-.16-.16-.36-.4.12c.19-1.19-.04-1.96-.51-2.44l.42-.12-.16-.39-.49.16.09.2c-.23-.19-.5-.32-.79-.41l.37-.12-.16-.36-.49.14.12.29c-.35-.08-.71-.11-1.07-.1l.46-.14-.16-.38-.33.16v.35c-.3,0-.61.03-.91.08l.26-.12-.16-.38-.37.16.16.34c-.66.1-1.3.27-1.93.49l.12-.05-.16-.37-.33.15.16.35c-.33.07-.49.12-.65.16v-.42c.16-.13.16-.26.33-.41-.41-.2-.85-.32-1.31-.36-.4.03-.78.16-1.12.36h0l.16.38.05.53c-.17-.04-.34-.09-.51-.15l-.1-.03.14-.36-.36-.15-.18.32.25.1c-.86-.31-2.8-.83-4.21-.51l.12-.3-.36-.14-.16.36.27.12c-.29.08-.57.21-.81.4l.08-.19-.36-.16-.17.38.29.12c-.36.4-.55.93-.52,1.47l-.3-.12-.15.38.38.15.07-.18c0,.07,0,.14,0,.21-.01.17-.01.35,0,.52l-.26-.1-.14.37c.06.15.23.22.38.16l.06-.16c.03.21.08.41.14.61-.2.07-.43.11-.31.31.2.56.41,1.1.65,1.66l-.09.22c0,.17.13.31.29.33.07.2.15.4.22.6v.03l-.13.65.59.54c-.74.11-1.48.17-2.23.18-1.15-.07-1.42.49-1.45.65l-.07.25c.12.15.22.32.28.5l.03.23c0,.25-.09.5-.23.71-.1.13-.23.24-.38.31l-.2.12.05.14.09.2.23.07c.09,0,.28.05.28.26h0l-.07.22c.13.1.21.26.22.43-.01.21-.09.41-.24.56l.25.39c-.1.18-.18.37-.26.55h.12l.34-.1c.19-.4.41-.78.65-1.15-.22-.45.38-.58.4-.62l.1-.18c.09-.21.22-.39.39-.54.2-.24.43-.46.65-.69v1.49l.52-.14v-1.55h6.45v7.2h-6.45v-2.15l-.52.05v2.67c-.17,2.63.88,5.2,2.84,6.96v.05c-3.1-2.06-4.46-5.93-3.33-9.48h-.45c-.25.83-.38,1.69-.38,2.55-.02,3,1.52,5.79,4.06,7.37-.02.21-.07.41-.13.62-.4-.14-.78-.32-1.14-.54l-.13.12c.24.37.51.72.81,1.05l-.15.18-.21.24c-3.11-1.94-4.99-5.36-4.97-9.02-.01-.64.04-1.28.16-1.91h-.36c-.12.62-.18,1.25-.16,1.88,0,.97.11,1.94.35,2.88l.25.24c.12.2.19.42.23.65l.05.25.09.33v.13l-.03.1c.86,1.99,2.31,3.67,4.16,4.81l-.16.31.22.31c.61.44,1.38.58,2.11.39h.07c.18.09,1.11.43,2.12.83,0,.33-.09,1.8-.05,2.92h-.24c.15.33.24.68.24,1.04-.07.64.03,1.29.28,1.88.26.37.62.67,1.04.84.4-.19.74-.48.99-.84.28-.59.39-1.24.33-1.88,0-.35.06-.7.17-1.04,0,0-.02-.07-.19.05v-.03ZM16.15,17.12c.14-.33.21-.68.2-1.04l1.03-.27v.13c-.44.36-.86.75-1.24,1.18ZM28.91,34.29c0,.18.16,1.45-.65,1.19-.34-.11-.67-.25-.99-.41.57-.21,1.12-.47,1.64-.77ZM23.79,33.2v-8.93h6.43v.79c.08,2.01-.62,3.97-1.96,5.46v-.25l-.18-.06v-.13l-.16.05c-.48.24-.65.14-.65.13.11,0,.22-.02.33-.05.17-.05.33-.16.33-.28s.16-.28-.16-.41c-.17-.11-.33.07-.65.22-.24.2-.52.34-.83.4-.16,0-.33-.33-.33-.4.16-.06.33-.08.5-.08h.16v.22l.16-.12v-.07h.17v-.13h.16v-.1s.16-.12.16-.3v-.06l.16-.1-.16.05-.16.18-.5.23h-.33c-.16,0-.33,0-.33.2-.09.23.02.49.26.58.08.03.16.04.24.02.16-.03.16-.09.5-.25.21-.16.43-.29.65-.41l.17.15-.17.23c0,.1-.16.07-.49.13-.16.05-.65.15-.83.23-.15.08-.33.1-.5.05v-.35h-.16l-.16-.07v-.07l-.16-.03h0l-.17.1v.09l-.16-.05v.28l.16.13v.76l-.16-.1v.05l-.16-.05-.16-.13-.16-.33v-.35l-.17-.07v.1l-.18-.1v.2h-.16v.18l.16.08v.09l.16.13v.1l.17.12v.1l.16.08.16.1.16.13h.16l.17-.05v.05l-.17.1h-.16l-.33-.15-.16-.1h0l.16.16h-.33l.17.13v.18l.16-.07.16.03-.16.08h.33v-.1l.16.05.17-.09v-.11l.16.07v.09l.16-.16.16.05v-.11l.16.03.17-.28-.17-.23.17-.16.33-.3.16.09.16.13.17.07v.09l-.17.1-.16.05-.16-.11-.16.11h.16v.15l.16.07h0l.16-.1.17-.05.16-.12.16-.14v-.3l-.33-.16v-.09c.16,0,.33.18.49.17.13-.02.25-.09.33-.2l.33.14v.24c-1.18,1.19-2.67,2.03-4.29,2.45ZM24.95,33.35v.69c-.3-.08-.57-.21-.83-.38.33-.1.5-.16.83-.31ZM25.28,30.63v-.29l.16.11v.33h-.16v-.16ZM25.11,30.22v-.12h.17l-.17.12ZM30.72,24.63v-3.64c.66,1.14,1.01,2.43,1,3.75-.02,2.85-1.51,5.49-3.93,6.99,2.05-1.76,3.14-4.38,2.93-7.07v-.03ZM30.22,16.86v7.2h-6.43v-7.2h6.43ZM29.75,14.21l-.33-.25v-.07c.33-.12.5-.2.83-.29l-.49.61ZM24.78,7.71c.34-.06.67-.14.99-.25.49-.17.98-.31,1.49-.43,1.49-.38,2.48-.26,2.97.31.41.44.59,1.04.5,1.63-.15-.2-.32-.38-.5-.56-.35-.18-.75-.23-1.13-.14h0c-.19-.47-.67-.76-1.18-.72-.45.07-.89.19-1.31.36-.51.26-1.08.41-1.65.45h-.16v-.66ZM24.45,9.28v-2.3l.16.05v2.23l-.16.05v-.03ZM25.28,9.31h-.5v-.7h.16c.63,0,1.26-.17,1.81-.46.37-.16.76-.28,1.16-.35.49,0,.83.46.99.56-.41.18-.87.23-1.31.15l.17-.05c.16-.11.49-.38.49-.38-.23-.02-.46.04-.65.16-.16.12-.33.27-.16.37,0,.23.65.31,1.49,0,.37-.15.79-.14,1.15.05.33.22.65.6.65.78,0,.24-.06.48-.16.69,0,0,.49,1.09.16,1.31-.16-.02-.29-.14-.33-.29-.19-.22-.31-.49-.33-.78-.35.76-.63,1.55-.83,2.36.34-.27.74-.47,1.16-.58l.16.03-.16.25h0c-.16.35-.46.61-.83.71-.48.21-1.02.2-1.49-.03-.3-.13-.49-.42-.5-.75,0-.35.18-.68.5-.84l.49.08c.17.22-.16.51-.16.65.5-.33.99-.73.99-1.27,0-.13-.99-.17-1.31.08h-.16c.39-.42.57-.99.5-1.56v-.12c-1.15.27-.83,1.6-.99,1.68l-.16-.41c-.2-.24-.51-.36-.83-.31-.17.07-.3.23-.33.41-.14.45-.02.95.33,1.27-.16-.18,0-.36,0-.52s.16-.27.5-.18l.16.25c.14.35,0,.75-.33.92-.3.3-.73.43-1.15.35-.59-.12-1.08-.53-1.31-1.09l.17-.37c.53.22.98.59,1.31,1.05v-2.62c-.33.2-.83.98-1.31.78.03-.53.32-1.01.78-1.29ZM27.58,13.89c0,.24-.33.39-.49.34l-.5-.1c-.27-.02-.49-.25-.49-.52.16-.25.33-.41.65-.35l.5.08c.16.04.53.29.33.54h0ZM24.96,13.33l-1.17.76-.92-.77.92-.84,1.17.86ZM23.48,8.71l.33-.31-.33-.31.33-.31-.33-.31.17-.28-.17-.23c.01-.17.15-.3.31-.3.17,0,.31.13.33.29v.51l-.16.31.16.31-.16.31.16.31c0,.15,0,.28-.16.31l.16.31h-.65l.33-.31c-.17-.04-.34-.17-.34-.32h.02ZM23.98,10.46c.32.04.54.33.49.65-.04.32-.33.54-.65.49-.29-.04-.5-.29-.5-.58.04-.32.31-.57.64-.58h.02ZM23.1,7.03l.13-.05.07.05v2.23l-.07.05-.13-.05v-2.23ZM20.48,7.03c.65.15,1.09.31,1.47.43.27.1.55.17.84.24v.65h-.18c-.57-.03-1.13-.16-1.65-.39-.38-.17-.79-.29-1.21-.36-.5-.02-.97.26-1.21.71h0c-.37-.1-.76-.05-1.09.14-.2.11-.37.27-.51.45-.04-.54.11-1.09.45-1.52.58-.6,1.6-.72,3.12-.33h-.03ZM17.31,12.18c.26-.07.52.03,1.11.5-.08-.79-.3-1.56-.65-2.28-.18.36-.26.84-.76,1.02-.14-.23.15-1.31.15-1.31,0,0-.1-.37-.16-.83.14-.27.35-.49.61-.65.33-.16.72-.17,1.06-.02.89.35,1.47.26,1.58,0,.05-.1.03-.25-.18-.37-.19-.1-.4-.16-.61-.16.15.14.32.27.5.38l.05.05c-.41.09-.83.03-1.21-.15.19-.35.55-.56.94-.56.39.07.76.18,1.12.35.56.28,1.17.44,1.8.46h.16v.73h-.43c.38.24.69.58.9.98v.35c-.59,0-1.25-.78-1.25-.78v2.62c.29-.51.76-.9,1.31-1.1l.1.36c-.08.51-.71.94-1.2,1.09-.49.09-1-.06-1.38-.39-.21-.28-.41-.65-.18-.99.07-.13.21-.2.36-.18.37.09.3.5.33.73.34-.37.41-.92.18-1.37-.1-.22-.35-.34-.59-.27-.55.09-.43.58-.65.88-.13-.2.25-1.78-1.01-1.81-.31.65.12,1.22.45,1.72h-.03c-.18-.2-1.15-.48-1.31-.29-.08.37.07.75.39.96.18.17.37.33.58.48-.07-.22-.29-.4-.22-.65.09-.12.23-.2.38-.2.31.03.46.33.56.52.11.43-.08.88-.48,1.09-.6.28-1.29.22-1.83-.15l-.42-.37.03-.11-.11-.25ZM21.4,13.63c.02.27-.17.51-.43.54l-.43.08c-.23.09-.49-.02-.59-.25-.09-.23.02-.49.25-.59.05-.02.1-.03.15-.03l.43-.1c.27-.07.54.08.62.35ZM17.52,13.63l-.04-.05c.25.1.6.1.81.27-.03.21-.25.29-.43.41l-.34-.63ZM21.53,15.81c-.53.05-1.01.11-1.47.16-.15.03-.3.05-.46.07h-.1l-.84.16h-.13c-.15.05-.3.09-.46.12-.19-.32-.29-.68-.28-1.05l.03-.1.05-.03v-.04l.05-.05h0l.05-.05c.33-.25.74-.18,1.17-.31.91-.13,9.4-.38,10.73.48.33.33,0,.83-.16,1.17l-.16.05-.17-.03-.16-.03v-.03h-.16l-.5-.11-.09-.07-.33-.03-.33-.05h0c-.65-.09-1.31-.14-1.96-.22h-4.29ZM17.18,25.07v-.79h6.45v8.94c-.85-.25-1.67-.59-2.44-1.03-.35-.42-.8-.73-1.31-.92-1.8-1.54-2.8-3.83-2.7-6.2ZM19.6,32.06c.05-.31.1-.61.23-.61.51.2.96.52,1.31.94-.86-.48-.98-.43-1.01-.39l-.07.1c-.06.28-.15.56-.26.83l-.14-.08-.22-.08c.07-.23.13-.46.15-.7ZM18.42,32.54c.36.2.83.36,1.19.51l.23.1h.07l.13.07v.35l-.29.26-.17-.1-.05-.03h0l-.08-.05-.33-.33-.13-.13c-.2-.2-.38-.42-.56-.64ZM20.21,33.2l.09-.05.22.16v.13l-.09.35-.24.28-.28.03-.09-.08.33-.31c.1-.16.12-.36.06-.54v.03ZM18.42,34.63c-.17-.12-.22-.2-.22-.22.16-.27.36-.52.59-.74l.15-.16.33.28-.05.05c-.28.26-.46.45-.48.6h0c0,.08.09.24,1.05.52-.49.03-.97-.09-1.38-.35v.03ZM23.79,42.11l-.33-.31.33-.31.33.31-.33.31ZM24.62,39.02c0,.1-.16.25-.16.48l.16.18-.5.08v.45l.33.14c.16.07.16.29.16.45-.16.14-.33.21-.33.23-.33,0-.49-.26-.49-.53,0,.27-.16.56-.45.53-.14-.01-.27-.1-.33-.23-.06-.16-.02-.33.1-.45l.34-.14v-.45l-.49-.08.1-.18c.03-.2-.05-.39-.22-.51-.03-1.04,0-1.65.05-2.93.56.26,1.22.52,1.72.74v2.23ZM22.55,35.56c-.21-.1-1.51-.61-1.96-.77h0c-.5-.17-.98-.38-1.45-.64l.22-.2.07-.09.24.13.2.25c.14.04.3.02.43-.05.17-.07.29-.21.35-.38.06-.13.08-.27.09-.41v-.21c-.06-.13-.18-.22-.31-.25l-.28.08-.12-.05c.05-.15.12-.31.17-.46.57.27,1.17.48,1.79.62.83.36,5,2.24,5.99,2.59l-2.34,1.05c-.66-.24-2.69-1.05-3.06-1.21ZM46.37,18.92h0ZM48.69,27.18c-.16-.05-.16-.41-.49-.49l.16-.22c-.33-.03-1.16-.65-1.81.79,0,.13-.33-.16,0-.51.32-.42.54-.9.65-1.41-.16-.34-.16-.37,0-.45,0-.07-.16,0-.33.14,0,.16,0,.18-.16.36-.2.19-.36.41-.5.65l-.16.16h0c0-.41.5-.75.65-1.15,0-.41-.16-.43-.16-.76v-.46c0-.07-.17.1-.33.28v.5c-.12.22-.29.4-.49.54.16-.19.33-.31.33-.58-.03-.27-.09-.53-.16-.79-.16-.18-.16-.05-.16.2-.33.33-.33.84-.33.13.03-.18-.03-.36-.16-.48-.16-.13-.16-.21-.16,0,.03.19-.03.38-.16.52-.17.24-.17.16-.17.37l-.49-.96c-.15-.55-.26-1.1-.33-1.66.17-.65.33-1.15.83-1.36.52-.21.97-.55,1.31-.99.12-.19.23-.38.33-.58-.16,0-.33.11-.16-.03.18-.14.29-.34.33-.56.16-.2,0-.18.16-.45.07-.15.19-.27.33-.36h-.33c0-.16.06-.31.16-.43v-.53c.16-.18.5-.46.65-.65s0-.48,0-.39c-.16.1-.16.18-.33.26s-.16,0-.49.15-.5.22-.5.46c-.13.19-.24.4-.33.62,0,.36-.33.58-.5.73s-.83.48-1.15.74c-.47.43-.81.98-.99,1.58-.23.5-.33,1.04-.29,1.58.13,1.18.53,2.32,1.16,3.33.49,1.02,1.81,3.41,1.81,3.41,0,0,.99,1.96.49,2.76-.33.83-1.15,1.02-2.48-1.74l-.65.88c.45,1.05,1.27,1.9,2.31,2.38.34.19.49.6.33.96,0,.31,0,.28-.33.46s-.33.46-.16.65,0,.07.16-.18c0-.26.33-.1.5-.16s.33-.13.33-.26c.17-.13.17.05.33-.12.32-.14.52-.46.49-.81,0-.38-.33-.58-.49-.71.45-.27.75-.73.83-1.25,0-.46-.06-.91-.16-1.36,0-.56-.17-1-.17-1.4-.05-.32,0-.66.17-.94.16-.18.16-.26.49-.25s.65.38.99.05q.16-.2.16-.28c0-.09-.16.09-.33.05h-.02ZM45.54,25.4,43.58,26l-.33-.05-.33-.12.17.36v.04l.16.2.49.36.16.07.17.35-.17.07-.16.56v.26l-.16.23-.16.12-.33.5-.17.26v.18l-.33.08-.5.45v.25l-.33.29-.33.1-.33.48v.29l-.33.39-.33.12-.33.48v.31l-.33.35-.33.13-.33.51v.28l-.33.33-.16.14-.33.51-.16.23v.1c-.15-.08-.32-.13-.5-.13-.66-.06-1.25.43-1.31,1.1,0,.05,0,.1,0,.14-.06.68.44,1.28,1.12,1.34.68.06,1.28-.44,1.34-1.12,0-.06,0-.12,0-.17,0-.39-.17-.76-.49-.99l.16-.07.16-.13.33-.51.16-.2.33-.41.16-.13.33-.52v-.16l.33-.48.33-.11.33-.48v-.24l.33-.45.33-.12.33-.5v-.16l.33-.33.33-.09.33-.45.17-.23.16-.23.16-.12.49-.49v-.52l.33-.16.16-.56-.16-.38-.16-.4v-.36l-.5-.39ZM37.47,37.14c-.43-.05-.75-.43-.7-.86s.43-.75.86-.7l.16.05v.33l.17-.07.16-.12c.14.17.2.38.16.6,0,.43-.36.77-.78.76,0,0-.02,0-.03,0h-.01ZM33.86,23.07v.22c0,.18.16.34.16.52l.16.12.16.16v-.83l.5.22.33.23.5.18.33-.03.33.11.16.22.65.18h.16l.33.11.16.22.5.16-.5-.65-.33-.12-.16-.21-.65-.18h-.16l-.5-.14-.16-.18-.5-.18h-.33l-.67-.18h-.16v-.05c.03-.28-.03-.56-.16-.81v-.03l-.5-.54c.09.42.2.84.33,1.25v.27-.03ZM21.02,30.71l.1.27-.33.43c-.05.07.05,0,.24.03.27.03.54.09.81.18.2.08.15.28.33.13s.65-.56.65-.6c.06-.68.08-1.35.07-2.03h0v-.1c0-.71.16-2.36.16-2.36.18-.14.21-.41.07-.59-.02-.02-.04-.05-.07-.07-.07-.05,0-.07-.04-.38-.02-.61-.53-1.08-1.14-1.06-.12,0-.25.03-.36.07-.71.16-.89.6-1.65.41-.31-.07-.31-.38-.56-.52-.18-.1-.39-.14-.6-.12-.36,0-.66.29-.66.65,0,.03,0,.05,0,.08,0,.31-.03.35-.2.46s-.26-.05-.23,0,.14.18.39.24.31-.2.41-.25.09,0,.28,0,.26-.46.26-.46c0,0-.03.05-.21.08s-.28-.16-.28-.33.45-.46.58.2-.38.78-.58.84-.33,0-.43.07l-.13.39.25.3c.12.83.38,1.64.77,2.39.47.67,1.13,1.19,1.9,1.49l.19.15ZM22.26,25.15c.26.15.28.78.23.78-.16.03-.29.16-.3.33,0,.12.05.24.12.35l-.03.2-1.07-1.53c.32-.2.71-.24,1.06-.12ZM20.69,25.49l.13-.05.14-.07,1.23,1.79-.1.58-1.51-2.23.1-.03ZM19.93,25.58h.35l1.72,2.56-.1.52-2.16-3.15.2.07ZM19.52,25.72l2.31,3.33-.12.65-2.29-3.31.1-.67ZM19.42,28.07c-.09-.43-.11-.87-.07-1.31l2.26,3.27-.09.05-.08.16s.35.15-.31,0-1.43-1.05-1.7-2.17h-.02ZM17.01,37.89l-.05-.07.07-.24-.2-.05-.03-.13c-.11-.19-.35-.26-.54-.15l-.1.07-.2-.12s-.18.09-.18.24l-.18.05c-.19.09-.28.3-.21.5h0l-.2.18.22.2.03.16.33.2v.24l.28-.05h.35l.2-.2h.28l-.05-.25c.21-.08.32-.32.24-.53,0-.02-.01-.03-.02-.05h-.02ZM15.62,37.79l.05-.07v-.04l.03-.08h.05l.2.16v.09l-.09-.03-.07-.09h0l-.05.12-.03.05h.09l.05.07-.09.05-.16-.1v-.12ZM15.8,38.55l-.12-.11-.05-.05h0l-.08-.07v-.05l.21-.13.07.07-.05.05-.1.03h0l.09.09.05.05v-.05h.07v.08l-.09.1ZM16.12,37.62l.1-.14.15.07h.18v.05l-.16.2h-.09v-.07l.09-.07h0l-.11-.07h-.07v.05h0l-.07.03-.05-.07h.03ZM15.99,38.17l.08-.24.24.07-.09.24-.23-.07ZM16.33,38.63h-.07l-.1.05h-.05v-.25h.07v.17h.2l-.03-.07h0v-.08h.09l.05.16h-.14ZM16.71,38.34l-.25-.09v-.08h.07l.1.05h0l.03-.14v-.07h-.15l.05-.07h.18v.35l-.03.04ZM30.84,38.18l-.14.04h.16l-.03-.04ZM31.72,38.97v-.24l.33-.2v-.16l.16-.2-.16-.18h0c0-.18,0-.4-.17-.5l-.16-.03c0-.17-.16-.27-.16-.25l-.33.13v-.07c-.23-.11-.5-.04-.65.15v.13l-.16.05v.3c-.03.19.03.38.16.51v.25h.33l.16.2h.33l.32.11ZM31.39,38.19l-.16.07-.16-.22.33-.09v.24ZM31.55,37.75l.16-.16v.13l-.16.09v-.05ZM31.72,37.94v-.2l.16.07v.14l-.16.13-.16-.05.16-.1ZM31.55,38.45h0l.16-.05v-.13l-.16-.05.16-.07.16.13v.12h-.16v.05l-.16.11v-.12ZM30.9,37.62h.16l.17-.07.16.16-.16.07v-.12h-.17v.24l-.16-.2v-.08ZM30.73,37.95h.16v.12h-.16v-.12ZM30.73,38.35v-.27l.14.11h0v.08l-.14.08ZM31.23,38.73v-.07h-.17l-.16-.07.16-.16v.13h.17v-.15h.16v.32h-.16ZM11.17,41.79h-.28v.65c-.02.1-.02.2,0,.29l.23.07c.18-.08.28-.26.26-.46v-.09c0-.18-.07-.35-.21-.47ZM14.2,42.77h0ZM13.98,42.46h-.18v.29h.38l-.12-.21-.07-.09ZM21.71,39.84c-.97-.29-2.32-1.22-2.36-1.58,0-.31.16-.59.43-.75.18-.14.56,0,.59.03l.05.09-.1.03h-.4c-.1.1-.36.22-.33.54,0,.22,1.05.76,1.96,1.15.22-.03.05,0,.6,0-.07-.22-.16-.42-.27-.62h.35v-1.41c-1.12-.1-.83-.1-2.14-.17-.53.09-.99.44-1.22.92-.05.31-.26,1.96.05,2.33s.52.07,1.83.62c.12.05-1.53,0-2.24,0l-.07-.25c-.15-.71-.25-1.21-.62-1.43l-.33-.16c-.47-.16-.98-.2-1.47-.1-.44.05-.88.15-1.31.28l-.04-.31c-.1-.2-.21-.39-.33-.58.17-.29.51.1.65-.18l-.09-.29c-.23-.05-.29-.51-.58-.23-.11.11.1.51-.18.41-.12-.17.14-.35-.05-.5h-.23c-.12.22-.45.27-.43.52l.1.13c.15.1.37-.07.43.14-.13.12-.26-.05-.41.12v.29c.2.07.31.38.46.24s-.05-.37.14-.48c.26.16.43.44.45.74-.31.1-.65.25-.98.39.02-.19.02-.38,0-.58-.1-.21-.49-.97-.92-.9-.47.02-.92.17-1.3.43-.73.4-2.84,1.65-2.84,2.06.08.52.24,1.02.48,1.49.07.33.18.65.31.96.15.26.14.43.55.5s11.13.05,11.45,0c.34-.1.63-.32.83-.62.08-.82.08-1.64,0-2.46-.11-.41-.05-.62-.48-.84h0ZM9.5,40.94c-.18,0-.29-.1-.33-.2-.05-.23.33-.53.41-.58h.08c-.14.12-.2.3-.16.48l.05.1c.87-.14,1.74-.22,2.62-.24-.05-.23-.11-.59-.14-.81l.1-.23c.08-.09.24-.07.45,0h.18c.37.03.4,0,.43-.22-.09-.23-.27-.4-.5-.49l-.18-.07h.26c.28.1.61.46.6.65-.05.31-.28.37-.6.33l-.2-.03h-.3v.07c.05.23.27.74.31.9h.98c0-.13,0-.2.05-.49.4-.18.75-.33,1.06-.45-.07.2-.48.36-.56.51v.65c.29-.09.55-.27.75-.51.11-.22.06-.49-.13-.65.44-.15.89-.25,1.35-.29.5-.11,1.02-.07,1.49.12-.07.11-.17.2-.28.26l-.28-.13-.18.35.36.16.12-.26c.15-.07.27-.18.37-.31h.05c.27.16.37.65.5,1.27l.05.2c-.81,0-1.85-.03-2.75-.05-2.67-.03-5.87-.03-6.01-.06ZM11.78,42.25c.02.2-.05.4-.18.56-.11.13-.28.21-.46.2-.22.02-.44.02-.65,0h-.22l.18-.12.05-.09v-.13c.03-.3.03-.59,0-.89l-.05-.1-.08-.1-.15-.12c.25.02.49.02.74,0,.21-.01.42.05.58.17.14.12.22.29.23.48v.13ZM12.84,41.59l-.1.23c-.03.26-.03.53,0,.79l.12.35v.07h-.65l.05-.1.08-.22v-.87l-.1-.23-.15-.12h.81l-.06.1ZM13.98,42.2l.22-.31v.86l.22-.14.1-.11v.51h-1.31l.14-.11.08-.12v-1.05l-.03-.13-.08-.1h1.15v.63l-.31-.31-.35-.05c-.05,0-.05.07-.05.23v.25l.24-.04ZM16.59,42.71v.15l.12.07v.03h0l-.33.1-.17-.11c-.15.11-.34.16-.52.14-.2,0-.65-.14-.65-.92v-.39l-.03-.16-.15-.15h.77l-.05.15-.1.2c-.06.3-.03.62.1.9l.14.09c.31,0,.4-.05.46-.23.08-.3.08-.62,0-.92h0l-.05-.03-.13-.15c.2-.02.41-.02.61,0h.2l-.13.16-.07.15c-.04.31-.05.63-.03.94h.01ZM17.87,43.08l.15-.12.07-.11v-1.07l-.03-.13-.09-.1h1.17l.03.46v.16l-.29-.31-.35-.05c-.05.03-.07.08-.07.25v.23h.16l.2-.3v.86l-.12-.21-.08-.13h-.2v.31h.38l.21-.16.12-.1.03.51h-1.3ZM20.7,42.07l-.12-.11c-.08-.08-.19-.11-.3-.1,0,0-.1.05,0,.83v.13l.09.15.1.12h-.77l.09-.1.1-.18v-.94l-.25.05-.18.07v-.45h.09c.22.04.44.05.65.05.14,0,.29,0,.43-.05h.1v.54ZM18.33,38.08c.18-.65-.5-.97-.5-.97.07.35-.52.83-.58,1.09-.02.35.07.7.25,1.01h0c.36-.3.64-.69.83-1.13ZM31.87,41.93v.94l.17.07c.16,0,.33-.16.33-.46v-.09c-.02-.16-.08-.31-.16-.45l-.33-.02ZM28.44,41.85c-.16,0-.33.23-.33.52s.16.53.33.53.16-.23.16-.53-.03-.52-.16-.52ZM36.33,38.74c-.33-.28-.73-.46-1.16-.52-.33-.05-.83.83-.99,1.03v.6c-.33-.16-.99-.29-1.31-.41,0-.33.19-.64.49-.77.16.11,0,.21.16.38.16.28.16-.1.33-.17l.16-.26c-.16-.16-.33,0-.5-.12,0-.21.33-.05.33-.14l.16-.13c0-.25-.33-.3-.33-.52h-.33c-.16.15,0,.33,0,.5-.33.1-.16-.3-.16-.41-.33-.28-.33.18-.65.23v.29c.16.28.5-.11.65.18-.17.15-.29.35-.33.58l-.17.29c-.37-.14-.76-.23-1.15-.28-.5-.1-1.01-.07-1.49.1l-.33.16c-.38.39-.61.89-.65,1.43v.25c-.83,0-2.48,0-2.48-.03.65-.35,1.65-.22,1.96-.58s.17-2.02.17-2.33c-.17-.31-.83-.97-1.31-.9-.71.09-1.43.14-2.14.15v1.4h.33c-.09.21-.15.43-.16.65.16-.01.33-.01.49,0,.77-.28,1.5-.68,2.15-1.19,0-.33-.33-.46-.5-.54h-.33l-.16-.03v-.09c.16,0,.49-.18.65-.03.28.15.47.43.49.75,0,.36-1.31,1.31-2.31,1.55-.35.08-.57.43-.49.78,0,0,0,0,0,0-.13.81-.18,1.64-.16,2.46,0,.16.49.59.83.65s11.22.05,11.71,0c.33-.07.33-.17.33-.5.18-.29.29-.62.33-.96.26-.46.43-.96.5-1.49,0-.41-1.82-1.6-2.65-2.04ZM27.09,43.13h-.16v-.11l.16-.12v-.65l-.5.54s-.16-.28-.33-.51v.5l.16.15v.16h-.66l.16-.33v-.88l-.16-.2-.16-.12h.65l.49.69c0-.15.33-.46.33-.65v-.05h.65l-.33.28v1.17l.16.1-.48.03ZM28.25,43.13c-.39-.06-.67-.4-.65-.79-.02-.39.26-.74.65-.79.42-.04.8.26.85.69,0,.04,0,.09,0,.13,0,.43-.34.79-.78.8-.02,0-.05,0-.07,0v-.03ZM30.72,41.7l-.16.16v1.27h-.16l-.83-.83v.53l.16.14v.1c0,.05,0,.07-.5.03h-.16l.16-.28v-.9l-.16-.2-.16-.11h.49s.65.71.83.89v-.71l-.16-.14.5-.03h.16v.08ZM32.69,42.35c0,.25,0,.45-.16.58-.13.14-.3.22-.49.22-.17,0-.65-.03-.65-.03h-.16l.16-.13.16-.07v-1l-.16-.12v-.08l-.16-.13c.22.01.44.01.65,0,.23-.03.46.03.65.16.16.12.16.28.16.48v.12ZM34.34,43.05l-.16.1c-.33.05-.5-.23-.65-.43v-.11h-.16v.28l.16.13.16.12h-.16q-.65,0-.65-.07l.16-.07v-1.11l-.16-.13h0s0-.14.65-.13c.5,0,.65.28.65.51h0c0,.16-.16.29-.33.36l.16.29.16.1v.07l.16.08h0ZM34.99,43.16c-.38-.05-.67-.38-.65-.77,0-.36.29-.65.65-.65s.65.29.65.65c.01.39-.27.72-.65.77ZM36.5,41.95c0,.15-.16.83,0,.89v.33h-.65l.16-.11v-1.27l-.16-.13h.83c-.11.06-.17.17-.17.29ZM37.98,42.04c-.1-.07-.21-.11-.33-.1,0,0-.16.05,0,.83v.28l.16.11h-.83l.17-.1v-1.14c-.17,0-.33.22-.33.22v-.49c.22.03.44.04.65.05.17,0,.33-.01.5-.05v.39ZM38.31,40.73c0,.1,0,.16-.33.2h-6.77l-1.96.05v-.2c.06-.47.27-.9.6-1.23.07.08.15.15.25.21l.14.29.5-.16-.33-.31-.26.12c-.08-.04-.15-.11-.19-.19.3-.18.5-.29,1.43-.18.51.03,1.01.13,1.49.29-.23.13-.3.43-.17.65,0,0,0,0,0,0,.17.35.65.48.65.51v-.65c0-.15-.49-.31-.49-.51.45.12.88.27,1.31.45v.54c.33,0,.83-.07.99-.07.19-.27.31-.58.33-.91v-.06h-.33l-.16.03c-.33,0-.5,0-.5-.33,0-.16.17-.59.5-.65h.16v.1c-.24.08-.42.27-.49.51,0,.18,0,.25.33.22h.16c.33-.04.5-.07.65,0v.22c-.16.22-.16.69-.33.9.83,0,1.65.05,2.48.15l.16-.07c-.05-.18-.17-.34-.33-.45h.17c.17.06.5.29.33.52h0ZM30.22,38.17c0-.26-.65-.74-.49-1.09,0,0-.65.35-.5.97.14.46.43.86.83,1.13,0-.03.35-.76.16-1.01ZM33.36,41.88v.45h.33v-.33l-.16-.11h-.16ZM35.01,41.88c-.16,0-.16.24-.16.53s0,.53.16.53.33-.24.33-.53-.16-.55-.35-.55l.02.02ZM6.55,8.4l-.12-.12-.11.12.11.12.12-.12ZM31.38,8.43l.16.38c.16.07.33,0,.33-.15l-.16-.38-.33.15ZM31.38,7.78l.33-.15-.16-.38c-.16-.05-.33,0-.33.16l.16.37ZM26.76,6.42l-.16-.38-.33.14.16.38.33-.14ZM16.46,7.41l-.36-.16-.16.38.38.14.14-.36ZM19.17,5.89l-.36-.16-.19.38.38.15.17-.37ZM20.31,5.99l-.38-.16-.14.38.38.15.14-.37ZM21.45,6.19l-.36-.14-.17.38.38.14.15-.38ZM2.72,10.52v.16h.16c.02.09.04.17.08.25h-.11v.16h.16v-.07c.04.07.09.14.14.21h-.11v.16h.16v-.09c.05.05.09.11.14.16l-.07.16c.16.18.35.35.51.51v.1l.17.08.16.18.07.03v.25l.3.05c.16.09-.07.27,0,.38l.13.2v.05c-.2.51-.03,1.09.41,1.42.49.48.81.07.81.07.05.18-.02.37-.16.49.35.2.51,0,.56-.1l-.05.15c-.16.51-.52.22-.28.39s.45-.08.48.07-.18.22-.1.27l.37.03c-.12.65-.86.26-.65.45.53.46.83-.03.83.13-.03.17-.09.33-.18.48-.12.35-.08.73.1,1.05.11.28-.25.48-.28,1.17-.08.35.06.7.35.91.22.2-.29.65-.05.51.25-.18.47-.4.65-.65.1-.13.21-.26.33-.38l.54.1c.12.13.43.1.86-.18.18-.14.33-.3.46-.48.45-.5,1.25-.07,1.45.12.12.12.26.21.41.28-.13-.14-.23-.31-.28-.49-.09-.28-.2-.26-.62-.4-.14-.05-.24-.18-.41-.23.45.1.89,0,1.21.31s0,.48.43.92c.54.54.89.26.73.26-.19-.11-.32-.28-.38-.49-.09-.31-.1-.45.1,0,.26.65.97.5.69.4s-.5-.79-.14-.43c.23.21.58.21.81,0-.25-.12-.48-.26-.69-.43-.33-.28-.58-.74-.33-.49.24.29.54.51.89.65.38.12.51-.38.51-.51l-.23-.31c-.27-.22-.17.99-.84-.26-.1-.2-.26-.65-.1-.5s.29.69.81.54.22-.08-.11-.2-.12-.71-.65-1.05c-.2-.1-.04-.48-.04-.3.08.29.36.48.65.45.41,0,.69-.65.58-.96-.1-.43-.46-.75-.9-.79-.29-.02-.58.05-.83.2-.33.14-.61.99-1.17.9-.41-.07-.6-.26-.2-.22.89.12.83-.77,1.09-1s.4-.15,0-.28-.83.49-.83.29v-.25s-.05-.33-.12-.16-.26.22-.26.12v-.22l-.13.13s-.1-.1.07-.26c.13-.18.23-.39.29-.61-.16.1-.33.18-.51.22-.16,0-.16.07,0-.09.28-.25.3-.51.24-.38l-.65.05.3-.18v-.51l-.08.18c-.09.09-.09-.2,0-.38.04-.12,0-.25-.09-.34,0,.18-.14.34-.33.34,0,0,0,0,0,0l-.41-.08c.17-.06.32-.15.46-.26.16-.17.26-.31.18-.78-.03-.38-.35-.67-.73-.65l-.12-.26-.2-.15.12-.2-.15-.2v-.33h0l.07-.18-.1-.08v-.35l-.07-.41h-.15v-.2l.06.05.12-.1-.12-.14-.08.1c-.02-.1-.06-.19-.09-.29l.06.06.11-.13-.11-.12-.1.09c-.04-.07-.08-.14-.13-.2l.12-.12-.21-.12-.1.1c-.08-.05-.16-.08-.25-.1l.1-.1-.1-.13-.12.11.07.07c-.13-.03-.25-.03-.38,0l.1-.1-.12-.12-.12.12.1.1c-.13.02-.25.06-.37.1l.06-.05-.12-.12-.12.12.09.09c-.11.05-.21.1-.31.16l.04-.04-.12-.13-.12.11.1.1c-.21.14-.42.3-.61.47l.03-.04-.1-.12-.13.12.12.1h0l-.18.14-.07-.16v-.16c-.17-.02-.34,0-.5.05-.15.08-.28.19-.38.33h0l.13.12.07.18h-.27v-.16h-.15v.14c-.25.02-.49.06-.73.12v-.13h-.2v.16h.05c-.11.04-.22.08-.32.12v-.12h-.16v.17h.12c-.12.06-.23.13-.33.22v-.14h-.16v.14h.14c-.1.1-.18.21-.23.33v-.13h-.16v.16h.14c-.03.09-.05.19-.05.29h0l-.18.03ZM13.6,16.5c-.09.35-.65.56-.6-.05.07-.75.67-.28.6.05ZM4.07,12.2v-.05l-.08-.07c.08-.07.2-.09.49,0-.17-.28-.39-.53-.65-.73,0,.16.04.35-.11.5l-.16-.51c-.07-.09-.14-.18-.2-.28l.14-.33c.08-.13.23-.21.38-.2.39,0,.59-.15.59-.26l-.11-.1-.27.05.25.05h0s-.16.12-.48.13c.01-.15.12-.29.26-.34.16-.05.32-.07.48-.07.26.04.53.02.79-.07h.07l.12.26-.15.07c.18.02.36.1.5.22l.05.13c-.2.03-.41,0-.59-.09l.43.98c.03-.25.14-.48.31-.65l.09.14c.03.23-.07.45-.25.59-.17.11-.38.14-.58.09-.13-.09-.27-.18-.24-.35l.1-.13c.16-.03.2.14.24.22.07-.19.01-.4-.14-.53h-.27c-.2.12-.08.28-.11.43-.09-.05-.2-.71-.65-.51,0,.3.23.43.45.56v.03l-.52.1c.03.15.15.26.29.29l.3.09-.18-.2.1-.13.31.1c.1.14.1.34,0,.48-.18.2-.45.29-.71.25l-.26-.14ZM6.33,10.78l-.29-.12.1-.29.31.12-.12.29ZM6.47,11.1l.52.15-.26.46-.5-.13.24-.48ZM5.74,11.95l-.07.26-.16.12-.28-.03.09-.27.13-.11.29.03ZM4.54,12.76h-.2v-.15l.29-.07-.1.22ZM6.83,14.11v.23l.17-.16h.1c.07.05.05.28-.12.38l-.28-.05h-.1c-.17-.09-.29-.26-.3-.46h-.16l-.25-.13.24-.03.48-.12.51.23-.09.1h-.26l.07.02ZM9.45,15.94l.13-.05.07-.16-.03-.1v-.18l-.16-.29c.29.08.31.69.31.69l-.11.14-.18.14c.08.14.02.32-.12.4l-.24-.14-.38.14-.17-.14-.07-.03-.16-.07c-.22-.2-.65-.56-.74-.61-.13-.05-.22-.16-.25-.29l.25-.15c.1,0,.65.07.74-.2h0v-.05l-.12-.31-.48-.05-.1-.2.2.1c.09-.08.22-.08.31,0l.16-.33.16.07-.08.22-.05.03.33.45s.45-.16.31-.48v-.22c.06.09.1.19.14.29l.1.27v.07l-.16.14c-.12.17-.62.31-.73.37,0,0-.22.05-.18.2v.12l.16.35.22.08.09.1h.26l-.28-.23c-.18-.12-.31-.52,0-.55l.14.05.05-.18h.35c.12.19.21.39.28.6h.05ZM8.98,13.27l-.1.07-.07.24c-.2.07-.38-.07-.38-.15l.05-.09h.23l-.23-.14h0l-.16.2h-.11l.13-.54.39-.31.16-.18-.05.28-.1.14c.12.13.19.31.18.48h.05ZM9.2,11.12l.1.11h-.07l.05.25c-1.47.51-2.88,1.17-4.22,1.96l-.26-.15-.09-.14c0-.27.25-.3.43-.46.27-.2,3.39-1.68,4.01-1.57h.05ZM7.48,11.16l.16-.23h.18l.25.11-.16.23-.18.05-.25-.16ZM8.95,10.5l.12.13-.08.18-.2-.06h0l.16-.26ZM8.54,9.13l.28.46-.18-.05-.27-.23c.02.33.06.66.12.99.1-.15.23-.28.37-.39h.03v.12l-.18.39c-.14.16-.34.25-.56.25l-.31-.2.03-.39.18-.05.09.28c.15-.18.2-.43.13-.65l-.43.23h-.05c.06-.22.03-.46-.1-.65l-.07-.03c-.38.29-.03.74-.05.77l-.16-.06h-.31l-.07.22c.02.18.13.34.3.43l-.07-.2.14-.15.13.07v.4c-.08.17-.23.29-.41.33-.23.04-.46-.04-.61-.22l-.05-.13c.23-.02.46.04.65.16l-.43-.96c-.05.1-.14.5-.35.5-.06-.23-.01-.47.14-.65l-.18.09-.1-.28h.05c.22-.12.42-.28.58-.48l.36-.31c.15-.07.32-.05.45.05-.11.13-.26.23-.43.26v-.03l.12-.22-.2.16v.15c.07.08.29,0,.58-.26.1-.12.26-.18.41-.15.14.02.27.07.38.16.04.09.07.18.09.27h-.02ZM6.31,8.95c.15-.14.31-.28.48-.39.5-.4.89-.53,1.21-.4.21.11.37.3.43.53l-.29-.12c-.16,0-.31.04-.43.13-.15-.13-.37-.15-.54-.07l-.39.33c-.16.18-.35.32-.56.43l-.05.03-.1-.25.25-.22ZM5.77,8.98h.03l.37.82h-.05l-.37-.83h.01ZM5.52,8.94l.17.07v.1l.1.09v.15l.13.08v.16l.15.07v.14l.13.09-.25.11v-.14l-.14-.09.03-.14-.13-.09v-.16l-.19-.07v-.14l-.07-.07.07-.16ZM5.34,9.17h.07l.36.83h-.03l-.36-.83h-.03ZM4.33,9.64c.26-.05.46-.07.65-.09l.35-.05.11.25-.07.03c-.24.09-.49.14-.75.13-.17,0-.35.02-.51.07-.18.08-.3.25-.31.45h0c-.16.03-.3.11-.4.23l-.11.25c-.11-.2-.13-.44-.07-.65.1-.29.48-.5,1.09-.62h.01ZM4.33,9.32h.16v-.16h-.18v.16ZM24.28,17.65v.07l-.16.2.16.11v-.16l.17-.07.16.2v2.44c-.16.09-.33-.08-.5-.11.16.16,0,.23,0,.23v.25c.16,0,.33-.24.5-.09v2.48l-.33-.05.17-.14-.33.07v.22c.5.14-.16.21,0,.43s.16-.2.33-.18l.16.07.16.17.16-.25h-.33l.16-.24h2.15c.02.17-.04.33-.17.45l.33.05.16-.07v-.43h1.96l.16.13v.16l-.16-.05-.16.1.33.14c.17-.5.33.2.5,0l-.13-.33.16-.16v-.28l-.16.05v.2l-.33-.11v-2.34c.17-.25.33,0,.5-.03v-.43c-.16,0-.33.24-.5.1v-2.21l.17-.35h.16v.2l.16-.25c-.5-.1.16-.29,0-.51l-.16.09c-.16.29-.33-.1-.5-.09v.2l.16.03-.16.27h-1.83c-.16-.25,0-.38,0-.38-.16.07-.33-.15-.33-.15,0,0-.16.25-.33.12.09.12.15.26.17.41h-2.15l-.16-.25.33-.05-.16-.2h-.16c-.16.38-.33-.13-.5-.05s.16.3.16.43ZM24.94,22.94h4.16v-4.84h-4.13v-.08h4.29v5h-4.32v-.08ZM25.44,20.84v-.24l.33-.08c-.16-.15-.49.03-.33-.18v-.12l-.16.05v-1.96h1.65v.13l-.17-.09v.16l.17.05.16.25c.16-.03,0-.38.16-.25l.16-.09-.16-.14v.1l-.16-.13h1.81v2.15l-.16-.07v-.1l-.17-.09v.24l-.33.07c.16.16.5,0,.33.2v.12l.17-.05v-.13l.16-.05v2.05h-1.81v-.13l.16.08.16-.16-.16-.07h-.16v-.25c-.16,0,0,.38-.16.23l-.17.1v.15l.17-.1v.13h-1.65v-1.9l.16.12ZM15.91,39.87c-.09.04-.13.14-.1.23.03.07.1.12.18.11-.08.06-.09.17-.03.25.04.05.1.07.16.07l.12.3c.25-.24.46-.41.69-.65-.18-.05-.29-.23-.24-.41.01-.04.03-.08.06-.12l-.89-.15c-.15,0-.18.3.05.37ZM31.55,39.5c-.33.05-.5.1-.83.15.11.15.08.36-.07.48-.03.02-.06.04-.09.05.17.26.4.48.65.65l.16-.3c.16,0,.16-.16,0-.31.16,0,.33-.2.16-.34.18-.08.18-.37,0-.37Z"/></svg>